<?xml version="1.0" standalone="no"?>
<!DOCTYPE svg PUBLIC "-//W3C//DTD SVG 1.1//EN" "http://www.w3.org/Graphics/SVG/1.1/DTD/svg11.dtd" >
<svg xmlns="http://www.w3.org/2000/svg" xmlns:xlink="http://www.w3.org/1999/xlink" version="1.1">
<metadata>
Created by FontForge 20170731 at Tue May 18 09:44:07 2021
 By Aleksey,,,
Copyright 2016 Google Inc. &#38; Colophon Foundry. Copyright 2017 Florian Karsten. All rights reserved.
</metadata>
<defs>
<font id="SpaceGrotesk-Medium" horiz-adv-x="1269" >
  <font-face 
    font-family="Space Grotesk Medium"
    font-weight="500"
    font-stretch="normal"
    units-per-em="2048"
    panose-1="0 0 6 0 0 0 0 0 0 0"
    ascent="1638"
    descent="-410"
    x-height="1004"
    cap-height="1434"
    bbox="-1372 -631 1958 2048"
    underline-thickness="102"
    underline-position="-307"
    unicode-range="U+0020-E133"
  />
<missing-glyph horiz-adv-x="1884" 
d="M205 1262q0 201 103 304t292 103h684q189 0 292 -103t103 -304v-1110q0 -201 -103 -304.5t-292 -103.5h-684q-189 0 -292 103.5t-103 304.5v1110zM389 1237v-1061q0 -264 242 -264h622q242 0 242 264v1061q0 264 -242 264h-622q-242 0 -242 -264zM598 920
q0 138 97.5 220.5t254.5 82.5q153 0 248.5 -79.5t95.5 -197.5v-10q0 -97 -52 -157t-161 -111l-26 -13q-41 -17 -41 -73v-66h-164v72q0 69 27 113t90 73l26 12q82 38 109.5 68t27.5 88t-50 96.5t-130 38.5q-84 0 -136 -44t-52 -122v-45h-164v54zM821 324q0 47 33.5 79.5
t79.5 32.5q47 0 80 -32.5t33 -79.5t-33 -80t-80 -33q-46 0 -79.5 33t-33.5 80z" />
    <glyph glyph-name="f_f.liga" unicode="ff" horiz-adv-x="1417" 
d="M1102 1004h287v-168h-287v-836h-193v836h-409v-836h-193v836h-278v168h278v253q0 79 47.5 128t124.5 49h254v-168h-180q-28 0 -40.5 -13.5t-12.5 -44.5v-204h409v253q0 79 47.5 128t124.5 49h254v-168h-180q-28 0 -40.5 -13.5t-12.5 -44.5v-204z" />
    <glyph glyph-name="f_f_i.liga" unicode="ffi" horiz-adv-x="1847" 
d="M1608 1462q65 0 110 -43.5t45 -107.5t-45 -108t-110 -44t-110.5 44t-45.5 108t45.5 107.5t110.5 43.5zM1102 1004h602v-1004h-193v836h-409v-836h-193v836h-409v-836h-193v836h-278v168h278v253q0 79 47.5 128t124.5 49h254v-168h-180q-28 0 -40.5 -13.5t-12.5 -44.5
v-204h409v253q0 79 47.5 128t124.5 49h234v-168h-160q-28 0 -40.5 -13.5t-12.5 -44.5v-204z" />
    <glyph glyph-name="f_f_j.liga" unicode="ffj" horiz-adv-x="1847" 
d="M1608 1462q65 0 110 -43.5t45 -107.5t-45 -108t-110 -44t-110.5 44t-45.5 108t45.5 107.5t110.5 43.5zM1102 1004h602v-1242q0 -76 -47 -124t-121 -48h-258v168h176q57 0 57 62v1016h-409v-836h-193v836h-409v-836h-193v836h-278v168h278v253q0 79 47.5 128t124.5 49h254
v-168h-180q-28 0 -40.5 -13.5t-12.5 -44.5v-204h409v253q0 79 47.5 128t124.5 49h234v-168h-160q-28 0 -40.5 -13.5t-12.5 -44.5v-204z" />
    <glyph glyph-name="f_i.liga" unicode="fi" horiz-adv-x="1245" 
d="M1006 1462q65 0 110 -43.5t45 -107.5t-45 -108t-110 -44t-110.5 44t-45.5 108t45.5 107.5t110.5 43.5zM500 1004h602v-1004h-193v836h-409v-836h-193v836h-278v168h278v253q0 79 47.5 128t124.5 49h234v-168h-160q-28 0 -40.5 -13.5t-12.5 -44.5v-204z" />
    <glyph glyph-name="f_j.liga" unicode="fj" horiz-adv-x="1245" 
d="M1006 1462q65 0 110 -43.5t45 -107.5t-45 -108t-110 -44t-110.5 44t-45.5 108t45.5 107.5t110.5 43.5zM500 1004h602v-1242q0 -76 -47 -124t-121 -48h-258v168h176q57 0 57 62v1016h-409v-836h-193v836h-278v168h278v253q0 79 47.5 128t124.5 49h234v-168h-160
q-28 0 -40.5 -13.5t-12.5 -44.5v-204z" />
    <glyph glyph-name="f_l.liga" unicode="fl" horiz-adv-x="1245" 
d="M29 1004h278v253q0 79 47.5 128t124.5 49h234v-168h-160q-28 0 -40.5 -13.5t-12.5 -44.5v-204h258v-168h-258v-836h-193v836h-278v168zM909 1434h193v-1434h-193v1434z" />
    <glyph glyph-name="f_lcaron.liga" unicode="f&#x13e;" horiz-adv-x="1363" 
d="M29 1004h278v253q0 79 47.5 128t124.5 49h234v-168h-160q-28 0 -40.5 -13.5t-12.5 -44.5v-204h258v-168h-258v-836h-193v836h-278v168zM1102 1434v-1434h-193v1434h193zM1225 1434h202l-108 -365h-117z" />
    <glyph glyph-name=".notdef" horiz-adv-x="1884" 
d="M205 1262q0 201 103 304t292 103h684q189 0 292 -103t103 -304v-1110q0 -201 -103 -304.5t-292 -103.5h-684q-189 0 -292 103.5t-103 304.5v1110zM389 1237v-1061q0 -264 242 -264h622q242 0 242 264v1061q0 264 -242 264h-622q-242 0 -242 -264zM598 920
q0 138 97.5 220.5t254.5 82.5q153 0 248.5 -79.5t95.5 -197.5v-10q0 -97 -52 -157t-161 -111l-26 -13q-41 -17 -41 -73v-66h-164v72q0 69 27 113t90 73l26 12q82 38 109.5 68t27.5 88t-50 96.5t-130 38.5q-84 0 -136 -44t-52 -122v-45h-164v54zM821 324q0 47 33.5 79.5
t79.5 32.5q47 0 80 -32.5t33 -79.5t-33 -80t-80 -33q-46 0 -79.5 33t-33.5 80z" />
    <glyph glyph-name=".null" horiz-adv-x="0" 
 />
    <glyph glyph-name="nonmarkingreturn" horiz-adv-x="682" 
 />
    <glyph glyph-name="space" unicode=" " horiz-adv-x="614" 
 />
    <glyph glyph-name="exclam" unicode="!" horiz-adv-x="524" 
d="M162 1434h200v-1035h-200v1035zM102 131q0 67 47 113.5t113 46.5t113 -46.5t47 -113.5t-47 -113.5t-113 -46.5t-113 46.5t-47 113.5z" />
    <glyph glyph-name="quotedbl" unicode="&#x22;" horiz-adv-x="892" 
d="M102 1307q0 72 46 115.5t114 43.5q70 0 115 -42.5t45 -112.5v-226q0 -72 -47 -119.5t-119 -47.5h-145v114h129q55 0 55 62v63q-16 -4 -35 -4q-66 0 -112 42t-46 112zM471 1307q0 72 46 115.5t114 43.5q70 0 115 -42.5t45 -112.5v-226q0 -72 -47 -119.5t-119 -47.5h-146
v114h129q56 0 56 62v63q-16 -4 -35 -4q-66 0 -112 42t-46 112z" />
    <glyph glyph-name="numbersign" unicode="#" horiz-adv-x="1400" 
d="M123 1026h260v408h192v-408h250v408h193v-408h260v-180h-260v-258h260v-180h-260v-408h-193v408h-250v-408h-192v408h-260v180h260v258h-260v180zM575 846v-258h250v258h-250z" />
    <glyph glyph-name="dollar" unicode="$" horiz-adv-x="1236" 
d="M719 819q211 -45 319.5 -141t108.5 -270v-13q0 -174 -118.5 -286t-311.5 -134v-213h-193v218q-214 29 -336 165.5t-122 346.5v65h204v-49q0 -139 65.5 -225.5t188.5 -112.5v489q-92 22 -159 52t-122.5 76t-83.5 114t-28 158v12q0 156 110 259.5t283 125.5v215h193v-215
q189 -27 303.5 -142.5t114.5 -301.5v-66h-205v49q0 106 -57 174.5t-156 92.5v-443h2zM336 1067q0 -78 44 -124t144 -77v400q-86 -19 -137 -72t-51 -127zM717 166q105 19 165 80.5t60 148.5q0 91 -54 140.5t-171 78.5v-448z" />
    <glyph glyph-name="percent" unicode="%" horiz-adv-x="1564" 
d="M98 1135q0 153 86.5 240t241.5 87q151 0 239.5 -87.5t88.5 -239.5v-39q0 -153 -86.5 -239.5t-241.5 -86.5t-241.5 86.5t-86.5 239.5v39zM868 946l353 508l155 -115l-397 -475zM262 1145v-58q0 -81 42 -127.5t122 -46.5t122 46.5t42 127.5v58q0 81 -42 127.5t-122 46.5
t-122 -46.5t-42 -127.5zM811 336q0 153 86.5 240.5t241.5 87.5q151 0 239 -88t88 -240v-39q0 -153 -86 -239.5t-241 -86.5t-241.5 86.5t-86.5 239.5v39zM696 487l-352 -507l-156 114l398 475zM975 346v-57q0 -81 42 -127.5t122 -46.5t122 46.5t42 127.5v57q0 81 -42 127.5
t-122 46.5t-122 -46.5t-42 -127.5z" />
    <glyph glyph-name="ampersand" unicode="&#x26;" horiz-adv-x="1392" 
d="M70 401q0 211 215 373v27q-105 137 -105 274v12q0 169 119 272t303 103q187 0 304.5 -106.5t117.5 -286.5v-53h-205v47q0 98 -59.5 154.5t-161.5 56.5q-95 0 -154 -52.5t-59 -138.5v-8q0 -36 12 -71.5t26 -61.5t52 -69t60.5 -66t80.5 -80l267 -262h28l211 369h217
l-288 -504v-29l305 -301h-271l-145 141h-29q-162 -172 -383 -172q-206 0 -332 122t-126 310zM274 401q0 -99 68.5 -171t185.5 -72q148 0 252 112v29l-342 334h-26q-138 -91 -138 -223v-9z" />
    <glyph glyph-name="quotesingle" unicode="'" horiz-adv-x="524" 
d="M102 1307q0 72 46 115.5t114 43.5q70 0 115 -42.5t45 -112.5v-226q0 -72 -47 -119.5t-119 -47.5h-145v114h129q55 0 55 62v63q-16 -4 -35 -4q-66 0 -112 42t-46 112z" />
    <glyph glyph-name="parenleft" unicode="(" horiz-adv-x="843" 
d="M266 53v1041q0 122 28.5 218.5t77.5 160t118.5 105t146.5 59.5t166 18v-176q-176 -3 -260 -101t-84 -297v-1015q0 -199 84 -297t260 -101v-176q-89 0 -166 18t-146.5 59.5t-118.5 105t-77.5 160t-28.5 218.5z" />
    <glyph glyph-name="parenright" unicode=")" horiz-adv-x="843" 
d="M578 53q0 -122 -28.5 -218.5t-77.5 -160t-118.5 -105t-146.5 -59.5t-166 -18v176q176 3 260 101t84 297v1015q0 199 -84 297t-260 101v176q89 0 166 -18t146.5 -59.5t118.5 -105t77.5 -160t28.5 -218.5v-1041z" />
    <glyph glyph-name="asterisk" unicode="*" 
d="M127 1008h256l113 -39l10 28l-119 60l-170 170l117 116l170 -169l59 -119l29 10l-39 113v256h164v-256l-39 -113l29 -10l59 119l170 169l117 -116l-170 -170l-119 -60l10 -28l113 39h256v-164h-256l-113 39l-10 -29l119 -59l170 -170l-117 -117l-170 170l-59 119l-29 -11
l39 -112v-256h-164v256l39 112l-29 11l-59 -119l-170 -170l-117 117l170 170l119 59l-10 29l-113 -39h-256v164z" />
    <glyph glyph-name="plus" unicode="+" 
d="M207 805h336v340h184v-340h336v-176h-336v-340h-184v340h-336v176z" />
    <glyph glyph-name="comma" unicode="," horiz-adv-x="524" 
d="M102 131q0 72 46 116t114 44q70 0 115 -43t45 -113v-225q0 -72 -47 -120t-119 -48h-145v115h129q55 0 55 61v64q-20 -5 -35 -5q-66 0 -112 42t-46 112z" />
    <glyph glyph-name="hyphen" unicode="-" horiz-adv-x="942" 
d="M168 428v176h606v-176h-606z" />
    <glyph glyph-name="period" unicode="." horiz-adv-x="524" 
d="M102 131q0 67 47 113.5t113 46.5t113 -46.5t47 -113.5t-47 -113.5t-113 -46.5t-113 46.5t-47 113.5z" />
    <glyph glyph-name="slash" unicode="/" horiz-adv-x="1003" 
d="M700 1434h197l-602 -1844h-197z" />
    <glyph glyph-name="zero" unicode="0" 
d="M98 877q0 275 143.5 430t393.5 155q246 0 391 -155.5t145 -429.5v-320q0 -276 -143 -431t-393 -155t-393.5 155t-143.5 431v320zM303 881v-328q0 -192 83.5 -292.5t248.5 -100.5t248.5 100.5t83.5 292.5v328q0 192 -83.5 292.5t-248.5 100.5t-248.5 -100.5t-83.5 -292.5z
" />
    <glyph glyph-name="one" unicode="1" horiz-adv-x="876" 
d="M410 1434h319v-1434h-205v1243h-24l-267 -436h-225z" />
    <glyph glyph-name="two" unicode="2" horiz-adv-x="1191" 
d="M94 975q0 221 145.5 354t381.5 133q214 0 351.5 -128t137.5 -335q0 -90 -27 -163.5t-69.5 -123.5t-112 -94t-135.5 -72t-160 -59q-69 -23 -109.5 -39.5t-82.5 -40t-63 -49.5t-34.5 -63t-13.5 -86v-21h787v-188h-996v184q0 98 29 173t88 129.5t132 92t177 72.5
q79 26 132.5 48t105 52.5t81.5 65.5t48 83t18 108q0 124 -80 195t-204 71q-154 0 -238 -80.5t-84 -230.5v-45h-205v57z" />
    <glyph glyph-name="three" unicode="3" horiz-adv-x="1200" 
d="M121 1434h969v-183l-422 -368v-25h53q167 0 280 -116t113 -302q0 -136 -69 -244t-185.5 -166.5t-257.5 -58.5q-234 0 -385 134.5t-151 345.5v96h204v-84q0 -138 88.5 -220.5t239.5 -82.5q141 0 226 79t85 205q0 118 -79 188t-197 70h-223v189l397 354h-686v189z" />
    <glyph glyph-name="four" unicode="4" horiz-adv-x="1228" 
d="M618 1434h349v-967h241v-188h-241v-279h-205v279h-713v180zM737 1272l-461 -805h486v805h-25z" />
    <glyph glyph-name="five" unicode="5" horiz-adv-x="1216" 
d="M143 1434h955v-189h-752v-454h25q50 83 128.5 129.5t209.5 46.5q187 0 310.5 -132t123.5 -343q0 -226 -145.5 -373.5t-376.5 -147.5q-239 0 -387 139t-148 373v25h205v-21q0 -150 86.5 -238.5t243.5 -88.5q149 0 233 90t84 242q0 136 -73.5 213t-194.5 77
q-150 0 -215 -118h-312v770z" />
    <glyph glyph-name="six" unicode="6" horiz-adv-x="1191" 
d="M1122 467q0 -145 -67 -258.5t-184.5 -175.5t-264.5 -62q-219 0 -363.5 137.5t-144.5 356.5v502q0 219 145.5 357t370.5 138q221 0 354.5 -120t133.5 -326h-205q0 121 -70.5 189.5t-212.5 68.5q-144 0 -227.5 -84t-83.5 -221v-193h25q111 176 344 176q90 0 171.5 -35
t143.5 -96.5t98.5 -153.5t36.5 -200zM606 772q-134 0 -218.5 -84.5t-84.5 -220.5t84.5 -221.5t218.5 -85.5q139 0 225.5 85t86.5 222q0 136 -86 220.5t-226 84.5z" />
    <glyph glyph-name="seven" unicode="7" horiz-adv-x="1101" 
d="M41 1434h1016v-181l-559 -1253h-222l555 1245h-790v189z" />
    <glyph glyph-name="eight" unicode="8" horiz-adv-x="1220" 
d="M111 1077q0 173 136.5 279t362.5 106t363 -106t137 -279q0 -71 -23 -128.5t-62 -94t-76.5 -58.5t-80.5 -36v-25q44 -12 87 -37.5t85.5 -66.5t68.5 -104.5t26 -139.5q0 -184 -147 -300t-378 -116t-377.5 116t-146.5 300q0 76 26 139.5t68 104.5t85 66.5t87 37.5v25
q-43 14 -80 36t-76 58.5t-62 94t-23 128.5zM315 1057q0 -99 79.5 -158t215.5 -59t215.5 59t79.5 158t-79.5 158t-215.5 59t-215.5 -59t-79.5 -158zM291 406q0 -114 86 -180t233 -66t233.5 66t86.5 180t-86.5 179.5t-233.5 65.5t-233 -65.5t-86 -179.5z" />
    <glyph glyph-name="nine" unicode="9" horiz-adv-x="1191" 
d="M70 967q0 219 145.5 357t370.5 138q219 0 363.5 -137t144.5 -356v-502q0 -219 -145.5 -357.5t-370.5 -138.5q-221 0 -354.5 120.5t-133.5 326.5h205q0 -121 70.5 -189.5t212.5 -68.5q144 0 227.5 84t83.5 221v192h-25q-111 -176 -344 -176q-90 0 -171.5 35t-143.5 97
t-98.5 154t-36.5 200zM586 662q134 0 218.5 84.5t84.5 220.5t-84.5 221.5t-218.5 85.5q-139 0 -225.5 -85t-86.5 -222q0 -136 86 -220.5t226 -84.5z" />
    <glyph glyph-name="colon" unicode=":" horiz-adv-x="524" 
d="M102 885q0 67 47 113t113 46t113 -46t47 -113t-47 -113.5t-113 -46.5t-113 46.5t-47 113.5zM102 131q0 67 47 113.5t113 46.5t113 -46.5t47 -113.5t-47 -113.5t-113 -46.5t-113 46.5t-47 113.5z" />
    <glyph glyph-name="semicolon" unicode=";" horiz-adv-x="524" 
d="M102 885q0 67 47 113t113 46t113 -46t47 -113t-47 -113.5t-113 -46.5t-113 46.5t-47 113.5zM102 131q0 72 46 116t114 44q70 0 115 -43t45 -113v-225q0 -72 -47 -120t-119 -48h-145v115h129q55 0 55 61v64q-20 -5 -35 -5q-66 0 -112 42t-46 112z" />
    <glyph glyph-name="less" unicode="&#x3c;" 
d="M205 596v242l860 329v-196l-668 -240v-29l668 -239v-197z" />
    <glyph glyph-name="equal" unicode="=" 
d="M207 786v177h856v-177h-856zM207 471v176h856v-176h-856z" />
    <glyph glyph-name="greater" unicode="&#x3e;" 
d="M1065 596l-860 -330v197l667 239v29l-667 240v196l860 -329v-242z" />
    <glyph glyph-name="question" unicode="?" horiz-adv-x="1138" 
d="M74 1026q0 199 138.5 317.5t362.5 118.5q215 0 350.5 -114t135.5 -281v-16q0 -148 -73 -239.5t-228 -162.5l-45 -20q-37 -18 -51.5 -41t-14.5 -68v-106h-205v114q0 104 34.5 163t119.5 97l45 21q123 56 168 108.5t45 141.5q0 93 -78 154t-203 61q-133 0 -214.5 -68.5
t-81.5 -191.5v-68h-205v80zM387 131q0 67 47 113.5t113 46.5t113 -46.5t47 -113.5t-47 -113.5t-113 -46.5t-113 46.5t-47 113.5z" />
    <glyph glyph-name="at" unicode="@" horiz-adv-x="2105" 
d="M172 -16v1056q0 194 100 294t293 100h975q193 0 293 -100t100 -294v-819q0 -101 -60 -161t-161 -60h-246q-72 0 -111.5 40.5t-39.5 115.5v8h-29q-17 -79 -88.5 -136t-193.5 -57q-177 0 -297.5 139.5t-120.5 366.5v29q0 227 120.5 366.5t297.5 139.5q64 0 116.5 -19
t84 -49t50 -60t23.5 -57h29v156h188v-741q0 -74 68 -74h100q47 0 64.5 17.5t17.5 64.5v786q0 117 -54 171.5t-171 54.5h-934q-117 0 -171.5 -54.5t-54.5 -171.5v-1048q0 -117 54.5 -171.5t171.5 -54.5h1306v-172h-1327q-193 0 -293 100t-100 294zM778 481q0 -154 72 -244
t188 -90q117 0 191 89t74 245v21q0 156 -74 245t-191 89q-116 0 -188 -90t-72 -244v-21z" />
    <glyph glyph-name="A" unicode="A" horiz-adv-x="1294" 
d="M485 1434h324l448 -1434h-217l-104 344h-578l-104 -344h-217zM414 532h467l-222 721h-24z" />
    <glyph glyph-name="B" unicode="B" horiz-adv-x="1257" 
d="M147 1434h592q190 0 307 -102t117 -283q0 -124 -63.5 -207t-173.5 -111v-24q107 -31 174 -114.5t67 -205.5q0 -178 -118 -282.5t-306 -104.5h-596v1434zM352 1245v-432h373q111 0 176.5 58.5t65.5 160.5q0 97 -68 155t-178 58h-369zM352 625v-437h373q110 0 178 58
t68 157q0 102 -65.5 162t-176.5 60h-377z" />
    <glyph glyph-name="C" unicode="C" horiz-adv-x="1282" 
d="M98 877q0 279 148 432t413 153q254 0 395.5 -140.5t141.5 -375.5v-37h-205v29q0 156 -83 246t-249 90q-172 0 -264 -100.5t-92 -288.5v-336q0 -188 92 -288.5t264 -100.5q166 0 249 89.5t83 246.5v28h205v-28q0 -242 -141 -383.5t-396 -141.5q-265 0 -413 153.5
t-148 432.5v320z" />
    <glyph glyph-name="D" unicode="D" 
d="M147 1434h443q278 0 429.5 -140.5t151.5 -416.5v-320q0 -276 -151.5 -416.5t-429.5 -140.5h-443v1434zM352 1245v-1057h234q191 0 286 90t95 283v311q0 193 -95 283t-286 90h-234z" />
    <glyph glyph-name="E" unicode="E" horiz-adv-x="1155" 
d="M147 1434h918v-189h-713v-432h656v-188h-656v-437h721v-188h-926v1434z" />
    <glyph glyph-name="F" unicode="F" horiz-adv-x="1085" 
d="M147 1434h893v-189h-688v-432h652v-188h-652v-625h-205v1434z" />
    <glyph glyph-name="G" unicode="G" horiz-adv-x="1282" 
d="M98 557v320q0 279 147.5 432t411.5 153q251 0 389 -141.5t138 -382.5v-18h-205v18q0 159 -79 247.5t-243 88.5q-170 0 -262 -101t-92 -288v-336q0 -187 92 -288t262 -101q164 0 243 89t79 247v24h-387v187h592v-211q0 -243 -138 -384t-389 -141q-264 0 -411.5 153.5
t-147.5 432.5z" />
    <glyph glyph-name="H" unicode="H" horiz-adv-x="1327" 
d="M147 1434h205v-621h623v621h205v-1434h-205v625h-623v-625h-205v1434z" />
    <glyph glyph-name="I" unicode="I" horiz-adv-x="499" 
d="M147 1434h205v-1434h-205v1434z" />
    <glyph glyph-name="J" unicode="J" horiz-adv-x="1126" 
d="M983 1434v-1004q0 -223 -117 -341t-342 -118q-230 0 -356.5 119.5t-126.5 339.5v119h205v-119q0 -127 69 -198.5t207 -71.5q256 0 256 270v1004h205z" />
    <glyph glyph-name="K" unicode="K" horiz-adv-x="1331" 
d="M1331 1434l-618 -576l608 -858h-246l-512 719l-211 -197v-522h-205v1434h205v-631h25l672 631h282z" />
    <glyph glyph-name="L" unicode="L" horiz-adv-x="1097" 
d="M147 1434h205v-1246h705v-188h-910v1434z" />
    <glyph glyph-name="M" unicode="M" horiz-adv-x="1785" 
d="M147 1434h369l365 -1221h24l365 1221h368v-1434h-204v1217h-25l-362 -1217h-308l-362 1217h-25v-1217h-205v1434z" />
    <glyph glyph-name="N" unicode="N" horiz-adv-x="1347" 
d="M147 1434h377l447 -1252h24v1252h205v-1434h-381l-442 1249h-25v-1249h-205v1434z" />
    <glyph glyph-name="O" unicode="O" horiz-adv-x="1310" 
d="M98 877q0 276 147.5 430.5t409.5 154.5q257 0 407 -155t150 -430v-320q0 -276 -148 -431t-409 -155t-409 155t-148 431v320zM303 881v-328q0 -193 87.5 -293t264.5 -100t265 100t88 293v328q0 193 -88 293t-265 100t-264.5 -100t-87.5 -293z" />
    <glyph glyph-name="P" unicode="P" horiz-adv-x="1200" 
d="M147 1434h558q197 0 319.5 -118t122.5 -312q0 -193 -124 -312t-318 -119h-353v-573h-205v1434zM352 1245v-483h330q125 0 192.5 62.5t67.5 179.5t-66.5 179t-193.5 62h-330z" />
    <glyph glyph-name="Q" unicode="Q" horiz-adv-x="1310" 
d="M655 1462q257 0 407 -155t150 -430v-320q0 -248 -119 -399.5t-335 -180.5v-94q0 -61 57 -61h109v-180h-203q-74 0 -121 48t-47 124v163q-216 29 -335.5 180.5t-119.5 399.5v320q0 276 147.5 430.5t409.5 154.5zM1008 553v328q0 193 -88 293t-265 100t-264.5 -100
t-87.5 -293v-328q0 -193 87.5 -293t264.5 -100t265 100t88 293z" />
    <glyph glyph-name="R" unicode="R" horiz-adv-x="1261" 
d="M1188 1010q0 -164 -94 -275t-250 -141l319 -594h-225l-303 586h-283v-586h-205v1434h598q197 0 320 -116.5t123 -307.5zM352 1245v-471h371q125 0 192.5 61t67.5 175t-66.5 174.5t-193.5 60.5h-371z" />
    <glyph glyph-name="S" unicode="S" horiz-adv-x="1236" 
d="M610 1462q151 0 268 -50.5t187 -153.5t70 -246v-66h-205v49q0 135 -87.5 209t-232.5 74q-121 0 -197.5 -58t-76.5 -153t65.5 -143.5t223.5 -83.5l94 -21q211 -45 319.5 -143t108.5 -275q0 -195 -143.5 -312.5t-368.5 -117.5q-261 0 -415 142t-154 379v65h204v-49
q0 -170 95 -261t272 -91q140 0 222.5 67t82.5 172q0 99 -65 150t-209 82l-95 20q-82 18 -145 39t-120.5 55t-95 77.5t-59.5 106t-22 140.5q0 119 64.5 210.5t173 139t241.5 47.5z" />
    <glyph glyph-name="T" unicode="T" horiz-adv-x="1212" 
d="M41 1434h1130v-189h-462v-1245h-205v1245h-463v189z" />
    <glyph glyph-name="U" unicode="U" horiz-adv-x="1359" 
d="M143 1434h205v-951q0 -159 83.5 -241t248.5 -82t248.5 82t83.5 241v951h205v-951q0 -248 -140 -380t-397 -132t-397 132t-140 380v951z" />
    <glyph glyph-name="V" unicode="V" horiz-adv-x="1261" 
d="M29 1434h221l368 -1250h25l369 1250h221l-440 -1434h-324z" />
    <glyph glyph-name="W" unicode="W" horiz-adv-x="1671" 
d="M57 1434h209l164 -1250h25l215 1250h331l216 -1250h24l164 1250h209l-199 -1434h-352l-215 1249h-25l-215 -1249h-352z" />
    <glyph glyph-name="X" unicode="X" 
d="M49 1434h238l336 -568h24l336 568h238l-426 -699v-24l434 -711h-240l-342 580h-24l-342 -580h-240l434 711v24z" />
    <glyph glyph-name="Y" unicode="Y" horiz-adv-x="1245" 
d="M16 1434h234l360 -666h25l360 666h234l-504 -904v-530h-205v530z" />
    <glyph glyph-name="Z" unicode="Z" horiz-adv-x="1177" 
d="M106 1434h977v-181l-747 -1065h760v-188h-1010v180l748 1065h-728v189z" />
    <glyph glyph-name="bracketleft" unicode="[" horiz-adv-x="737" 
d="M266 1475q0 77 50 126.5t126 49.5h234v-176h-162q-55 0 -55 -62v-1679q0 -62 55 -62h162v-176h-234q-76 0 -126 50t-50 126v1803z" />
    <glyph glyph-name="backslash" unicode="\" horiz-adv-x="1007" 
d="M307 1434l602 -1844h-196l-602 1844h196z" />
    <glyph glyph-name="bracketright" unicode="]" horiz-adv-x="737" 
d="M471 1475v-1803q0 -76 -49.5 -126t-126.5 -50h-234v176h162q56 0 56 62v1679q0 62 -56 62h-162v176h234q77 0 126.5 -49.5t49.5 -126.5z" />
    <glyph glyph-name="asciicircum" unicode="^" 
d="M784 1434l336 -566h-223l-248 437h-28l-248 -437h-223l335 566h299z" />
    <glyph glyph-name="underscore" unicode="_" 
d="M150 -274v176h970v-176h-970z" />
    <glyph glyph-name="grave" unicode="`" horiz-adv-x="552" 
d="M326 1434l125 -267h-177l-172 267h224z" />
    <glyph glyph-name="a" unicode="a" horiz-adv-x="1163" 
d="M111 739q59 128 181 210.5t296 82.5q202 0 323 -108.5t121 -290.5v-633h-188v158h-29q-38 -79 -125 -133t-229 -54q-168 0 -269.5 83.5t-101.5 219.5t94.5 211.5t288.5 94.5l371 34v27q0 103 -68.5 161t-191.5 58q-229 0 -308 -196zM285 283q0 -71 55 -111.5t154 -40.5
q170 0 260 88.5t90 226.5v17l-350 -33q-209 -18 -209 -147z" />
    <glyph glyph-name="b" unicode="b" horiz-adv-x="1253" 
d="M143 1434h193v-588h24q111 186 345 186q200 0 335.5 -149.5t135.5 -380.5t-135.5 -381t-335.5 -150q-233 0 -345 187h-28v-158h-189v1434zM655 860q-148 0 -233.5 -96t-85.5 -262t85.5 -262.5t233.5 -96.5t238 95t90 264t-90 263.5t-238 94.5z" />
    <glyph glyph-name="c" unicode="c" horiz-adv-x="1159" 
d="M78 502q0 230 147.5 380t372.5 150q197 0 326 -108t161 -281l-188 -39q-13 110 -91.5 181t-207.5 71q-146 0 -237 -97.5t-91 -256.5t92 -257t240 -98q245 0 297 250l191 -37q-18 -75 -54.5 -141.5t-94 -123.5t-145 -90.5t-194.5 -33.5q-227 0 -375.5 150.5t-148.5 380.5z
" />
    <glyph glyph-name="d" unicode="d" horiz-adv-x="1253" 
d="M1110 1434v-1434h-188v158h-29q-23 -39 -50 -69t-67.5 -58.5t-98 -44t-128.5 -15.5q-200 0 -335.5 150t-135.5 381t135.5 380.5t335.5 149.5q233 0 344 -186h25v588h192zM598 860q-148 0 -238 -94.5t-90 -263.5t90 -264t238 -95t234 96.5t86 262.5t-86 262t-234 96z" />
    <glyph glyph-name="e" unicode="e" horiz-adv-x="1138" 
d="M78 510q0 223 142 374.5t358 151.5q219 0 355 -143.5t136 -364.5v-96h-790q9 -134 96 -213.5t223 -79.5q197 0 287 180l162 -92q-158 -256 -445 -256q-230 0 -377 154.5t-147 384.5zM279 588h589q-3 129 -80.5 204.5t-209.5 75.5t-210.5 -73.5t-88.5 -206.5z" />
    <glyph glyph-name="f" unicode="f" horiz-adv-x="815" 
d="M29 1004h278v253q0 79 47.5 128t124.5 49h254v-168h-180q-28 0 -40.5 -13.5t-12.5 -44.5v-204h286v-168h-286v-836h-193v836h-278v168z" />
    <glyph glyph-name="g" unicode="g" horiz-adv-x="1253" 
d="M922 1004h188v-973q0 -205 -135.5 -337t-358.5 -132q-334 0 -522 278l172 101q48 -92 131.5 -149.5t206.5 -57.5q144 0 229 77.5t85 229.5v141h-25q-111 -186 -344 -186q-200 0 -335.5 146t-135.5 372t135.5 372t335.5 146q233 0 344 -186h29v158zM598 168
q148 0 234 92.5t86 253.5t-86 253.5t-234 92.5t-238 -91t-90 -255t90 -255t238 -91z" />
    <glyph glyph-name="h" unicode="h" horiz-adv-x="1220" 
d="M143 1434h193v-600h24q93 186 338 186q167 0 279.5 -109t112.5 -307v-604h-193v588q0 129 -67 196.5t-191 67.5q-141 0 -222 -86.5t-81 -241.5v-524h-193v1434z" />
    <glyph glyph-name="i" unicode="i" horiz-adv-x="479" 
d="M84 1311q0 64 45.5 107.5t110.5 43.5t110 -43.5t45 -107.5t-45 -108t-110 -44t-110.5 44t-45.5 108zM336 1004v-1004h-193v1004h193z" />
    <glyph glyph-name="j" unicode="j" horiz-adv-x="479" 
d="M84 1311q0 64 45.5 107.5t110.5 43.5t110 -43.5t45 -107.5t-45 -108t-110 -44t-110.5 44t-45.5 108zM336 1004v-1242q0 -76 -47 -124t-121 -48h-258v168h176q57 0 57 62v1184h193z" />
    <glyph glyph-name="k" unicode="k" horiz-adv-x="1171" 
d="M1143 1004l-461 -388l453 -616h-232l-360 498l-207 -172v-326h-193v1434h193v-854h24l500 424h283z" />
    <glyph glyph-name="l" unicode="l" horiz-adv-x="479" 
d="M336 1434v-1434h-193v1434h193z" />
    <glyph glyph-name="m" unicode="m" horiz-adv-x="1703" 
d="M143 1004h189v-132h28q88 148 275 148q189 0 278 -168h29q36 73 107 120.5t184 47.5q139 0 239.5 -92t100.5 -242v-686h-193v674q0 86 -57 134t-149 48q-98 0 -159 -59.5t-61 -169.5v-627h-192v674q0 86 -53.5 134t-143.5 48q-101 0 -165 -59.5t-64 -169.5v-627h-193
v1004z" />
    <glyph glyph-name="n" unicode="n" horiz-adv-x="1220" 
d="M143 1004h189v-170h28q93 186 338 186q167 0 279.5 -109t112.5 -307v-604h-193v588q0 129 -67 196.5t-191 67.5q-141 0 -222 -86.5t-81 -241.5v-524h-193v1004z" />
    <glyph glyph-name="o" unicode="o" horiz-adv-x="1187" 
d="M78 502q0 232 146.5 381t369.5 149t369.5 -149t146.5 -381t-146.5 -381.5t-369.5 -149.5t-369.5 149.5t-146.5 381.5zM270 502q0 -164 89 -259.5t235 -95.5t235 95.5t89 259.5t-89 259t-235 95t-235 -95t-89 -259z" />
    <glyph glyph-name="p" unicode="p" horiz-adv-x="1253" 
d="M143 -410v1414h189v-158h28q111 186 345 186q200 0 335.5 -149.5t135.5 -380.5t-135.5 -381t-335.5 -150q-233 0 -345 187h-24v-568h-193zM655 143q148 0 238 95t90 264t-90 263.5t-238 94.5t-233.5 -96t-85.5 -262t85.5 -262.5t233.5 -96.5z" />
    <glyph glyph-name="q" unicode="q" horiz-adv-x="1253" 
d="M1110 -410h-192v568h-25q-23 -39 -50 -69t-67.5 -58.5t-98 -44t-128.5 -15.5q-200 0 -335.5 150t-135.5 381t135.5 380.5t335.5 149.5q233 0 344 -186h29v158h188v-1414zM598 143q148 0 234 96.5t86 262.5t-86 262t-234 96t-238 -94.5t-90 -263.5t90 -264t238 -95z" />
    <glyph glyph-name="r" unicode="r" horiz-adv-x="770" 
d="M328 1004v-164h28q55 168 262 168h115v-189h-176q-107 0 -164 -59.5t-57 -173.5v-586h-193v1004h185z" />
    <glyph glyph-name="s" unicode="s" horiz-adv-x="1079" 
d="M123 735q0 137 111 217t272 80q150 0 263 -60t235 -196l-144 -102q-154 198 -350 198q-87 0 -142 -36t-55 -99q0 -44 32 -71t62.5 -34.5t101.5 -17.5q7 -1 11 -2l84 -12q76 -11 130.5 -23.5t109.5 -35t89 -53t55.5 -77.5t21.5 -108q0 -149 -124 -240.5t-319 -91.5
q-102 0 -189.5 28t-150.5 76t-106.5 100t-75.5 112l172 92q48 -115 141 -179.5t215 -64.5q108 0 177 44.5t69 117.5q0 45 -36.5 72.5t-69.5 35t-105 17.5q-17 3 -26 4l-84 12q-71 10 -126 25t-103 39t-79.5 56t-49 76.5t-17.5 100.5z" />
    <glyph glyph-name="t" unicode="t" horiz-adv-x="851" 
d="M29 1004h278v348h193v-348h295v-168h-295v-611q0 -31 12.5 -44t40.5 -13h184v-168h-262q-74 0 -121 48t-47 124v664h-278v168z" />
    <glyph glyph-name="u" unicode="u" horiz-adv-x="1220" 
d="M1077 0h-188v170h-29q-93 -186 -338 -186q-167 0 -279 108.5t-112 306.5v605h193v-588q0 -129 67 -196.5t191 -67.5q141 0 222 86t81 241v525h192v-1004z" />
    <glyph glyph-name="v" unicode="v" horiz-adv-x="1105" 
d="M41 1004h209l291 -820h24l291 820h209l-375 -1004h-274z" />
    <glyph glyph-name="w" unicode="w" horiz-adv-x="1544" 
d="M61 1004h201l158 -803h29l182 803h282l183 -803h28l158 803h201l-223 -1004h-291l-183 803h-28l-187 -803h-286z" />
    <glyph glyph-name="x" unicode="x" horiz-adv-x="1163" 
d="M70 1004h229l270 -369h25l270 369h230l-377 -488l393 -516h-231l-285 393h-25l-284 -393h-232l393 516z" />
    <glyph glyph-name="y" unicode="y" horiz-adv-x="1142" 
d="M893 1004h209l-594 -1414h-209l170 392l-428 1022h209l309 -762h25z" />
    <glyph glyph-name="z" unicode="z" horiz-adv-x="1056" 
d="M119 1004h835v-152l-608 -688h625v-164h-873v152l609 688h-588v164z" />
    <glyph glyph-name="braceleft" unicode="{" horiz-adv-x="823" 
d="M164 676h133q55 0 55 59v740q0 77 49 126.5t125 49.5h236v-176h-162q-55 0 -55 -62v-665q0 -77 -43.5 -119.5t-116.5 -42.5h-20v-25h20q73 0 116.5 -42.5t43.5 -119.5v-665q0 -62 55 -62h162v-176h-236q-76 0 -125 49.5t-49 126.5v740q0 59 -55 59h-133v205z" />
    <glyph glyph-name="bar" unicode="|" horiz-adv-x="487" 
d="M340 1651v-2155h-193v2155h193z" />
    <glyph glyph-name="braceright" unicode="}" horiz-adv-x="823" 
d="M659 676v-205h-133q-55 0 -55 -59v-740q0 -77 -49 -126.5t-125 -49.5h-236v176h162q56 0 56 62v665q0 77 43 120.5t116 43.5h21v21h-21q-73 0 -116 43.5t-43 120.5v665q0 62 -56 62h-162v176h236q76 0 125 -49.5t49 -126.5v-740q0 -59 55 -59h133z" />
    <glyph glyph-name="asciitilde" unicode="~" 
d="M702 754q9 -20 13 -28.5t12.5 -20t18.5 -15.5t24 -4q23 0 59 29l179 141l102 -129l-211 -164q-79 -61 -156 -61q-67 0 -106 32.5t-68 96.5q-9 21 -13 28.5t-12 19t-18 15.5t-24 4q-25 0 -60 -28l-178 -142l-102 129l211 164q39 30 74 46t81 16q67 0 106 -32.5t68 -96.5z
" />
    <glyph glyph-name="exclamdown" unicode="&#xa1;" horiz-adv-x="524" 
d="M102 885q0 67 47 113t113 46t113 -46t47 -113t-47 -113.5t-113 -46.5t-113 46.5t-47 113.5zM162 -410v1026h200v-1026h-200z" />
    <glyph glyph-name="cent" unicode="&#xa2;" horiz-adv-x="1253" 
d="M1167 909h-204v29q0 128 -55.5 213.5t-166.5 112.5v-1094q111 26 166.5 111t55.5 215v28h204v-28q0 -217 -111 -354t-315 -165v-215h-192v215q-216 26 -333.5 176.5t-117.5 403.5v320q0 253 117.5 403t333.5 176v215h192v-215q203 -27 314.5 -163.5t111.5 -346.5v-37z
M303 549q0 -158 63 -255.5t183 -123.5v1094q-120 -26 -183 -123.5t-63 -255.5v-336z" />
    <glyph glyph-name="sterling" unicode="&#xa3;" horiz-adv-x="1306" 
d="M131 778h143v226q0 217 117 337.5t324 120.5q214 0 337.5 -121.5t123.5 -336.5v-107h-201v109q0 125 -66.5 196.5t-191.5 71.5q-116 0 -179 -71.5t-63 -196.5v-228h246v-176h-246v-414h709v-188h-1061v188h151v414h-143v176z" />
    <glyph glyph-name="currency" unicode="&#xa4;" 
d="M92 1130l129 130l123 -121q134 90 291 90t291 -90l123 121l129 -130l-121 -122q90 -134 90 -291t-90 -291l121 -123l-129 -129l-123 121q-125 -90 -291 -90t-291 90l-123 -121l-129 129l121 123q-90 125 -90 291t90 291zM303 717q0 -138 96.5 -235t235.5 -97
q138 0 235 96.5t97 235.5q0 138 -96.5 235t-235.5 97q-138 0 -235 -96.5t-97 -235.5z" />
    <glyph glyph-name="yen" unicode="&#xa5;" 
d="M1229 1434l-391 -703h209v-172h-322v-115h322v-172h-322v-272h-205v272h-321v172h321v115h-321v172h209l-392 703h234l358 -662h29l358 662h234z" />
    <glyph glyph-name="brokenbar" unicode="&#xa6;" horiz-adv-x="487" 
d="M340 750h-193v901h193v-901zM147 397h193v-901h-193v901z" />
    <glyph glyph-name="section" unicode="&#xa7;" horiz-adv-x="1007" 
d="M129 1153q0 143 103.5 226t263.5 83q177 0 287 -91t110 -243v-59h-180v43q0 83 -59 132.5t-156 49.5q-83 0 -135 -39t-52 -106q0 -78 61.5 -114t186.5 -56q178 -29 262 -108.5t84 -217.5q0 -101 -39 -172q39 -68 39 -155v-17q0 -154 -101.5 -246t-287.5 -92
q-200 0 -317 110t-117 296v37h180v-31q0 -115 65 -179.5t189 -64.5q101 0 155 43.5t54 122.5q0 75 -50 114.5t-181 59.5q-184 30 -274.5 110.5t-90.5 219.5q0 95 45 166q-45 73 -45 166v12zM559 643q95 -16 154 -43q10 20 10 45q0 73 -50 112.5t-179 57.5q-91 13 -170 47
q-13 -26 -13 -53q0 -72 59 -109.5t189 -56.5z" />
    <glyph glyph-name="dieresis" unicode="&#xa8;" horiz-adv-x="905" 
d="M102 1311q0 64 45.5 107.5t110.5 43.5t110.5 -43.5t45.5 -107.5t-45.5 -108t-110.5 -44t-110.5 44t-45.5 108zM492 1311q0 64 45 107.5t110 43.5t110.5 -43.5t45.5 -107.5t-45.5 -108t-110.5 -44t-110 44t-45 108z" />
    <glyph glyph-name="copyright" unicode="&#xa9;" horiz-adv-x="1515" 
d="M147 1026q0 201 103.5 304.5t292.5 103.5h430q189 0 292 -103.5t103 -304.5v-618q0 -201 -103 -304.5t-292 -103.5h-430q-189 0 -292.5 103.5t-103.5 304.5v618zM332 1001v-569q0 -131 58.5 -197.5t182.5 -66.5h369q242 0 242 264v569q0 265 -242 265h-369
q-241 0 -241 -265zM467 819q0 160 77.5 244t221.5 84q145 0 216 -81t71 -218v-23h-176v37q0 121 -113 121q-55 0 -86 -36t-31 -101v-260q0 -61 32 -96t85 -35q113 0 113 116v41h176v-22q0 -146 -71 -222.5t-212 -76.5q-149 0 -226 80.5t-77 240.5v207z" />
    <glyph glyph-name="guillemotleft" unicode="&#xab;" horiz-adv-x="1597" 
d="M133 612l643 369h12v-213l-462 -246v-28l462 -246v-213h-12l-643 368v209zM801 612l643 369h12v-213l-461 -246v-28l461 -246v-213h-12l-643 368v209z" />
    <glyph glyph-name="logicalnot" unicode="&#xac;" 
d="M207 629v176h856v-381h-176v205h-680z" />
    <glyph glyph-name="registered" unicode="&#xae;" horiz-adv-x="1015" 
d="M78 1036q0 186 122 306t308 120t308 -120t122 -306t-122 -306t-308 -120t-308 120t-122 306zM164 1036q0 -157 93.5 -250.5t250.5 -93.5t250.5 93.5t93.5 250.5t-93.5 250.5t-250.5 93.5t-250.5 -93.5t-93.5 -250.5zM360 1268h175q72 0 112.5 -36.5t40.5 -90.5
q0 -86 -82 -115v-12q32 -3 49 -23t17 -47v-131h-82v125q0 43 -43 43h-105v-168h-82v455zM442 1194v-139h95q33 0 51 19.5t18 49.5t-18 50t-51 20h-95z" />
    <glyph glyph-name="macron" unicode="&#xaf;" horiz-adv-x="790" 
d="M688 1327v-160h-586v160h586z" />
    <glyph glyph-name="degree" unicode="&#xb0;" horiz-adv-x="819" 
d="M102 1178q0 126 88.5 207t219.5 81q134 0 220.5 -81.5t86.5 -206.5q0 -126 -88 -207.5t-219 -81.5q-129 0 -218.5 83t-89.5 206zM270 1178q0 -66 39 -102t101 -36q61 0 100 39t39 99t-39 98.5t-100 38.5q-60 0 -100 -38.5t-40 -98.5z" />
    <glyph glyph-name="plusminus" unicode="&#xb1;" 
d="M207 629v176h340v340h176v-340h340v-176h-340v-326h-176v326h-340zM207 0v176h856v-176h-856z" />
    <glyph glyph-name="acute" unicode="&#xb4;" horiz-adv-x="552" 
d="M227 1434h224l-172 -267h-177z" />
    <glyph glyph-name="uni00B5" unicode="&#xb5;" horiz-adv-x="1220" 
d="M143 -410v1426h193v-613q0 -129 67 -196.5t191 -67.5q141 0 222 86.5t81 241.5v549h193v-1016h-189v158h-29q-78 -187 -280 -187q-58 0 -106.5 15t-68.5 28t-52 37h-29v-461h-193z" />
    <glyph glyph-name="paragraph" unicode="&#xb6;" horiz-adv-x="1257" 
d="M53 1028q0 183 125 294.5t322 111.5h610v-1434h-180v1266h-193v-1266h-180v598h-61q-196 0 -319.5 113t-123.5 293v24zM233 1022v-12q0 -110 69.5 -177t193.5 -67h61v500h-61q-124 0 -193.5 -67.5t-69.5 -176.5z" />
    <glyph glyph-name="periodcentered" unicode="&#xb7;" horiz-adv-x="524" 
d="M102 717q0 67 47 113.5t113 46.5t113 -46.5t47 -113.5t-47 -113.5t-113 -46.5t-113 46.5t-47 113.5z" />
    <glyph glyph-name="cedilla" unicode="&#xb8;" horiz-adv-x="616" 
d="M158 66h114l-41 -191h17q33 55 108 55q71 0 114.5 -48t43.5 -120q0 -89 -57.5 -142.5t-145.5 -53.5q-121 0 -192 98l102 82q24 -63 84 -63q33 0 55.5 19t22.5 54q0 30 -17 49t-44 19q-37 0 -50 -29h-170v17z" />
    <glyph glyph-name="guillemotright" unicode="&#xbb;" horiz-adv-x="1597" 
d="M788 612v-209l-643 -368h-12v213l461 246v28l-461 246v213h12zM1456 612v-209l-643 -368h-12v213l463 246v28l-463 246v213h12z" />
    <glyph glyph-name="onequarter" unicode="&#xbc;" horiz-adv-x="1435" 
d="M745 946l353 508l155 -115l-397 -475zM215 1434h227v-717h-163v536h-21l-84 -139h-158v21zM1014 717h272v-424h133v-139h-133v-154h-164v154h-409v127zM1104 594l-209 -301h227v301h-18zM573 487l-352 -507l-155 114l397 475z" />
    <glyph glyph-name="onehalf" unicode="&#xbd;" horiz-adv-x="1462" 
d="M745 946l353 508l155 -115l-397 -475zM215 1434h227v-717h-163v536h-21l-84 -139h-158v21zM1112 745q139 0 224 -65.5t85 -181.5q0 -111 -69.5 -168.5t-208.5 -87.5q-94 -20 -131.5 -43t-40.5 -60h446v-139h-631v90q0 119 67.5 181t205.5 91q104 22 151 53.5t47 84.5
q0 48 -40 75t-105 27q-76 0 -118.5 -37.5t-43.5 -107.5h-164q3 132 93.5 210t232.5 78zM573 487l-352 -507l-155 114l397 475z" />
    <glyph glyph-name="threequarters" unicode="&#xbe;" horiz-adv-x="1562" 
d="M872 946l353 508l155 -115l-397 -475zM45 1434h619v-111l-222 -149v-21q106 -6 164 -58t58 -151q0 -112 -91 -184t-223 -72q-144 0 -232.5 76t-88.5 205h164q0 -67 42 -102.5t113 -35.5q68 0 110 32.5t42 84.5q0 105 -152 105h-127v106l193 135h-369v140zM1141 717h272
v-424h133v-139h-133v-154h-164v154h-409v127zM1231 594l-209 -301h227v301h-18zM700 487l-352 -507l-155 114l397 475z" />
    <glyph glyph-name="questiondown" unicode="&#xbf;" horiz-adv-x="1138" 
d="M428 885q0 67 47 113t113 46t113 -46t47 -113t-47 -113.5t-113 -46.5t-113 46.5t-47 113.5zM1061 -2q0 -199 -139 -317.5t-363 -118.5q-214 0 -349.5 114t-135.5 281v16q0 148 73 239.5t228 162.5l45 20q37 17 51 40.5t14 68.5v98h205v-106q0 -105 -34.5 -163.5
t-118.5 -96.5l-45 -21q-123 -56 -168 -108.5t-45 -141.5q0 -93 77.5 -154t202.5 -61q133 0 215 68.5t82 191.5v68h205v-80z" />
    <glyph glyph-name="Agrave" unicode="&#xc0;" horiz-adv-x="1294" 
d="M666 1802l112 -235h-188l-164 235h240zM485 1434h324l448 -1434h-217l-104 344h-578l-104 -344h-217zM414 532h467l-222 721h-24z" />
    <glyph glyph-name="Aacute" unicode="&#xc1;" horiz-adv-x="1294" 
d="M629 1802h239l-163 -235h-189zM485 1434h324l448 -1434h-217l-104 344h-578l-104 -344h-217zM414 532h467l-222 721h-24z" />
    <glyph glyph-name="Acircumflex" unicode="&#xc2;" horiz-adv-x="1294" 
d="M756 1567l-97 114h-24l-96 -114h-222l209 235h242l209 -235h-221zM485 1434h324l448 -1434h-217l-104 344h-578l-104 -344h-217zM414 532h467l-222 721h-24z" />
    <glyph glyph-name="Atilde" unicode="&#xc3;" horiz-adv-x="1294" 
d="M281 1636l96 117q38 47 72 70.5t83 23.5q56 0 94.5 -27.5t78.5 -86.5q15 -23 26.5 -32t30.5 -9q30 0 57 34l78 97l117 -92l-96 -117q-38 -47 -72.5 -70.5t-83.5 -23.5q-56 0 -94 27.5t-78 86.5q-15 22 -27 31.5t-31 9.5q-29 0 -57 -35l-78 -96zM485 1434h324l448 -1434
h-217l-104 344h-578l-104 -344h-217zM414 532h467l-222 721h-24z" />
    <glyph glyph-name="Adieresis" unicode="&#xc4;" horiz-adv-x="1294" 
d="M287 1677q0 64 45 108t110 44t110.5 -44t45.5 -108t-45.5 -107.5t-110.5 -43.5t-110 43.5t-45 107.5zM696 1677q0 64 45.5 108t110.5 44t110.5 -44t45.5 -108t-45.5 -107.5t-110.5 -43.5t-110.5 43.5t-45.5 107.5zM485 1434h324l448 -1434h-217l-104 344h-578l-104 -344
h-217zM414 532h467l-222 721h-24z" />
    <glyph glyph-name="Aring" unicode="&#xc5;" horiz-adv-x="1294" 
d="M432 1722q0 91 61.5 149t153.5 58t153.5 -58t61.5 -149t-61.5 -148.5t-153.5 -57.5t-153.5 57.5t-61.5 148.5zM571 1722q0 -32 21.5 -53.5t54.5 -21.5t54.5 21.5t21.5 53.5q0 33 -21.5 54.5t-54.5 21.5t-54.5 -21.5t-21.5 -54.5zM485 1434h324l448 -1434h-217l-104 344
h-578l-104 -344h-217zM414 532h467l-222 721h-24z" />
    <glyph glyph-name="AE" unicode="&#xc6;" horiz-adv-x="1171" 
d="M795 188h295v-188h-500v344h-248l-92 -344h-213l385 1434h655v-189h-282v-432h233v-188h-233v-437zM590 532v713h-25l-178 -713h203z" />
    <glyph glyph-name="Ccedilla" unicode="&#xc7;" horiz-adv-x="1282" 
d="M1196 909h-205v29q0 156 -83 246t-249 90q-172 0 -264 -100.5t-92 -288.5v-336q0 -188 92 -288.5t264 -100.5q166 0 249 89.5t83 246.5v28h205v-28q0 -231 -129.5 -371t-364.5 -152l-20 -98h16q33 55 109 55q71 0 114.5 -48t43.5 -120q0 -89 -57.5 -142.5t-145.5 -53.5
q-122 0 -193 98l103 82q24 -63 84 -63q33 0 55.5 19t22.5 54q0 30 -17.5 49t-44.5 19q-36 0 -49 -29h-170v17l35 161q-233 22 -361.5 174t-128.5 410v320q0 279 148 432t413 153q254 0 395.5 -140.5t141.5 -375.5v-37z" />
    <glyph glyph-name="Egrave" unicode="&#xc8;" horiz-adv-x="1155" 
d="M639 1802l113 -235h-189l-164 235h240zM147 1434h918v-189h-713v-432h656v-188h-656v-437h721v-188h-926v1434z" />
    <glyph glyph-name="Eacute" unicode="&#xc9;" horiz-adv-x="1155" 
d="M602 1802h240l-164 -235h-189zM147 1434h918v-189h-713v-432h656v-188h-656v-437h721v-188h-926v1434z" />
    <glyph glyph-name="Ecircumflex" unicode="&#xca;" horiz-adv-x="1155" 
d="M729 1567l-96 114h-25l-96 -114h-221l209 235h241l209 -235h-221zM147 1434h918v-189h-713v-432h656v-188h-656v-437h721v-188h-926v1434z" />
    <glyph glyph-name="Edieresis" unicode="&#xcb;" horiz-adv-x="1155" 
d="M260 1677q0 64 45.5 108t110.5 44t110 -44t45 -108t-45 -107.5t-110 -43.5t-110.5 43.5t-45.5 107.5zM670 1677q0 64 45 108t110 44t110.5 -44t45.5 -108t-45.5 -107.5t-110.5 -43.5t-110 43.5t-45 107.5zM147 1434h918v-189h-713v-432h656v-188h-656v-437h721v-188h-926
v1434z" />
    <glyph glyph-name="Igrave" unicode="&#xcc;" horiz-adv-x="499" 
d="M268 1802l113 -235h-188l-164 235h239zM147 1434h205v-1434h-205v1434z" />
    <glyph glyph-name="Iacute" unicode="&#xcd;" horiz-adv-x="499" 
d="M231 1802h240l-164 -235h-188zM147 1434h205v-1434h-205v1434z" />
    <glyph glyph-name="Icircumflex" unicode="&#xce;" horiz-adv-x="499" 
d="M358 1567l-96 114h-24l-97 -114h-221l209 235h242l209 -235h-222zM147 1434h205v-1434h-205v1434z" />
    <glyph glyph-name="Idieresis" unicode="&#xcf;" horiz-adv-x="499" 
d="M-111 1677q0 64 45.5 108t110.5 44t110.5 -44t45.5 -108t-45.5 -107.5t-110.5 -43.5t-110.5 43.5t-45.5 107.5zM299 1677q0 64 45.5 108t110.5 44t110 -44t45 -108t-45 -107.5t-110 -43.5t-110.5 43.5t-45.5 107.5zM147 1434h205v-1434h-205v1434z" />
    <glyph glyph-name="Eth" unicode="&#xd0;" 
d="M590 1434q278 0 429.5 -140.5t151.5 -416.5v-320q0 -276 -151.5 -416.5t-429.5 -140.5h-443v639h-167v172h167v623h443zM967 561v311q0 193 -95 283t-286 90h-234v-434h242v-172h-242v-451h234q191 0 286 90t95 283z" />
    <glyph glyph-name="Ntilde" unicode="&#xd1;" horiz-adv-x="1347" 
d="M301 1636l96 117q38 47 72.5 70.5t83.5 23.5q56 0 94 -27.5t78 -86.5q15 -23 26.5 -32t30.5 -9q31 0 58 34l78 97l116 -92l-96 -117q-38 -47 -72.5 -70.5t-83.5 -23.5q-56 0 -94 27.5t-78 86.5q-15 23 -26.5 32t-30.5 9q-29 0 -57 -35l-78 -96zM147 1434h377l447 -1252
h24v1252h205v-1434h-381l-442 1249h-25v-1249h-205v1434z" />
    <glyph glyph-name="Ograve" unicode="&#xd2;" horiz-adv-x="1310" 
d="M674 1802l112 -235h-188l-164 235h240zM98 877q0 276 147.5 430.5t409.5 154.5q257 0 407 -155t150 -430v-320q0 -276 -148 -431t-409 -155t-409 155t-148 431v320zM303 881v-328q0 -193 87.5 -293t264.5 -100t265 100t88 293v328q0 193 -88 293t-265 100t-264.5 -100
t-87.5 -293z" />
    <glyph glyph-name="Oacute" unicode="&#xd3;" horiz-adv-x="1310" 
d="M637 1802h240l-164 -235h-189zM98 877q0 276 147.5 430.5t409.5 154.5q257 0 407 -155t150 -430v-320q0 -276 -148 -431t-409 -155t-409 155t-148 431v320zM303 881v-328q0 -193 87.5 -293t264.5 -100t265 100t88 293v328q0 193 -88 293t-265 100t-264.5 -100t-87.5 -293
z" />
    <glyph glyph-name="Ocircumflex" unicode="&#xd4;" horiz-adv-x="1310" 
d="M764 1567l-96 114h-25l-96 -114h-221l209 235h241l209 -235h-221zM98 877q0 276 147.5 430.5t409.5 154.5q257 0 407 -155t150 -430v-320q0 -276 -148 -431t-409 -155t-409 155t-148 431v320zM303 881v-328q0 -193 87.5 -293t264.5 -100t265 100t88 293v328
q0 193 -88 293t-265 100t-264.5 -100t-87.5 -293z" />
    <glyph glyph-name="Otilde" unicode="&#xd5;" horiz-adv-x="1310" 
d="M289 1636l96 117q38 47 72.5 70.5t83.5 23.5q56 0 94 -27.5t78 -86.5q15 -23 26.5 -32t30.5 -9q30 0 57 34l78 97l117 -92l-96 -117q-38 -47 -72.5 -70.5t-83.5 -23.5q-56 0 -94 27.5t-78 86.5q-15 23 -26.5 32t-30.5 9q-30 0 -58 -35l-77 -96zM98 877q0 276 147.5 430.5
t409.5 154.5q257 0 407 -155t150 -430v-320q0 -276 -148 -431t-409 -155t-409 155t-148 431v320zM303 881v-328q0 -193 87.5 -293t264.5 -100t265 100t88 293v328q0 193 -88 293t-265 100t-264.5 -100t-87.5 -293z" />
    <glyph glyph-name="Odieresis" unicode="&#xd6;" horiz-adv-x="1310" 
d="M295 1677q0 64 45.5 108t110.5 44t110 -44t45 -108t-45 -107.5t-110 -43.5t-110.5 43.5t-45.5 107.5zM705 1677q0 64 45 108t110 44t110.5 -44t45.5 -108t-45.5 -107.5t-110.5 -43.5t-110 43.5t-45 107.5zM98 877q0 276 147.5 430.5t409.5 154.5q257 0 407 -155t150 -430
v-320q0 -276 -148 -431t-409 -155t-409 155t-148 431v320zM303 881v-328q0 -193 87.5 -293t264.5 -100t265 100t88 293v328q0 193 -88 293t-265 100t-264.5 -100t-87.5 -293z" />
    <glyph glyph-name="multiply" unicode="&#xd7;" 
d="M219 1008l125 125l291 -291l291 291l125 -125l-291 -291l291 -291l-125 -125l-291 291l-291 -291l-125 125l291 291z" />
    <glyph glyph-name="Oslash" unicode="&#xd8;" horiz-adv-x="1310" 
d="M973 1380q116 -73 177.5 -200.5t61.5 -302.5v-320q0 -276 -148 -431t-409 -155q-77 0 -141 15l-55 -166l-172 53l57 174q-119 71 -182.5 201t-63.5 309v320q0 276 147.5 430.5t409.5 154.5q77 0 152 -16l47 143l170 -53zM303 553q0 -213 107 -311l338 1024q-39 8 -93 8
q-177 0 -264.5 -100t-87.5 -293v-328zM1008 553v328q0 203 -99 305l-336 -1020q37 -6 82 -6q177 0 265 100t88 293z" />
    <glyph glyph-name="Ugrave" unicode="&#xd9;" horiz-adv-x="1359" 
d="M698 1802l113 -235h-188l-164 235h239zM143 1434h205v-951q0 -159 83.5 -241t248.5 -82t248.5 82t83.5 241v951h205v-951q0 -248 -140 -380t-397 -132t-397 132t-140 380v951z" />
    <glyph glyph-name="Uacute" unicode="&#xda;" horiz-adv-x="1359" 
d="M662 1802h239l-164 -235h-188zM143 1434h205v-951q0 -159 83.5 -241t248.5 -82t248.5 82t83.5 241v951h205v-951q0 -248 -140 -380t-397 -132t-397 132t-140 380v951z" />
    <glyph glyph-name="Ucircumflex" unicode="&#xdb;" horiz-adv-x="1359" 
d="M788 1567l-96 114h-24l-97 -114h-221l209 235h242l209 -235h-222zM143 1434h205v-951q0 -159 83.5 -241t248.5 -82t248.5 82t83.5 241v951h205v-951q0 -248 -140 -380t-397 -132t-397 132t-140 380v951z" />
    <glyph glyph-name="Udieresis" unicode="&#xdc;" horiz-adv-x="1359" 
d="M319 1677q0 64 45.5 108t110.5 44t110.5 -44t45.5 -108t-45.5 -107.5t-110.5 -43.5t-110.5 43.5t-45.5 107.5zM729 1677q0 64 45.5 108t110.5 44t110 -44t45 -108t-45 -107.5t-110 -43.5t-110.5 43.5t-45.5 107.5zM143 1434h205v-951q0 -159 83.5 -241t248.5 -82
t248.5 82t83.5 241v951h205v-951q0 -248 -140 -380t-397 -132t-397 132t-140 380v951z" />
    <glyph glyph-name="Yacute" unicode="&#xdd;" horiz-adv-x="1245" 
d="M604 1802h240l-164 -235h-188zM16 1434h234l360 -666h25l360 666h234l-504 -904v-530h-205v530z" />
    <glyph glyph-name="Thorn" unicode="&#xde;" horiz-adv-x="1200" 
d="M147 1434h205v-267h353q197 0 319.5 -118t122.5 -312q0 -193 -124 -311.5t-318 -118.5h-353v-307h-205v1434zM352 979v-483h330q125 0 192.5 62t67.5 179t-66.5 179.5t-193.5 62.5h-330z" />
    <glyph glyph-name="germandbls" unicode="&#xdf;" horiz-adv-x="1259" 
d="M131 0v893q0 257 142 413t382 156q177 0 289.5 -91.5t112.5 -225.5q0 -60 -15 -109t-50 -92.5t-71 -76t-98 -79.5q-37 -27 -37 -51q0 -18 16 -30t52 -27l41 -16q51 -20 91 -40t84 -51.5t73 -67t48 -86t19 -108.5q0 -141 -103.5 -240.5t-275.5 -99.5q-152 0 -267.5 67.5
t-180.5 168.5l156 110q45 -75 121.5 -126.5t166.5 -51.5q79 0 135 43.5t56 122.5q0 34 -14.5 62t-45 50.5t-58.5 37t-73 34.5l-73 31q-89 37 -128.5 86.5t-39.5 114.5q0 29 9.5 56t20.5 45t36 42.5t39 35.5t46 36q62 48 96.5 94t34.5 103q0 70 -60.5 115.5t-152.5 45.5
q-43 0 -87 -12t-88.5 -41.5t-78.5 -72.5t-55.5 -111t-21.5 -152v-905h-193z" />
    <glyph glyph-name="agrave" unicode="&#xe0;" horiz-adv-x="1163" 
d="M590 1434l125 -267h-176l-172 267h223zM111 739q59 128 181 210.5t296 82.5q202 0 323 -108.5t121 -290.5v-633h-188v158h-29q-38 -79 -125 -133t-229 -54q-168 0 -269.5 83.5t-101.5 219.5t94.5 211.5t288.5 94.5l371 34v27q0 103 -68.5 161t-191.5 58q-229 0 -308 -196
zM285 283q0 -71 55 -111.5t154 -40.5q170 0 260 88.5t90 226.5v17l-350 -33q-209 -18 -209 -147z" />
    <glyph glyph-name="aacute" unicode="&#xe1;" horiz-adv-x="1163" 
d="M578 1434h223l-172 -267h-176zM111 739q59 128 181 210.5t296 82.5q202 0 323 -108.5t121 -290.5v-633h-188v158h-29q-38 -79 -125 -133t-229 -54q-168 0 -269.5 83.5t-101.5 219.5t94.5 211.5t288.5 94.5l371 34v27q0 103 -68.5 161t-191.5 58q-229 0 -308 -196z
M285 283q0 -71 55 -111.5t154 -40.5q170 0 260 88.5t90 226.5v17l-350 -33q-209 -18 -209 -147z" />
    <glyph glyph-name="acircumflex" unicode="&#xe2;" horiz-adv-x="1163" 
d="M696 1167l-100 146h-25l-100 -146h-205l193 267h250l192 -267h-205zM111 739q59 128 181 210.5t296 82.5q202 0 323 -108.5t121 -290.5v-633h-188v158h-29q-38 -79 -125 -133t-229 -54q-168 0 -269.5 83.5t-101.5 219.5t94.5 211.5t288.5 94.5l371 34v27q0 103 -68.5 161
t-191.5 58q-229 0 -308 -196zM285 283q0 -71 55 -111.5t154 -40.5q170 0 260 88.5t90 226.5v17l-350 -33q-209 -18 -209 -147z" />
    <glyph glyph-name="atilde" unicode="&#xe3;" horiz-adv-x="1163" 
d="M217 1253l96 117q38 47 72.5 70.5t83.5 23.5q56 0 94 -27.5t78 -86.5q15 -23 26.5 -32t30.5 -9q31 0 58 34l78 97l116 -92l-96 -117q-38 -47 -72.5 -70.5t-83.5 -23.5q-56 0 -94 27.5t-78 86.5q-15 23 -26.5 32t-30.5 9q-29 0 -57 -35l-78 -96zM111 739q59 128 181 210.5
t296 82.5q202 0 323 -108.5t121 -290.5v-633h-188v158h-29q-38 -79 -125 -133t-229 -54q-168 0 -269.5 83.5t-101.5 219.5t94.5 211.5t288.5 94.5l371 34v27q0 103 -68.5 161t-191.5 58q-229 0 -308 -196zM285 283q0 -71 55 -111.5t154 -40.5q170 0 260 88.5t90 226.5v17
l-350 -33q-209 -18 -209 -147z" />
    <glyph glyph-name="adieresis" unicode="&#xe4;" horiz-adv-x="1163" 
d="M233 1311q0 64 45.5 107.5t110.5 43.5t110.5 -43.5t45.5 -107.5t-45.5 -108t-110.5 -44t-110.5 44t-45.5 108zM623 1311q0 64 45 107.5t110 43.5t110.5 -43.5t45.5 -107.5t-45.5 -108t-110.5 -44t-110 44t-45 108zM111 739q59 128 181 210.5t296 82.5q202 0 323 -108.5
t121 -290.5v-633h-188v158h-29q-38 -79 -125 -133t-229 -54q-168 0 -269.5 83.5t-101.5 219.5t94.5 211.5t288.5 94.5l371 34v27q0 103 -68.5 161t-191.5 58q-229 0 -308 -196zM285 283q0 -71 55 -111.5t154 -40.5q170 0 260 88.5t90 226.5v17l-350 -33q-209 -18 -209 -147z
" />
    <glyph glyph-name="aring" unicode="&#xe5;" horiz-adv-x="1163" 
d="M369 1309q0 91 61.5 149t153.5 58t153.5 -58t61.5 -149t-61.5 -149t-153.5 -58t-153.5 58t-61.5 149zM508 1309q0 -33 21.5 -54.5t54.5 -21.5t54 21.5t21 54.5t-21 54t-54 21q-34 0 -55 -21t-21 -54zM111 739q59 128 181 210.5t296 82.5q202 0 323 -108.5t121 -290.5
v-633h-188v158h-29q-38 -79 -125 -133t-229 -54q-168 0 -269.5 83.5t-101.5 219.5t94.5 211.5t288.5 94.5l371 34v27q0 103 -68.5 161t-191.5 58q-229 0 -308 -196zM285 283q0 -71 55 -111.5t154 -40.5q170 0 260 88.5t90 226.5v17l-350 -33q-209 -18 -209 -147z" />
    <glyph glyph-name="ae" unicode="&#xe6;" horiz-adv-x="1177" 
d="M1108 432h-432v-287q172 27 250 174l143 -106q-33 -45 -76 -84.5t-103 -77t-141.5 -59t-173.5 -21.5q-221 0 -353 85.5t-132 240.5q0 76 33.5 134t90.5 91t125 49.5t144 16.5h9v268q-70 -7 -135.5 -61t-100.5 -133l-150 94q31 57 72 103.5t97.5 87t133.5 63t166 22.5
q230 0 381.5 -143.5t151.5 -360.5v-96zM907 588q-3 105 -64.5 174.5t-166.5 93.5v-268h231zM467 152h25v280h-25q-78 0 -132 -34.5t-54 -104.5t54 -105.5t132 -35.5z" />
    <glyph glyph-name="ccedilla" unicode="&#xe7;" horiz-adv-x="1159" 
d="M1090 360q-17 -71 -51 -134.5t-86.5 -119t-131 -91.5t-174.5 -42l-20 -98h16q33 55 109 55q71 0 114 -48t43 -120q0 -89 -57 -142.5t-145 -53.5q-122 0 -193 98l102 82q24 -63 84 -63q33 0 55.5 19t22.5 54q0 30 -17 49t-44 19q-36 0 -49 -29h-170v17l34 163
q-200 23 -327 169.5t-127 357.5q0 230 147.5 380t372.5 150q197 0 326 -108t161 -281l-188 -39q-13 110 -91.5 181t-207.5 71q-146 0 -237 -97.5t-91 -256.5t92 -257t240 -98q245 0 297 250z" />
    <glyph glyph-name="egrave" unicode="&#xe8;" horiz-adv-x="1138" 
d="M586 1434l125 -267h-176l-173 267h224zM78 510q0 223 142 374.5t358 151.5q219 0 355 -143.5t136 -364.5v-96h-790q9 -134 96 -213.5t223 -79.5q197 0 287 180l162 -92q-158 -256 -445 -256q-230 0 -377 154.5t-147 384.5zM279 588h589q-3 129 -80.5 204.5t-209.5 75.5
t-210.5 -73.5t-88.5 -206.5z" />
    <glyph glyph-name="eacute" unicode="&#xe9;" horiz-adv-x="1138" 
d="M573 1434h224l-172 -267h-176zM78 510q0 223 142 374.5t358 151.5q219 0 355 -143.5t136 -364.5v-96h-790q9 -134 96 -213.5t223 -79.5q197 0 287 180l162 -92q-158 -256 -445 -256q-230 0 -377 154.5t-147 384.5zM279 588h589q-3 129 -80.5 204.5t-209.5 75.5
t-210.5 -73.5t-88.5 -206.5z" />
    <glyph glyph-name="ecircumflex" unicode="&#xea;" horiz-adv-x="1138" 
d="M692 1167l-100 146h-25l-100 -146h-205l193 267h250l192 -267h-205zM78 510q0 223 142 374.5t358 151.5q219 0 355 -143.5t136 -364.5v-96h-790q9 -134 96 -213.5t223 -79.5q197 0 287 180l162 -92q-158 -256 -445 -256q-230 0 -377 154.5t-147 384.5zM279 588h589
q-3 129 -80.5 204.5t-209.5 75.5t-210.5 -73.5t-88.5 -206.5z" />
    <glyph glyph-name="edieresis" unicode="&#xeb;" horiz-adv-x="1138" 
d="M229 1311q0 64 45.5 107.5t110.5 43.5t110.5 -43.5t45.5 -107.5t-45.5 -108t-110.5 -44t-110.5 44t-45.5 108zM618 1311q0 64 45.5 107.5t110.5 43.5t110.5 -43.5t45.5 -107.5t-45.5 -108t-110.5 -44t-110.5 44t-45.5 108zM78 510q0 223 142 374.5t358 151.5
q219 0 355 -143.5t136 -364.5v-96h-790q9 -134 96 -213.5t223 -79.5q197 0 287 180l162 -92q-158 -256 -445 -256q-230 0 -377 154.5t-147 384.5zM279 588h589q-3 129 -80.5 204.5t-209.5 75.5t-210.5 -73.5t-88.5 -206.5z" />
    <glyph glyph-name="igrave" unicode="&#xec;" horiz-adv-x="479" 
d="M246 1434l125 -267h-176l-172 267h223zM336 1004v-1004h-193v1004h193z" />
    <glyph glyph-name="iacute" unicode="&#xed;" horiz-adv-x="479" 
d="M233 1434h224l-172 -267h-176zM336 1004v-1004h-193v1004h193z" />
    <glyph glyph-name="icircumflex" unicode="&#xee;" horiz-adv-x="479" 
d="M352 1167l-100 146h-25l-100 -146h-205l193 267h250l192 -267h-205zM336 1004v-1004h-193v1004h193z" />
    <glyph glyph-name="idieresis" unicode="&#xef;" horiz-adv-x="479" 
d="M-111 1311q0 64 45.5 107.5t110.5 43.5t110.5 -43.5t45.5 -107.5t-45.5 -108t-110.5 -44t-110.5 44t-45.5 108zM279 1311q0 64 45 107.5t110 43.5t110.5 -43.5t45.5 -107.5t-45.5 -108t-110.5 -44t-110 44t-45 108zM336 1004v-1004h-193v1004h193z" />
    <glyph glyph-name="eth" unicode="&#xf0;" horiz-adv-x="1198" 
d="M289 1292l37 181q106 -14 219 -50l41 97l153 -60l-41 -100q107 -56 188.5 -142t131 -192.5t74 -226.5t24.5 -252q0 -135 -40 -244.5t-110.5 -181.5t-166 -111t-207.5 -39q-221 0 -367.5 149.5t-146.5 381.5t134.5 381t340.5 149q194 0 283 -125h24q-57 187 -229 283
l-43 -94l-154 59l43 98q-102 31 -188 39zM270 502q0 -164 89 -259.5t235 -95.5t235 95.5t89 259.5t-89 259t-235 95t-235 -95t-89 -259z" />
    <glyph glyph-name="ntilde" unicode="&#xf1;" horiz-adv-x="1220" 
d="M254 1253l96 117q38 47 72.5 70.5t83.5 23.5q56 0 94 -27.5t78 -86.5q15 -23 26.5 -32t30.5 -9q31 0 58 34l77 97l117 -92l-96 -117q-38 -47 -72.5 -70.5t-83.5 -23.5q-56 0 -94 27.5t-78 86.5q-15 23 -26.5 32t-30.5 9q-29 0 -57 -35l-78 -96zM143 1004h189v-170h28
q93 186 338 186q167 0 279.5 -109t112.5 -307v-604h-193v588q0 129 -67 196.5t-191 67.5q-141 0 -222 -86.5t-81 -241.5v-524h-193v1004z" />
    <glyph glyph-name="ograve" unicode="&#xf2;" horiz-adv-x="1187" 
d="M600 1434l125 -267h-176l-172 267h223zM78 502q0 232 146.5 381t369.5 149t369.5 -149t146.5 -381t-146.5 -381.5t-369.5 -149.5t-369.5 149.5t-146.5 381.5zM270 502q0 -164 89 -259.5t235 -95.5t235 95.5t89 259.5t-89 259t-235 95t-235 -95t-89 -259z" />
    <glyph glyph-name="oacute" unicode="&#xf3;" horiz-adv-x="1187" 
d="M588 1434h223l-172 -267h-176zM78 502q0 232 146.5 381t369.5 149t369.5 -149t146.5 -381t-146.5 -381.5t-369.5 -149.5t-369.5 149.5t-146.5 381.5zM270 502q0 -164 89 -259.5t235 -95.5t235 95.5t89 259.5t-89 259t-235 95t-235 -95t-89 -259z" />
    <glyph glyph-name="ocircumflex" unicode="&#xf4;" horiz-adv-x="1187" 
d="M707 1167l-101 146h-24l-101 -146h-205l193 267h250l192 -267h-204zM78 502q0 232 146.5 381t369.5 149t369.5 -149t146.5 -381t-146.5 -381.5t-369.5 -149.5t-369.5 149.5t-146.5 381.5zM270 502q0 -164 89 -259.5t235 -95.5t235 95.5t89 259.5t-89 259t-235 95
t-235 -95t-89 -259z" />
    <glyph glyph-name="otilde" unicode="&#xf5;" horiz-adv-x="1187" 
d="M227 1253l97 117q38 47 72 70.5t83 23.5q56 0 94 -27.5t78 -86.5q15 -22 27 -31.5t31 -9.5q30 0 57 34l78 97l117 -92l-97 -117q-38 -47 -72 -70.5t-83 -23.5q-56 0 -94 27.5t-78 86.5q-15 22 -27 31.5t-31 9.5q-29 0 -57 -35l-78 -96zM78 502q0 232 146.5 381t369.5 149
t369.5 -149t146.5 -381t-146.5 -381.5t-369.5 -149.5t-369.5 149.5t-146.5 381.5zM270 502q0 -164 89 -259.5t235 -95.5t235 95.5t89 259.5t-89 259t-235 95t-235 -95t-89 -259z" />
    <glyph glyph-name="odieresis" unicode="&#xf6;" horiz-adv-x="1187" 
d="M244 1311q0 64 45 107.5t110 43.5t110.5 -43.5t45.5 -107.5t-45.5 -108t-110.5 -44t-110 44t-45 108zM633 1311q0 64 45 107.5t110 43.5t110.5 -43.5t45.5 -107.5t-45.5 -108t-110.5 -44t-110 44t-45 108zM78 502q0 232 146.5 381t369.5 149t369.5 -149t146.5 -381
t-146.5 -381.5t-369.5 -149.5t-369.5 149.5t-146.5 381.5zM270 502q0 -164 89 -259.5t235 -95.5t235 95.5t89 259.5t-89 259t-235 95t-235 -95t-89 -259z" />
    <glyph glyph-name="divide" unicode="&#xf7;" 
d="M481 1073q0 65 45 110.5t109 45.5q65 0 109 -46t44 -110q0 -63 -44.5 -108t-108.5 -45q-65 0 -109.5 45.5t-44.5 107.5zM207 805h856v-176h-856v176zM481 360q0 63 45 108.5t109 45.5q65 0 109 -45t44 -109q0 -65 -44.5 -110t-108.5 -45q-65 0 -109.5 45.5t-44.5 109.5z
" />
    <glyph glyph-name="oslash" unicode="&#xf8;" horiz-adv-x="1187" 
d="M864 961q114 -67 180 -187.5t66 -271.5q0 -232 -146.5 -381.5t-369.5 -149.5q-28 0 -102 9l-56 -146l-164 60l56 147q-116 67 -183 187.5t-67 273.5q0 232 146.5 381t369.5 149q50 0 108 -10l52 135l161 -59zM270 502q0 -198 123 -291l246 643q-14 2 -45 2
q-146 0 -235 -95t-89 -259zM594 147q146 0 235 95.5t89 259.5q0 191 -119 286l-244 -638q18 -3 39 -3z" />
    <glyph glyph-name="ugrave" unicode="&#xf9;" horiz-adv-x="1220" 
d="M610 1434l125 -267h-176l-172 267h223zM1077 0h-188v170h-29q-93 -186 -338 -186q-167 0 -279 108.5t-112 306.5v605h193v-588q0 -129 67 -196.5t191 -67.5q141 0 222 86t81 241v525h192v-1004z" />
    <glyph glyph-name="uacute" unicode="&#xfa;" horiz-adv-x="1220" 
d="M598 1434h223l-172 -267h-176zM1077 0h-188v170h-29q-93 -186 -338 -186q-167 0 -279 108.5t-112 306.5v605h193v-588q0 -129 67 -196.5t191 -67.5q141 0 222 86t81 241v525h192v-1004z" />
    <glyph glyph-name="ucircumflex" unicode="&#xfb;" horiz-adv-x="1220" 
d="M717 1167l-101 146h-24l-100 -146h-205l192 267h250l193 -267h-205zM1077 0h-188v170h-29q-93 -186 -338 -186q-167 0 -279 108.5t-112 306.5v605h193v-588q0 -129 67 -196.5t191 -67.5q141 0 222 86t81 241v525h192v-1004z" />
    <glyph glyph-name="udieresis" unicode="&#xfc;" horiz-adv-x="1220" 
d="M254 1311q0 64 45.5 107.5t110.5 43.5t110 -43.5t45 -107.5t-45 -108t-110 -44t-110.5 44t-45.5 108zM643 1311q0 64 45.5 107.5t110.5 43.5t110 -43.5t45 -107.5t-45 -108t-110 -44t-110.5 44t-45.5 108zM1077 0h-188v170h-29q-93 -186 -338 -186q-167 0 -279 108.5
t-112 306.5v605h193v-588q0 -129 67 -196.5t191 -67.5q141 0 222 86t81 241v525h192v-1004z" />
    <glyph glyph-name="yacute" unicode="&#xfd;" horiz-adv-x="1142" 
d="M795 1434l-172 -267h-177l125 267h224zM893 1004h209l-594 -1414h-209l170 392l-428 1022h209l309 -762h25z" />
    <glyph glyph-name="thorn" unicode="&#xfe;" horiz-adv-x="1253" 
d="M143 -410v1844h193v-588h24q111 186 345 186q200 0 335.5 -149.5t135.5 -380.5t-135.5 -381t-335.5 -150q-233 0 -345 187h-24v-568h-193zM655 143q148 0 238 95t90 264t-90 263.5t-238 94.5t-233.5 -96t-85.5 -262t85.5 -262.5t233.5 -96.5z" />
    <glyph glyph-name="ydieresis" unicode="&#xff;" horiz-adv-x="1142" 
d="M383 1159q-65 0 -110.5 44t-45.5 108t45.5 107.5t110.5 43.5t110.5 -43.5t45.5 -107.5t-45.5 -108t-110.5 -44zM772 1159q-65 0 -110.5 44t-45.5 108t45.5 107.5t110.5 43.5t110.5 -43.5t45.5 -107.5t-45.5 -108t-110.5 -44zM893 1004h209l-594 -1414h-209l170 392
l-428 1022h209l309 -762h25z" />
    <glyph glyph-name="Amacron" unicode="&#x100;" horiz-adv-x="1294" 
d="M940 1726v-159h-586v159h586zM485 1434h324l448 -1434h-217l-104 344h-578l-104 -344h-217zM414 532h467l-222 721h-24z" />
    <glyph glyph-name="amacron" unicode="&#x101;" horiz-adv-x="1163" 
d="M877 1327v-160h-586v160h586zM111 739q59 128 181 210.5t296 82.5q202 0 323 -108.5t121 -290.5v-633h-188v158h-29q-38 -79 -125 -133t-229 -54q-168 0 -269.5 83.5t-101.5 219.5t94.5 211.5t288.5 94.5l371 34v27q0 103 -68.5 161t-191.5 58q-229 0 -308 -196zM285 283
q0 -71 55 -111.5t154 -40.5q170 0 260 88.5t90 226.5v17l-350 -33q-209 -18 -209 -147z" />
    <glyph glyph-name="Abreve" unicode="&#x102;" horiz-adv-x="1294" 
d="M729 1802h156v-16q0 -105 -65 -168.5t-173 -63.5t-172.5 63.5t-64.5 168.5v16h155v-14q0 -35 22 -58.5t60 -23.5t60 23.5t22 58.5v14zM485 1434h324l448 -1434h-217l-104 344h-578l-104 -344h-217zM414 532h467l-222 721h-24z" />
    <glyph glyph-name="abreve" unicode="&#x103;" horiz-adv-x="1163" 
d="M666 1434h155v-48q0 -105 -64.5 -168t-172.5 -63t-173 63t-65 168v48h156v-45q0 -35 22 -58.5t60 -23.5t60 23.5t22 58.5v45zM111 739q59 128 181 210.5t296 82.5q202 0 323 -108.5t121 -290.5v-633h-188v158h-29q-38 -79 -125 -133t-229 -54q-168 0 -269.5 83.5
t-101.5 219.5t94.5 211.5t288.5 94.5l371 34v27q0 103 -68.5 161t-191.5 58q-229 0 -308 -196zM285 283q0 -71 55 -111.5t154 -40.5q170 0 260 88.5t90 226.5v17l-350 -33q-209 -18 -209 -147z" />
    <glyph glyph-name="Aogonek" unicode="&#x104;" horiz-adv-x="1294" 
d="M1221 -193h90v-147h-131q-66 0 -114 40.5t-48 111.5q0 19 6 49l31 139h-15l-104 344h-578l-104 -344h-217l448 1434h324l448 -1434h-51l-30 -131q-2 -6 -2 -16q0 -46 47 -46zM414 532h467l-222 721h-24z" />
    <glyph glyph-name="aogonek" unicode="&#x105;" horiz-adv-x="1163" 
d="M1028 -193h90v-147h-131q-66 0 -114 40.5t-48 111.5q0 19 6 49l31 139h-18v158h-29q-38 -79 -125 -133t-229 -54q-168 0 -269.5 83.5t-101.5 219.5t94.5 211.5t288.5 94.5l371 34v27q0 103 -68.5 161t-191.5 58q-229 0 -308 -196l-165 75q59 128 181 210.5t296 82.5
q202 0 323 -108.5t121 -290.5v-633h-18l-31 -131q-2 -6 -2 -16q0 -46 47 -46zM844 446v17l-350 -33q-209 -18 -209 -147q0 -71 55 -111.5t154 -40.5q170 0 260 88.5t90 226.5z" />
    <glyph glyph-name="Cacute" unicode="&#x106;" horiz-adv-x="1282" 
d="M637 1802h240l-164 -235h-189zM98 877q0 279 148 432t413 153q254 0 395.5 -140.5t141.5 -375.5v-37h-205v29q0 156 -83 246t-249 90q-172 0 -264 -100.5t-92 -288.5v-336q0 -188 92 -288.5t264 -100.5q166 0 249 89.5t83 246.5v28h205v-28q0 -242 -141 -383.5
t-396 -141.5q-265 0 -413 153.5t-148 432.5v320z" />
    <glyph glyph-name="cacute" unicode="&#x107;" horiz-adv-x="1159" 
d="M592 1434h223l-172 -267h-176zM78 502q0 230 147.5 380t372.5 150q197 0 326 -108t161 -281l-188 -39q-13 110 -91.5 181t-207.5 71q-146 0 -237 -97.5t-91 -256.5t92 -257t240 -98q245 0 297 250l191 -37q-18 -75 -54.5 -141.5t-94 -123.5t-145 -90.5t-194.5 -33.5
q-227 0 -375.5 150.5t-148.5 380.5z" />
    <glyph glyph-name="Cdotaccent" unicode="&#x10a;" horiz-adv-x="1282" 
d="M500 1677q0 64 45 108t110 44t110.5 -44t45.5 -108t-45.5 -107.5t-110.5 -43.5t-110 43.5t-45 107.5zM98 877q0 279 148 432t413 153q254 0 395.5 -140.5t141.5 -375.5v-37h-205v29q0 156 -83 246t-249 90q-172 0 -264 -100.5t-92 -288.5v-336q0 -188 92 -288.5
t264 -100.5q166 0 249 89.5t83 246.5v28h205v-28q0 -242 -141 -383.5t-396 -141.5q-265 0 -413 153.5t-148 432.5v320z" />
    <glyph glyph-name="cdotaccent" unicode="&#x10b;" horiz-adv-x="1159" 
d="M442 1311q0 64 45.5 107.5t110.5 43.5t110.5 -43.5t45.5 -107.5t-45.5 -108t-110.5 -44t-110.5 44t-45.5 108zM78 502q0 230 147.5 380t372.5 150q197 0 326 -108t161 -281l-188 -39q-13 110 -91.5 181t-207.5 71q-146 0 -237 -97.5t-91 -256.5t92 -257t240 -98
q245 0 297 250l191 -37q-18 -75 -54.5 -141.5t-94 -123.5t-145 -90.5t-194.5 -33.5q-227 0 -375.5 150.5t-148.5 380.5z" />
    <glyph glyph-name="Ccaron" unicode="&#x10c;" horiz-adv-x="1282" 
d="M764 1802h221l-209 -235h-241l-209 235h221l96 -114h25zM98 877q0 279 148 432t413 153q254 0 395.5 -140.5t141.5 -375.5v-37h-205v29q0 156 -83 246t-249 90q-172 0 -264 -100.5t-92 -288.5v-336q0 -188 92 -288.5t264 -100.5q166 0 249 89.5t83 246.5v28h205v-28
q0 -242 -141 -383.5t-396 -141.5q-265 0 -413 153.5t-148 432.5v320z" />
    <glyph glyph-name="ccaron" unicode="&#x10d;" horiz-adv-x="1159" 
d="M711 1434h204l-192 -267h-250l-192 267h204l101 -146h24zM78 502q0 230 147.5 380t372.5 150q197 0 326 -108t161 -281l-188 -39q-13 110 -91.5 181t-207.5 71q-146 0 -237 -97.5t-91 -256.5t92 -257t240 -98q245 0 297 250l191 -37q-18 -75 -54.5 -141.5t-94 -123.5
t-145 -90.5t-194.5 -33.5q-227 0 -375.5 150.5t-148.5 380.5z" />
    <glyph glyph-name="Dcaron" unicode="&#x10e;" 
d="M692 1802h221l-208 -235h-242l-209 235h221l96 -114h25zM147 1434h443q278 0 429.5 -140.5t151.5 -416.5v-320q0 -276 -151.5 -416.5t-429.5 -140.5h-443v1434zM352 1245v-1057h234q191 0 286 90t95 283v311q0 193 -95 283t-286 90h-234z" />
    <glyph glyph-name="dcaron" unicode="&#x10f;" horiz-adv-x="1382" 
d="M1110 1434v-1434h-188v158h-29q-23 -39 -50 -69t-67.5 -58.5t-98 -44t-128.5 -15.5q-200 0 -335.5 150t-135.5 381t135.5 380.5t335.5 149.5q233 0 344 -186h25v588h192zM1243 1434h203l-109 -365h-116zM598 860q-148 0 -238 -94.5t-90 -263.5t90 -264t238 -95t234 96.5
t86 262.5t-86 262t-234 96z" />
    <glyph glyph-name="Dcroat" unicode="&#x110;" 
d="M590 1434q278 0 429.5 -140.5t151.5 -416.5v-320q0 -276 -151.5 -416.5t-429.5 -140.5h-443v639h-167v172h167v623h443zM967 561v311q0 193 -95 283t-286 90h-234v-434h242v-172h-242v-451h234q191 0 286 90t95 283z" />
    <glyph glyph-name="dcroat" unicode="&#x111;" horiz-adv-x="1253" 
d="M1303 1294v-151h-193v-1143h-188v158h-29q-23 -39 -50 -69t-67.5 -58.5t-98 -44t-128.5 -15.5q-200 0 -335.5 150t-135.5 381t135.5 380.5t335.5 149.5q233 0 344 -186h25v297h-254v151h254v140h192v-140h193zM598 143q148 0 234 96.5t86 262.5t-86 262t-234 96
t-238 -94.5t-90 -263.5t90 -264t238 -95z" />
    <glyph glyph-name="Emacron" unicode="&#x112;" horiz-adv-x="1155" 
d="M913 1726v-159h-585v159h585zM147 1434h918v-189h-713v-432h656v-188h-656v-437h721v-188h-926v1434z" />
    <glyph glyph-name="emacron" unicode="&#x113;" horiz-adv-x="1138" 
d="M872 1327v-160h-585v160h585zM78 510q0 223 142 374.5t358 151.5q219 0 355 -143.5t136 -364.5v-96h-790q9 -134 96 -213.5t223 -79.5q197 0 287 180l162 -92q-158 -256 -445 -256q-230 0 -377 154.5t-147 384.5zM279 588h589q-3 129 -80.5 204.5t-209.5 75.5
t-210.5 -73.5t-88.5 -206.5z" />
    <glyph glyph-name="Edotaccent" unicode="&#x116;" horiz-adv-x="1155" 
d="M465 1677q0 64 45.5 108t110.5 44t110 -44t45 -108t-45 -107.5t-110 -43.5t-110.5 43.5t-45.5 107.5zM147 1434h918v-189h-713v-432h656v-188h-656v-437h721v-188h-926v1434z" />
    <glyph glyph-name="edotaccent" unicode="&#x117;" horiz-adv-x="1138" 
d="M424 1311q0 64 45.5 107.5t110.5 43.5t110 -43.5t45 -107.5t-45 -108t-110 -44t-110.5 44t-45.5 108zM78 510q0 223 142 374.5t358 151.5q219 0 355 -143.5t136 -364.5v-96h-790q9 -134 96 -213.5t223 -79.5q197 0 287 180l162 -92q-158 -256 -445 -256
q-230 0 -377 154.5t-147 384.5zM279 588h589q-3 129 -80.5 204.5t-209.5 75.5t-210.5 -73.5t-88.5 -206.5z" />
    <glyph glyph-name="Eogonek" unicode="&#x118;" horiz-adv-x="1155" 
d="M713 0l-31 -131q-2 -6 -2 -16q0 -46 47 -46h90v-147h-131q-66 0 -114 40.5t-48 111.5q0 19 6 49l31 139h-414v1434h918v-189h-713v-432h656v-188h-656v-437h721v-188h-360z" />
    <glyph glyph-name="eogonek" unicode="&#x119;" horiz-adv-x="1138" 
d="M1069 528v-96h-790q9 -134 96 -213.5t223 -79.5q197 0 287 180l162 -92q-144 -232 -390 -254l-24 -104q-2 -6 -2 -16q0 -46 47 -46h90v-147h-131q-66 0 -114 40.5t-48 111.5q0 19 6 49l27 119q-194 31 -312 178t-118 352q0 223 142 374.5t358 151.5q219 0 355 -143.5
t136 -364.5zM279 588h589q-3 129 -80.5 204.5t-209.5 75.5t-210.5 -73.5t-88.5 -206.5z" />
    <glyph glyph-name="Ecaron" unicode="&#x11a;" horiz-adv-x="1155" 
d="M729 1802h221l-209 -235h-241l-209 235h221l96 -114h25zM147 1434h918v-189h-713v-432h656v-188h-656v-437h721v-188h-926v1434z" />
    <glyph glyph-name="ecaron" unicode="&#x11b;" horiz-adv-x="1138" 
d="M692 1434h205l-192 -267h-250l-193 267h205l100 -146h25zM78 510q0 223 142 374.5t358 151.5q219 0 355 -143.5t136 -364.5v-96h-790q9 -134 96 -213.5t223 -79.5q197 0 287 180l162 -92q-158 -256 -445 -256q-230 0 -377 154.5t-147 384.5zM279 588h589
q-3 129 -80.5 204.5t-209.5 75.5t-210.5 -73.5t-88.5 -206.5z" />
    <glyph glyph-name="Gbreve" unicode="&#x11e;" horiz-adv-x="1282" 
d="M733 1802h156v-16q0 -105 -65 -168.5t-173 -63.5t-172.5 63.5t-64.5 168.5v16h155v-14q0 -35 22 -58.5t60 -23.5t60 23.5t22 58.5v14zM98 557v320q0 279 147.5 432t411.5 153q251 0 389 -141.5t138 -382.5v-18h-205v18q0 159 -79 247.5t-243 88.5q-170 0 -262 -101
t-92 -288v-336q0 -187 92 -288t262 -101q164 0 243 89t79 247v24h-387v187h592v-211q0 -243 -138 -384t-389 -141q-264 0 -411.5 153.5t-147.5 432.5z" />
    <glyph glyph-name="gbreve" unicode="&#x11f;" horiz-adv-x="1253" 
d="M625 1155q-108 0 -173 63t-65 168v48h156v-45q0 -35 22 -58.5t60 -23.5t60 23.5t22 58.5v45h155v-48q0 -105 -64.5 -168t-172.5 -63zM922 1004h188v-973q0 -205 -135.5 -337t-358.5 -132q-334 0 -522 278l172 101q48 -92 131.5 -149.5t206.5 -57.5q144 0 229 77.5
t85 229.5v141h-25q-111 -186 -344 -186q-200 0 -335.5 146t-135.5 372t135.5 372t335.5 146q233 0 344 -186h29v158zM598 168q148 0 234 92.5t86 253.5t-86 253.5t-234 92.5t-238 -91t-90 -255t90 -255t238 -91z" />
    <glyph glyph-name="Gdotaccent" unicode="&#x120;" horiz-adv-x="1282" 
d="M496 1677q0 64 45 108t110 44t110.5 -44t45.5 -108t-45.5 -107.5t-110.5 -43.5t-110 43.5t-45 107.5zM98 557v320q0 279 147.5 432t411.5 153q251 0 389 -141.5t138 -382.5v-18h-205v18q0 159 -79 247.5t-243 88.5q-170 0 -262 -101t-92 -288v-336q0 -187 92 -288
t262 -101q164 0 243 89t79 247v24h-387v187h592v-211q0 -243 -138 -384t-389 -141q-264 0 -411.5 153.5t-147.5 432.5z" />
    <glyph glyph-name="gdotaccent" unicode="&#x121;" horiz-adv-x="1253" 
d="M625 1159q-65 0 -110.5 44t-45.5 108t45.5 107.5t110.5 43.5t110 -43.5t45 -107.5t-45 -108t-110 -44zM922 1004h188v-973q0 -205 -135.5 -337t-358.5 -132q-334 0 -522 278l172 101q48 -92 131.5 -149.5t206.5 -57.5q144 0 229 77.5t85 229.5v141h-25
q-111 -186 -344 -186q-200 0 -335.5 146t-135.5 372t135.5 372t335.5 146q233 0 344 -186h29v158zM598 168q148 0 234 92.5t86 253.5t-86 253.5t-234 92.5t-238 -91t-90 -255t90 -255t238 -91z" />
    <glyph glyph-name="uni0122" unicode="&#x122;" horiz-adv-x="1282" 
d="M98 557v320q0 279 147.5 432t411.5 153q251 0 389 -141.5t138 -382.5v-18h-205v18q0 159 -79 247.5t-243 88.5q-170 0 -262 -101t-92 -288v-336q0 -187 92 -288t262 -101q164 0 243 89t79 247v24h-387v187h592v-211q0 -243 -138 -384t-389 -141q-264 0 -411.5 153.5
t-147.5 432.5zM506 -262q0 72 46 116t114 44q70 0 114.5 -43t44.5 -113v-205q0 -72 -47 -120t-119 -48h-145v115h129q55 0 55 61v43q-16 -4 -34 -4q-66 0 -112 42t-46 112z" />
    <glyph glyph-name="uni0123" unicode="&#x123;" horiz-adv-x="1253" 
d="M625 1151q-70 0 -115 43t-45 113v204q0 72 47 120t119 48h145v-114h-129q-55 0 -55 -62v-43q16 4 35 4q66 0 111.5 -41.5t45.5 -111.5q0 -72 -45.5 -116t-113.5 -44zM922 1004h188v-973q0 -205 -135.5 -337t-358.5 -132q-334 0 -522 278l172 101q48 -92 131.5 -149.5
t206.5 -57.5q144 0 229 77.5t85 229.5v141h-25q-111 -186 -344 -186q-200 0 -335.5 146t-135.5 372t135.5 372t335.5 146q233 0 344 -186h29v158zM598 168q148 0 234 92.5t86 253.5t-86 253.5t-234 92.5t-238 -91t-90 -255t90 -255t238 -91z" />
    <glyph glyph-name="Hbar" unicode="&#x126;" horiz-adv-x="1327" 
d="M1298 1217v-173h-118v-1044h-205v625h-623v-625h-205v1044h-118v173h118v217h205v-217h623v217h205v-217h118zM975 813v231h-623v-231h623z" />
    <glyph glyph-name="hbar" unicode="&#x127;" horiz-adv-x="1220" 
d="M698 1020q167 0 279.5 -109t112.5 -307v-604h-193v588q0 129 -67 196.5t-191 67.5q-141 0 -222 -86.5t-81 -241.5v-524h-193v1143h-192v151h192v140h193v-140h254v-151h-254v-309h24q93 186 338 186z" />
    <glyph glyph-name="Imacron" unicode="&#x12a;" horiz-adv-x="499" 
d="M543 1726v-159h-586v159h586zM147 1434h205v-1434h-205v1434z" />
    <glyph glyph-name="imacron" unicode="&#x12b;" horiz-adv-x="479" 
d="M532 1327v-160h-585v160h585zM336 1004v-1004h-193v1004h193z" />
    <glyph glyph-name="Iogonek" unicode="&#x12e;" horiz-adv-x="499" 
d="M340 -193h90v-147h-131q-66 0 -114 40.5t-48 111.5q0 19 6 49l31 139h-27v1434h205v-1434h-26l-31 -131q-2 -6 -2 -16q0 -46 47 -46z" />
    <glyph glyph-name="iogonek" unicode="&#x12f;" horiz-adv-x="479" 
d="M240 1159q-65 0 -110.5 44t-45.5 108t45.5 107.5t110.5 43.5t110 -43.5t45 -107.5t-45 -108t-110 -44zM330 -193h90v-147h-131q-66 0 -114 40.5t-48 111.5q0 19 6 49l31 139h-21v1004h193v-1004h-21l-30 -131q-2 -6 -2 -16q0 -46 47 -46z" />
    <glyph glyph-name="Idotaccent" unicode="&#x130;" horiz-adv-x="499" 
d="M94 1677q0 64 45.5 108t110.5 44t110.5 -44t45.5 -108t-45.5 -107.5t-110.5 -43.5t-110.5 43.5t-45.5 107.5zM147 1434h205v-1434h-205v1434z" />
    <glyph glyph-name="dotlessi" unicode="&#x131;" horiz-adv-x="479" 
d="M336 1004v-1004h-193v1004h193z" />
    <glyph glyph-name="IJ" unicode="&#x132;" horiz-adv-x="1187" 
d="M143 1434h205v-707h-205v707zM840 1434h204v-1004q0 -222 -113.5 -340.5t-324.5 -118.5q-216 0 -339.5 120t-123.5 339v119h205v-119q0 -126 65.5 -198t190.5 -72q236 0 236 270v1004z" />
    <glyph glyph-name="ij" unicode="&#x133;" horiz-adv-x="958" 
d="M84 1311q0 64 45.5 107.5t110.5 43.5t110 -43.5t45 -107.5t-45 -108t-110 -44t-110.5 44t-45.5 108zM563 1311q0 64 45.5 107.5t110.5 43.5t110 -43.5t45 -107.5t-45 -108t-110 -44t-110.5 44t-45.5 108zM336 1004v-1004h-193v1004h193zM815 1004v-1242q0 -76 -47 -124
t-121 -48h-258v168h176q58 0 58 62v1184h192z" />
    <glyph glyph-name="uni0136" unicode="&#x136;" horiz-adv-x="1331" 
d="M1331 1434l-618 -576l608 -858h-246l-512 719l-211 -197v-522h-205v1434h205v-631h25l672 631h282zM659 -102q70 0 115 -43t45 -113v-205q0 -72 -47 -120t-119 -48h-145v115h129q55 0 55 61v43q-16 -4 -35 -4q-66 0 -111.5 42t-45.5 112q0 72 45.5 116t113.5 44z" />
    <glyph glyph-name="uni0137" unicode="&#x137;" horiz-adv-x="1171" 
d="M1143 1004l-461 -388l453 -616h-232l-360 498l-207 -172v-326h-193v1434h193v-854h24l500 424h283zM606 -102q70 0 115 -43t45 -113v-205q0 -72 -47 -120t-119 -48h-145v115h129q55 0 55 61v43q-16 -4 -35 -4q-66 0 -112 42t-46 112q0 72 46 116t114 44z" />
    <glyph glyph-name="Lacute" unicode="&#x139;" horiz-adv-x="1097" 
d="M231 1802h240l-164 -235h-188zM147 1434h205v-1246h705v-188h-910v1434z" />
    <glyph glyph-name="lacute" unicode="&#x13a;" horiz-adv-x="479" 
d="M221 1802h240l-164 -235h-188zM336 1434v-1434h-193v1434h193z" />
    <glyph glyph-name="uni013B" unicode="&#x13b;" horiz-adv-x="1097" 
d="M147 1434h205v-1246h705v-188h-910v1434zM451 -262q0 72 45.5 116t113.5 44q70 0 115 -43t45 -113v-205q0 -72 -47 -120t-119 -48h-145v115h129q55 0 55 61v43q-16 -4 -35 -4q-66 0 -111.5 42t-45.5 112z" />
    <glyph glyph-name="uni013C" unicode="&#x13c;" horiz-adv-x="479" 
d="M336 1434v-1434h-193v1434h193zM80 -262q0 72 46 116t114 44q70 0 114.5 -43t44.5 -113v-205q0 -72 -47 -120t-119 -48h-145v115h129q55 0 55 61v43q-16 -4 -34 -4q-66 0 -112 42t-46 112z" />
    <glyph glyph-name="Lcaron" unicode="&#x13d;" horiz-adv-x="1097" 
d="M147 1434h205v-1246h705v-188h-910v1434zM496 1434h202l-108 -365h-117z" />
    <glyph glyph-name="lcaron" unicode="&#x13e;" horiz-adv-x="598" 
d="M336 1434v-1434h-193v1434h193zM459 1434h203l-109 -365h-117z" />
    <glyph glyph-name="Ldot" unicode="&#x13f;" horiz-adv-x="1097" 
d="M147 1434h205v-1246h705v-188h-910v1434zM631 717q0 67 47 113.5t113 46.5t112.5 -46.5t46.5 -113.5t-46.5 -113.5t-112.5 -46.5t-113 46.5t-47 113.5z" />
    <glyph glyph-name="ldot" unicode="&#x140;" horiz-adv-x="798" 
d="M336 1434v-1434h-193v1434h193zM479 537q0 67 47 113t113 46t113 -46t47 -113t-47 -113.5t-113 -46.5t-113 46.5t-47 113.5z" />
    <glyph glyph-name="Lslash" unicode="&#x141;" 
d="M236 1434h204v-588l119 61l84 -166l-203 -102v-446h693v-193h-897v535l-111 -56l-84 166l195 96v693z" />
    <glyph glyph-name="lslash" unicode="&#x142;" horiz-adv-x="661" 
d="M641 739l-213 -100v-639h-192v549l-144 -68l-72 148l216 100v705h192v-615l143 68z" />
    <glyph glyph-name="Nacute" unicode="&#x143;" horiz-adv-x="1347" 
d="M649 1802h240l-164 -235h-188zM147 1434h377l447 -1252h24v1252h205v-1434h-381l-442 1249h-25v-1249h-205v1434z" />
    <glyph glyph-name="nacute" unicode="&#x144;" horiz-adv-x="1220" 
d="M614 1434h224l-172 -267h-177zM143 1004h189v-170h28q93 186 338 186q167 0 279.5 -109t112.5 -307v-604h-193v588q0 129 -67 196.5t-191 67.5q-141 0 -222 -86.5t-81 -241.5v-524h-193v1004z" />
    <glyph glyph-name="uni0145" unicode="&#x145;" horiz-adv-x="1347" 
d="M147 1434h377l447 -1252h24v1252h205v-1434h-381l-442 1249h-25v-1249h-205v1434zM508 -262q0 72 46 116t114 44q70 0 114.5 -43t44.5 -113v-205q0 -72 -46.5 -120t-118.5 -48h-146v115h129q55 0 55 61v43q-16 -4 -34 -4q-66 0 -112 42t-46 112z" />
    <glyph glyph-name="uni0146" unicode="&#x146;" horiz-adv-x="1220" 
d="M143 1004h189v-170h28q93 186 338 186q167 0 279.5 -109t112.5 -307v-604h-193v588q0 129 -67 196.5t-191 67.5q-141 0 -222 -86.5t-81 -241.5v-524h-193v1004zM455 -262q0 72 45.5 116t113.5 44q70 0 115 -43t45 -113v-205q0 -72 -47 -120t-119 -48h-145v115h129
q55 0 55 61v43q-16 -4 -35 -4q-66 0 -111.5 42t-45.5 112z" />
    <glyph glyph-name="Ncaron" unicode="&#x147;" horiz-adv-x="1347" 
d="M776 1802h221l-209 -235h-241l-209 235h221l96 -114h25zM147 1434h377l447 -1252h24v1252h205v-1434h-381l-442 1249h-25v-1249h-205v1434z" />
    <glyph glyph-name="ncaron" unicode="&#x148;" horiz-adv-x="1220" 
d="M733 1434h205l-193 -267h-249l-193 267h205l100 -146h25zM143 1004h189v-170h28q93 186 338 186q167 0 279.5 -109t112.5 -307v-604h-193v588q0 129 -67 196.5t-191 67.5q-141 0 -222 -86.5t-81 -241.5v-524h-193v1004z" />
    <glyph glyph-name="Eng" unicode="&#x14a;" horiz-adv-x="1347" 
d="M995 1434h205v-1667q0 -81 -48.5 -129t-125.5 -48h-391v177h303q57 0 57 63v170h-176l-442 1249h-25v-1249h-205v1434h377l447 -1252h24v1252z" />
    <glyph glyph-name="eng" unicode="&#x14b;" horiz-adv-x="1220" 
d="M702 1032q108 0 194.5 -46t140 -142.5t53.5 -229.5v-847q0 -81 -48.5 -129t-126.5 -48h-251v172h176q57 0 57 64v774q0 129 -67 196.5t-191 67.5q-141 0 -222 -86t-81 -241v-537h-193v1004h189v-158h28q93 186 342 186z" />
    <glyph glyph-name="Omacron" unicode="&#x14c;" horiz-adv-x="1310" 
d="M948 1726v-159h-586v159h586zM98 877q0 276 147.5 430.5t409.5 154.5q257 0 407 -155t150 -430v-320q0 -276 -148 -431t-409 -155t-409 155t-148 431v320zM303 881v-328q0 -193 87.5 -293t264.5 -100t265 100t88 293v328q0 193 -88 293t-265 100t-264.5 -100t-87.5 -293z
" />
    <glyph glyph-name="omacron" unicode="&#x14d;" horiz-adv-x="1187" 
d="M887 1327v-160h-586v160h586zM78 502q0 232 146.5 381t369.5 149t369.5 -149t146.5 -381t-146.5 -381.5t-369.5 -149.5t-369.5 149.5t-146.5 381.5zM270 502q0 -164 89 -259.5t235 -95.5t235 95.5t89 259.5t-89 259t-235 95t-235 -95t-89 -259z" />
    <glyph glyph-name="Ohungarumlaut" unicode="&#x150;" horiz-adv-x="1310" 
d="M510 1802h240l-164 -235h-189zM825 1802h240l-164 -235h-188zM98 877q0 276 147.5 430.5t409.5 154.5q257 0 407 -155t150 -430v-320q0 -276 -148 -431t-409 -155t-409 155t-148 431v320zM303 881v-328q0 -193 87.5 -293t264.5 -100t265 100t88 293v328q0 193 -88 293
t-265 100t-264.5 -100t-87.5 -293z" />
    <glyph glyph-name="ohungarumlaut" unicode="&#x151;" horiz-adv-x="1187" 
d="M451 1434h223l-172 -267h-176zM745 1434h224l-172 -267h-176zM78 502q0 232 146.5 381t369.5 149t369.5 -149t146.5 -381t-146.5 -381.5t-369.5 -149.5t-369.5 149.5t-146.5 381.5zM270 502q0 -164 89 -259.5t235 -95.5t235 95.5t89 259.5t-89 259t-235 95t-235 -95
t-89 -259z" />
    <glyph glyph-name="OE" unicode="&#x152;" horiz-adv-x="1163" 
d="M786 188h295v-188h-499q-228 0 -356 152.5t-128 425.5v278q0 273 128 425.5t356 152.5h487v-189h-283v-432h234v-188h-234v-437zM582 184v1065q-137 0 -208 -98t-71 -283v-303q0 -185 71 -283t208 -98z" />
    <glyph glyph-name="oe" unicode="&#x153;" horiz-adv-x="1220" 
d="M1151 432h-432v-287q172 27 250 174l143 -106q-178 -242 -481 -242q-240 0 -396.5 149.5t-156.5 381.5t155.5 381t393.5 149q229 0 376.5 -142.5t147.5 -361.5v-96zM950 588q-3 106 -64.5 176t-166.5 92v-268h231zM270 502q0 -143 70.5 -235.5t194.5 -119.5v709
q-124 -27 -194.5 -119t-70.5 -235z" />
    <glyph glyph-name="Racute" unicode="&#x154;" horiz-adv-x="1261" 
d="M842 1802l-164 -235h-189l113 235h240zM1188 1010q0 -164 -94 -275t-250 -141l319 -594h-225l-303 586h-283v-586h-205v1434h598q197 0 320 -116.5t123 -307.5zM352 1245v-471h371q125 0 192.5 61t67.5 175t-66.5 174.5t-193.5 60.5h-371z" />
    <glyph glyph-name="racute" unicode="&#x155;" horiz-adv-x="770" 
d="M442 1434h224l-172 -267h-177zM328 1004v-164h28q55 168 262 168h115v-189h-176q-107 0 -164 -59.5t-57 -173.5v-586h-193v1004h185z" />
    <glyph glyph-name="uni0156" unicode="&#x156;" horiz-adv-x="1261" 
d="M1188 1010q0 -164 -94 -275t-250 -141l319 -594h-225l-303 586h-283v-586h-205v1434h598q197 0 320 -116.5t123 -307.5zM352 1245v-471h371q125 0 192.5 61t67.5 175t-66.5 174.5t-193.5 60.5h-371zM637 -102q70 0 115 -43t45 -113v-205q0 -72 -47 -120t-119 -48h-146
v115h129q56 0 56 61v43q-16 -4 -35 -4q-66 0 -112 42t-46 112q0 72 46 116t114 44z" />
    <glyph glyph-name="uni0157" unicode="&#x157;" horiz-adv-x="770" 
d="M328 1004v-164h28q55 168 262 168h115v-189h-176q-107 0 -164 -59.5t-57 -173.5v-586h-193v1004h185zM82 -262q0 72 46 116t114 44q70 0 114.5 -43t44.5 -113v-205q0 -72 -46.5 -120t-118.5 -48h-146v115h129q55 0 55 61v43q-16 -4 -34 -4q-66 0 -112 42t-46 112z" />
    <glyph glyph-name="Rcaron" unicode="&#x158;" horiz-adv-x="1261" 
d="M741 1567h-241l-209 235h221l96 -114h25l96 114h221zM1188 1010q0 -164 -94 -275t-250 -141l319 -594h-225l-303 586h-283v-586h-205v1434h598q197 0 320 -116.5t123 -307.5zM352 1245v-471h371q125 0 192.5 61t67.5 175t-66.5 174.5t-193.5 60.5h-371z" />
    <glyph glyph-name="rcaron" unicode="&#x159;" horiz-adv-x="770" 
d="M561 1434h205l-193 -267h-249l-193 267h205l100 -146h25zM328 1004v-164h28q55 168 262 168h115v-189h-176q-107 0 -164 -59.5t-57 -173.5v-586h-193v1004h185z" />
    <glyph glyph-name="Sacute" unicode="&#x15a;" horiz-adv-x="1236" 
d="M590 1802h239l-163 -235h-189zM610 1462q151 0 268 -50.5t187 -153.5t70 -246v-66h-205v49q0 135 -87.5 209t-232.5 74q-121 0 -197.5 -58t-76.5 -153t65.5 -143.5t223.5 -83.5l94 -21q211 -45 319.5 -143t108.5 -275q0 -195 -143.5 -312.5t-368.5 -117.5
q-261 0 -415 142t-154 379v65h204v-49q0 -170 95 -261t272 -91q140 0 222.5 67t82.5 172q0 99 -65 150t-209 82l-95 20q-82 18 -145 39t-120.5 55t-95 77.5t-59.5 106t-22 140.5q0 119 64.5 210.5t173 139t241.5 47.5z" />
    <glyph glyph-name="sacute" unicode="&#x15b;" horiz-adv-x="1079" 
d="M526 1434h224l-172 -267h-177zM123 735q0 137 111 217t272 80q150 0 263 -60t235 -196l-144 -102q-154 198 -350 198q-87 0 -142 -36t-55 -99q0 -44 32 -71t62.5 -34.5t101.5 -17.5q7 -1 11 -2l84 -12q76 -11 130.5 -23.5t109.5 -35t89 -53t55.5 -77.5t21.5 -108
q0 -149 -124 -240.5t-319 -91.5q-102 0 -189.5 28t-150.5 76t-106.5 100t-75.5 112l172 92q48 -115 141 -179.5t215 -64.5q108 0 177 44.5t69 117.5q0 45 -36.5 72.5t-69.5 35t-105 17.5q-17 3 -26 4l-84 12q-71 10 -126 25t-103 39t-79.5 56t-49 76.5t-17.5 100.5z" />
    <glyph glyph-name="Scedilla" unicode="&#x15e;" horiz-adv-x="1236" 
d="M1147 401q0 -183 -127.5 -298.5t-331.5 -129.5l-20 -98h16q33 55 109 55q71 0 114 -48t43 -120q0 -89 -57 -142.5t-145 -53.5q-122 0 -193 98l102 82q24 -63 84 -63q33 0 55.5 19t22.5 54q0 30 -17 49t-44 19q-36 0 -49 -29h-170v17l34 161q-235 17 -371 156.5
t-136 362.5v65h204v-49q0 -170 95 -261t272 -91q140 0 222.5 67t82.5 172q0 99 -65 150t-209 82l-95 20q-82 18 -145 39t-120.5 55t-95 77.5t-59.5 106t-22 140.5q0 119 64.5 210.5t173 139t241.5 47.5q151 0 268 -50.5t187 -153.5t70 -246v-66h-205v49q0 135 -87.5 209
t-232.5 74q-121 0 -197.5 -58t-76.5 -153t65.5 -143.5t223.5 -83.5l94 -21q211 -45 319.5 -143t108.5 -275z" />
    <glyph glyph-name="scedilla" unicode="&#x15f;" horiz-adv-x="1079" 
d="M1010 303q0 -139 -109 -228.5t-285 -101.5l-20 -98h16q33 55 109 55q71 0 114.5 -48t43.5 -120q0 -89 -57.5 -142.5t-145.5 -53.5q-122 0 -193 98l103 82q24 -63 84 -63q33 0 55.5 19t22.5 54q0 30 -17.5 49t-44.5 19q-36 0 -49 -29h-170v17l35 161q-87 9 -163 40
t-131 76.5t-94.5 94t-68.5 103.5l172 92q48 -115 141 -179.5t215 -64.5q108 0 177 44.5t69 117.5q0 45 -36.5 72.5t-69.5 35t-105 17.5q-17 3 -26 4l-84 12q-71 10 -126 25t-103 39t-79.5 56t-49 76.5t-17.5 100.5q0 137 111 217t272 80q150 0 263 -60t235 -196l-144 -102
q-154 198 -350 198q-87 0 -142 -36t-55 -99q0 -44 32 -71t62.5 -34.5t101.5 -17.5q7 -1 11 -2l84 -12q76 -11 130.5 -23.5t109.5 -35t89 -53t55.5 -77.5t21.5 -108z" />
    <glyph glyph-name="Scaron" unicode="&#x160;" horiz-adv-x="1236" 
d="M717 1802h221l-209 -235h-242l-208 235h221l96 -114h25zM610 1462q151 0 268 -50.5t187 -153.5t70 -246v-66h-205v49q0 135 -87.5 209t-232.5 74q-121 0 -197.5 -58t-76.5 -153t65.5 -143.5t223.5 -83.5l94 -21q211 -45 319.5 -143t108.5 -275q0 -195 -143.5 -312.5
t-368.5 -117.5q-261 0 -415 142t-154 379v65h204v-49q0 -170 95 -261t272 -91q140 0 222.5 67t82.5 172q0 99 -65 150t-209 82l-95 20q-82 18 -145 39t-120.5 55t-95 77.5t-59.5 106t-22 140.5q0 119 64.5 210.5t173 139t241.5 47.5z" />
    <glyph glyph-name="scaron" unicode="&#x161;" horiz-adv-x="1079" 
d="M645 1434h205l-193 -267h-249l-193 267h205l100 -146h25zM123 735q0 137 111 217t272 80q150 0 263 -60t235 -196l-144 -102q-154 198 -350 198q-87 0 -142 -36t-55 -99q0 -44 32 -71t62.5 -34.5t101.5 -17.5q7 -1 11 -2l84 -12q76 -11 130.5 -23.5t109.5 -35t89 -53
t55.5 -77.5t21.5 -108q0 -149 -124 -240.5t-319 -91.5q-102 0 -189.5 28t-150.5 76t-106.5 100t-75.5 112l172 92q48 -115 141 -179.5t215 -64.5q108 0 177 44.5t69 117.5q0 45 -36.5 72.5t-69.5 35t-105 17.5q-17 3 -26 4l-84 12q-71 10 -126 25t-103 39t-79.5 56t-49 76.5
t-17.5 100.5z" />
    <glyph glyph-name="uni0162" unicode="&#x162;" horiz-adv-x="1212" 
d="M709 0h-47l-27 -125h16q33 55 109 55q71 0 114.5 -48t43.5 -120q0 -89 -57.5 -142.5t-145.5 -53.5q-122 0 -193 98l103 82q24 -63 84 -63q33 0 55 19t22 54q0 30 -17 49t-44 19q-36 0 -49 -29h-170v17l41 188h-43v1245h-463v189h1130v-189h-462v-1245z" />
    <glyph glyph-name="uni0163" unicode="&#x163;" horiz-adv-x="851" 
d="M795 836h-295v-611q0 -31 12.5 -44t40.5 -13h184v-168h-202l-27 -125h16q33 55 109 55q71 0 114.5 -48t43.5 -120q0 -89 -57.5 -142.5t-145.5 -53.5q-122 0 -193 98l103 82q24 -63 84 -63q33 0 55 19t22 54q0 30 -17 49t-44 19q-36 0 -49 -29h-170v17l43 196
q-53 15 -84 59t-31 105v664h-278v168h278v348h193v-348h295v-168z" />
    <glyph glyph-name="Tcaron" unicode="&#x164;" horiz-adv-x="1212" 
d="M715 1802h221l-209 -235h-242l-209 235h222l96 -114h24zM41 1434h1130v-189h-462v-1245h-205v1245h-463v189z" />
    <glyph glyph-name="tcaron" unicode="&#x165;" horiz-adv-x="851" 
d="M664 1534h202l-108 -365h-117zM29 1004h278v348h193v-348h295v-168h-295v-611q0 -31 12.5 -44t40.5 -13h184v-168h-262q-74 0 -121 48t-47 124v664h-278v168z" />
    <glyph glyph-name="Tbar" unicode="&#x166;" horiz-adv-x="1212" 
d="M1171 1245h-462v-434h204v-172h-204v-639h-205v639h-205v172h205v434h-463v189h1130v-189z" />
    <glyph glyph-name="tbar" unicode="&#x167;" horiz-adv-x="851" 
d="M795 836h-295v-220h295v-167h-295v-224q0 -31 12.5 -44t40.5 -13h184v-168h-262q-74 0 -121 48t-47 124v277h-278v167h278v220h-278v168h278v430h193v-430h295v-168z" />
    <glyph glyph-name="Umacron" unicode="&#x16a;" horiz-adv-x="1359" 
d="M973 1726v-159h-586v159h586zM143 1434h205v-951q0 -159 83.5 -241t248.5 -82t248.5 82t83.5 241v951h205v-951q0 -248 -140 -380t-397 -132t-397 132t-140 380v951z" />
    <glyph glyph-name="umacron" unicode="&#x16b;" horiz-adv-x="1220" 
d="M897 1327v-160h-586v160h586zM1077 0h-188v170h-29q-93 -186 -338 -186q-167 0 -279 108.5t-112 306.5v605h193v-588q0 -129 67 -196.5t191 -67.5q141 0 222 86t81 241v525h192v-1004z" />
    <glyph glyph-name="Ubreve" unicode="&#x16c;" horiz-adv-x="1359" 
d="M762 1802h156v-16q0 -105 -65 -168.5t-173 -63.5t-173 63.5t-65 168.5v16h156v-14q0 -35 22 -58.5t60 -23.5t60 23.5t22 58.5v14zM143 1434h205v-951q0 -159 83.5 -241t248.5 -82t248.5 82t83.5 241v951h205v-951q0 -248 -140 -380t-397 -132t-397 132t-140 380v951z" />
    <glyph glyph-name="ubreve" unicode="&#x16d;" horiz-adv-x="1220" 
d="M686 1434h156v-48q0 -105 -65 -168t-173 -63t-172.5 63t-64.5 168v48h155v-45q0 -35 22 -58.5t60 -23.5t60 23.5t22 58.5v45zM1077 0h-188v170h-29q-93 -186 -338 -186q-167 0 -279 108.5t-112 306.5v605h193v-588q0 -129 67 -196.5t191 -67.5q141 0 222 86t81 241v525
h192v-1004z" />
    <glyph glyph-name="Uring" unicode="&#x16e;" horiz-adv-x="1359" 
d="M465 1722q0 91 61.5 149t153.5 58t153.5 -58t61.5 -149t-61.5 -148.5t-153.5 -57.5t-153.5 57.5t-61.5 148.5zM604 1722q0 -32 21 -53.5t55 -21.5t55 21.5t21 53.5q0 33 -21.5 54.5t-54.5 21.5t-54.5 -21.5t-21.5 -54.5zM143 1434h205v-951q0 -159 83.5 -241t248.5 -82
t248.5 82t83.5 241v951h205v-951q0 -248 -140 -380t-397 -132t-397 132t-140 380v951z" />
    <glyph glyph-name="uring" unicode="&#x16f;" horiz-adv-x="1220" 
d="M389 1309q0 91 61.5 149t153.5 58t153.5 -58t61.5 -149t-61.5 -149t-153.5 -58t-153.5 58t-61.5 149zM528 1309q0 -33 21.5 -54.5t54.5 -21.5t54.5 21.5t21.5 54.5t-21 54t-55 21t-55 -21t-21 -54zM1077 0h-188v170h-29q-93 -186 -338 -186q-167 0 -279 108.5t-112 306.5
v605h193v-588q0 -129 67 -196.5t191 -67.5q141 0 222 86t81 241v525h192v-1004z" />
    <glyph glyph-name="Uhungarumlaut" unicode="&#x170;" horiz-adv-x="1359" 
d="M535 1802h239l-164 -235h-188zM850 1802h240l-164 -235h-189zM143 1434h205v-951q0 -159 83.5 -241t248.5 -82t248.5 82t83.5 241v951h205v-951q0 -248 -140 -380t-397 -132t-397 132t-140 380v951z" />
    <glyph glyph-name="uhungarumlaut" unicode="&#x171;" horiz-adv-x="1220" 
d="M461 1434h223l-172 -267h-176zM756 1434h223l-172 -267h-176zM1077 0h-188v170h-29q-93 -186 -338 -186q-167 0 -279 108.5t-112 306.5v605h193v-588q0 -129 67 -196.5t191 -67.5q141 0 222 86t81 241v525h192v-1004z" />
    <glyph glyph-name="Uogonek" unicode="&#x172;" horiz-adv-x="1359" 
d="M1012 1434h205v-951q0 -229 -121 -360t-344 -150l-25 -104q-2 -6 -2 -16q0 -46 47 -46h90v-147h-131q-66 0 -114 40.5t-48 111.5q0 19 6 49l27 114q-221 20 -340 150.5t-119 357.5v951h205v-951q0 -159 83.5 -241t248.5 -82t248.5 82t83.5 241v951z" />
    <glyph glyph-name="uogonek" unicode="&#x173;" horiz-adv-x="1220" 
d="M1073 -193h90v-147h-131q-66 0 -114 40.5t-48 111.5q0 14 7 49l30 139h-18v170h-29q-93 -186 -338 -186q-167 0 -279 108.5t-112 306.5v605h193v-588q0 -129 67 -196.5t191 -67.5q141 0 222 86t81 241v525h192v-1004h-18l-31 -131q-2 -6 -2 -16q0 -46 47 -46z" />
    <glyph glyph-name="Wcircumflex" unicode="&#x174;" horiz-adv-x="1671" 
d="M944 1567l-96 114h-25l-96 -114h-221l209 235h241l209 -235h-221zM57 1434h209l164 -1250h25l215 1250h331l216 -1250h24l164 1250h209l-199 -1434h-352l-215 1249h-25l-215 -1249h-352z" />
    <glyph glyph-name="wcircumflex" unicode="&#x175;" horiz-adv-x="1544" 
d="M885 1167l-101 146h-24l-101 -146h-204l192 267h250l193 -267h-205zM61 1004h201l158 -803h29l182 803h282l183 -803h28l158 803h201l-223 -1004h-291l-183 803h-28l-187 -803h-286z" />
    <glyph glyph-name="Ycircumflex" unicode="&#x176;" horiz-adv-x="1245" 
d="M731 1567l-96 114h-25l-96 -114h-221l209 235h241l209 -235h-221zM16 1434h234l360 -666h25l360 666h234l-504 -904v-530h-205v530z" />
    <glyph glyph-name="ycircumflex" unicode="&#x177;" horiz-adv-x="1142" 
d="M565 1313l-100 -146h-205l193 267h249l193 -267h-205l-100 146h-25zM893 1004h209l-594 -1414h-209l170 392l-428 1022h209l309 -762h25z" />
    <glyph glyph-name="Ydieresis" unicode="&#x178;" horiz-adv-x="1245" 
d="M262 1677q0 64 45.5 108t110.5 44t110 -44t45 -108t-45 -107.5t-110 -43.5t-110.5 43.5t-45.5 107.5zM672 1677q0 64 45 108t110 44t110.5 -44t45.5 -108t-45.5 -107.5t-110.5 -43.5t-110 43.5t-45 107.5zM16 1434h234l360 -666h25l360 666h234l-504 -904v-530h-205v530z
" />
    <glyph glyph-name="Zacute" unicode="&#x179;" horiz-adv-x="1177" 
d="M578 1802h239l-164 -235h-188zM106 1434h977v-181l-747 -1065h760v-188h-1010v180l748 1065h-728v189z" />
    <glyph glyph-name="zacute" unicode="&#x17a;" horiz-adv-x="1056" 
d="M532 1434h224l-172 -267h-176zM119 1004h835v-152l-608 -688h625v-164h-873v152l609 688h-588v164z" />
    <glyph glyph-name="Zdotaccent" unicode="&#x17b;" horiz-adv-x="1177" 
d="M440 1677q0 64 45.5 108t110.5 44t110.5 -44t45.5 -108t-45.5 -107.5t-110.5 -43.5t-110.5 43.5t-45.5 107.5zM106 1434h977v-181l-747 -1065h760v-188h-1010v180l748 1065h-728v189z" />
    <glyph glyph-name="zdotaccent" unicode="&#x17c;" horiz-adv-x="1056" 
d="M383 1311q0 64 45.5 107.5t110.5 43.5t110 -43.5t45 -107.5t-45 -108t-110 -44t-110.5 44t-45.5 108zM119 1004h835v-152l-608 -688h625v-164h-873v152l609 688h-588v164z" />
    <glyph glyph-name="Zcaron" unicode="&#x17d;" horiz-adv-x="1177" 
d="M705 1802h221l-209 -235h-242l-209 235h221l97 -114h24zM106 1434h977v-181l-747 -1065h760v-188h-1010v180l748 1065h-728v189z" />
    <glyph glyph-name="zcaron" unicode="&#x17e;" horiz-adv-x="1056" 
d="M651 1434h205l-192 -267h-250l-193 267h205l100 -146h25zM119 1004h835v-152l-608 -688h625v-164h-873v152l609 688h-588v164z" />
    <glyph glyph-name="florin" unicode="&#x192;" 
d="M254 913h281v344q0 75 49.5 126t124.5 51h393v-181h-320q-55 0 -55 -61v-279h291v-180h-291v-557q0 -75 -49.5 -125.5t-124.5 -50.5h-377v180h303q56 0 56 62v491h-281v180z" />
    <glyph glyph-name="Aringacute" unicode="&#x1fa;" horiz-adv-x="1294" 
d="M647 1516q-92 0 -153.5 57.5t-61.5 148.5t61.5 149t153.5 58h4l58 119h239l-133 -193q47 -57 47 -133q0 -91 -61.5 -148.5t-153.5 -57.5zM647 1798q-33 0 -54.5 -21.5t-21.5 -54.5q0 -32 21.5 -53.5t54.5 -21.5t54.5 21.5t21.5 53.5q0 33 -21.5 54.5t-54.5 21.5z
M809 1434l448 -1434h-217l-104 344h-578l-104 -344h-217l448 1434h324zM414 532h467l-222 721h-24z" />
    <glyph glyph-name="aringacute" unicode="&#x1fb;" horiz-adv-x="1163" 
d="M584 1102q-92 0 -153.5 58t-61.5 149t61.5 149t153.5 58h6l86 184h223l-158 -246q58 -58 58 -145q0 -91 -61.5 -149t-153.5 -58zM584 1384q-34 0 -55 -21t-21 -54t21.5 -54.5t54.5 -21.5t54 21.5t21 54.5t-21 54t-54 21zM588 1032q202 0 323 -108.5t121 -290.5v-633h-188
v158h-29q-38 -79 -125 -133t-229 -54q-168 0 -269.5 83.5t-101.5 219.5t94.5 211.5t288.5 94.5l371 34v27q0 103 -68.5 161t-191.5 58q-229 0 -308 -196l-165 75q59 128 181 210.5t296 82.5zM844 446v17l-350 -33q-209 -18 -209 -147q0 -71 55 -111.5t154 -40.5
q170 0 260 88.5t90 226.5z" />
    <glyph glyph-name="AEacute" unicode="&#x1fc;" horiz-adv-x="1171" 
d="M913 1802l-163 -235h-189l113 235h239zM795 188h295v-188h-500v344h-248l-92 -344h-213l385 1434h655v-189h-282v-432h233v-188h-233v-437zM590 532v713h-25l-178 -713h203z" />
    <glyph glyph-name="aeacute" unicode="&#x1fd;" horiz-adv-x="1177" 
d="M801 1434l-172 -267h-176l125 267h223zM1108 432h-432v-287q172 27 250 174l143 -106q-33 -45 -76 -84.5t-103 -77t-141.5 -59t-173.5 -21.5q-221 0 -353 85.5t-132 240.5q0 76 33.5 134t90.5 91t125 49.5t144 16.5h9v268q-70 -7 -135.5 -61t-100.5 -133l-150 94
q31 57 72 103.5t97.5 87t133.5 63t166 22.5q230 0 381.5 -143.5t151.5 -360.5v-96zM907 588q-3 105 -64.5 174.5t-166.5 93.5v-268h231zM467 152h25v280h-25q-78 0 -132 -34.5t-54 -104.5t54 -105.5t132 -35.5z" />
    <glyph glyph-name="Oslashacute" unicode="&#x1fe;" horiz-adv-x="1310" 
d="M877 1802l-164 -235h-189l113 235h240zM973 1380q116 -73 177.5 -200.5t61.5 -302.5v-320q0 -276 -148 -431t-409 -155q-77 0 -141 15l-55 -166l-172 53l57 174q-119 71 -182.5 201t-63.5 309v320q0 276 147.5 430.5t409.5 154.5q77 0 152 -16l47 143l170 -53zM303 553
q0 -213 107 -311l338 1024q-39 8 -93 8q-177 0 -264.5 -100t-87.5 -293v-328zM1008 553v328q0 203 -99 305l-336 -1020q37 -6 82 -6q177 0 265 100t88 293z" />
    <glyph glyph-name="oslashacute" unicode="&#x1ff;" horiz-adv-x="1187" 
d="M811 1434l-172 -267h-176l125 267h223zM864 961q114 -67 180 -187.5t66 -271.5q0 -232 -146.5 -381.5t-369.5 -149.5q-28 0 -102 9l-56 -146l-164 60l56 147q-116 67 -183 187.5t-67 273.5q0 232 146.5 381t369.5 149q50 0 108 -10l52 135l161 -59zM270 502
q0 -198 123 -291l246 643q-14 2 -45 2q-146 0 -235 -95t-89 -259zM594 147q146 0 235 95.5t89 259.5q0 191 -119 286l-244 -638q18 -3 39 -3z" />
    <glyph glyph-name="uni0218" unicode="&#x218;" horiz-adv-x="1236" 
d="M610 1462q151 0 268 -50.5t187 -153.5t70 -246v-66h-205v49q0 135 -87.5 209t-232.5 74q-121 0 -197.5 -58t-76.5 -153t65.5 -143.5t223.5 -83.5l94 -21q211 -45 319.5 -143t108.5 -275q0 -195 -143.5 -312.5t-368.5 -117.5q-261 0 -415 142t-154 379v65h204v-49
q0 -170 95 -261t272 -91q140 0 222.5 67t82.5 172q0 99 -65 150t-209 82l-95 20q-82 18 -145 39t-120.5 55t-95 77.5t-59.5 106t-22 140.5q0 119 64.5 210.5t173 139t241.5 47.5zM479 -262q0 72 46 116t114 44q70 0 115 -43t45 -113v-205q0 -72 -47 -120t-119 -48h-146v115
h129q56 0 56 61v43q-16 -4 -35 -4q-66 0 -112 42t-46 112z" />
    <glyph glyph-name="uni0219" unicode="&#x219;" horiz-adv-x="1079" 
d="M123 735q0 137 111 217t272 80q150 0 263 -60t235 -196l-144 -102q-154 198 -350 198q-87 0 -142 -36t-55 -99q0 -44 32 -71t62.5 -34.5t101.5 -17.5q7 -1 11 -2l84 -12q76 -11 130.5 -23.5t109.5 -35t89 -53t55.5 -77.5t21.5 -108q0 -149 -124 -240.5t-319 -91.5
q-102 0 -189.5 28t-150.5 76t-106.5 100t-75.5 112l172 92q48 -115 141 -179.5t215 -64.5q108 0 177 44.5t69 117.5q0 45 -36.5 72.5t-69.5 35t-105 17.5q-17 3 -26 4l-84 12q-71 10 -126 25t-103 39t-79.5 56t-49 76.5t-17.5 100.5zM408 -262q0 72 45.5 116t113.5 44
q70 0 115 -43t45 -113v-205q0 -72 -47 -120t-119 -48h-145v115h129q55 0 55 61v43q-16 -4 -35 -4q-66 0 -111.5 42t-45.5 112z" />
    <glyph glyph-name="uni021A" unicode="&#x21a;" horiz-adv-x="1212" 
d="M41 1434h1130v-189h-462v-1245h-205v1245h-463v189zM446 -262q0 72 46 116t114 44q70 0 115 -43t45 -113v-205q0 -72 -47 -120t-119 -48h-145v115h129q55 0 55 61v43q-16 -4 -35 -4q-66 0 -112 42t-46 112z" />
    <glyph glyph-name="uni021B" unicode="&#x21b;" horiz-adv-x="851" 
d="M29 1004h278v348h193v-348h295v-168h-295v-611q0 -31 12.5 -44t40.5 -13h184v-168h-262q-74 0 -121 48t-47 124v664h-278v168zM319 -262q0 72 46 116t114 44q70 0 115 -43t45 -113v-205q0 -72 -47 -120t-119 -48h-145v115h129q55 0 55 61v43q-16 -4 -35 -4q-66 0 -112 42
t-46 112z" />
    <glyph glyph-name="uni0237" unicode="&#x237;" horiz-adv-x="479" 
d="M336 1004v-1242q0 -76 -47 -124t-121 -48h-258v168h176q57 0 57 62v1184h193z" />
    <glyph glyph-name="circumflex" unicode="&#x2c6;" horiz-adv-x="839" 
d="M532 1167l-100 146h-24l-101 -146h-205l193 267h250l192 -267h-205z" />
    <glyph glyph-name="caron" unicode="&#x2c7;" horiz-adv-x="839" 
d="M532 1434h205l-192 -267h-250l-193 267h205l101 -146h24z" />
    <glyph glyph-name="breve" unicode="&#x2d8;" horiz-adv-x="679" 
d="M422 1434h156v-48q0 -105 -65 -168t-173 -63t-173 63t-65 168v48h156v-45q0 -35 22 -58.5t60 -23.5t60 23.5t22 58.5v45z" />
    <glyph glyph-name="dotaccent" unicode="&#x2d9;" horiz-adv-x="516" 
d="M102 1311q0 64 45.5 107.5t110.5 43.5t110.5 -43.5t45.5 -107.5t-45.5 -108t-110.5 -44t-110.5 44t-45.5 108z" />
    <glyph glyph-name="ring" unicode="&#x2da;" horiz-adv-x="634" 
d="M102 1309q0 91 61.5 149t153.5 58t153.5 -58t61.5 -149t-61.5 -149t-153.5 -58t-153.5 58t-61.5 149zM242 1309q0 -33 21 -54.5t54 -21.5t54.5 21.5t21.5 54.5t-21.5 54t-54.5 21t-54 -21t-21 -54z" />
    <glyph glyph-name="ogonek" unicode="&#x2db;" horiz-adv-x="497" 
d="M154 61h151l-45 -192q-2 -6 -2 -16q0 -46 47 -46h90v-147h-131q-66 0 -114 40.5t-48 111.5q0 14 7 49z" />
    <glyph glyph-name="tilde" unicode="&#x2dc;" horiz-adv-x="937" 
d="M102 1253l97 117q38 47 72 70.5t83 23.5q56 0 94 -27.5t78 -86.5q15 -22 27 -31.5t31 -9.5q30 0 57 34l78 97l117 -92l-97 -117q-38 -47 -72 -70.5t-83 -23.5q-56 0 -94 27.5t-78 86.5q-15 22 -27 31.5t-31 9.5q-29 0 -57 -35l-78 -96z" />
    <glyph glyph-name="hungarumlaut" unicode="&#x2dd;" horiz-adv-x="847" 
d="M227 1434h224l-172 -267h-177zM522 1434h223l-172 -267h-176z" />
    <glyph glyph-name="gravecomb" unicode="&#x300;" horiz-adv-x="0" 
d="M-227 1434l125 -267h-177l-172 267h224z" />
    <glyph glyph-name="acutecomb" unicode="&#x301;" horiz-adv-x="0" 
d="M-326 1434h224l-172 -267h-177z" />
    <glyph glyph-name="uni0302" unicode="&#x302;" horiz-adv-x="0" 
d="M-307 1167l-101 146h-24l-100 -146h-205l192 267h250l193 -267h-205z" />
    <glyph glyph-name="tildecomb" unicode="&#x303;" horiz-adv-x="0" 
d="M-836 1253l97 117q38 47 72 70.5t83 23.5q56 0 94 -27.5t78 -86.5q15 -22 27 -31.5t31 -9.5q30 0 57 34l78 97l117 -92l-97 -117q-38 -47 -72 -70.5t-83 -23.5q-56 0 -94 27.5t-78 86.5q-15 22 -27 31.5t-31 9.5q-29 0 -57 -35l-78 -96z" />
    <glyph glyph-name="uni0304" unicode="&#x304;" horiz-adv-x="0" 
d="M-102 1327v-160h-586v160h586z" />
    <glyph glyph-name="uni0306" unicode="&#x306;" horiz-adv-x="0" 
d="M-258 1434h156v-48q0 -105 -65 -168t-173 -63t-173 63t-65 168v48h156v-45q0 -35 22 -58.5t60 -23.5t60 23.5t22 58.5v45z" />
    <glyph glyph-name="uni0307" unicode="&#x307;" horiz-adv-x="0" 
d="M-414 1311q0 64 45.5 107.5t110.5 43.5t110.5 -43.5t45.5 -107.5t-45.5 -108t-110.5 -44t-110.5 44t-45.5 108z" />
    <glyph glyph-name="uni0308" unicode="&#x308;" horiz-adv-x="0" 
d="M-803 1311q0 64 45.5 107.5t110.5 43.5t110 -43.5t45 -107.5t-45 -108t-110 -44t-110.5 44t-45.5 108zM-414 1311q0 64 45.5 107.5t110.5 43.5t110.5 -43.5t45.5 -107.5t-45.5 -108t-110.5 -44t-110.5 44t-45.5 108z" />
    <glyph glyph-name="uni030A" unicode="&#x30a;" horiz-adv-x="0" 
d="M-532 1309q0 91 61.5 149t153.5 58t153.5 -58t61.5 -149t-61.5 -149t-153.5 -58t-153.5 58t-61.5 149zM-393 1309q0 -33 21.5 -54.5t54.5 -21.5t54 21.5t21 54.5t-21 54t-54 21t-54.5 -21t-21.5 -54z" />
    <glyph glyph-name="uni030B" unicode="&#x30b;" horiz-adv-x="0" 
d="M-621 1434h224l-172 -267h-176zM-326 1434h224l-172 -267h-177z" />
    <glyph glyph-name="uni030C" unicode="&#x30c;" horiz-adv-x="0" 
d="M-307 1434h205l-193 -267h-250l-192 267h205l100 -146h24z" />
    <glyph glyph-name="uni0312" unicode="&#x312;" horiz-adv-x="0" 
d="M-102 1311q0 -72 -46 -116t-114 -44q-70 0 -115 43t-45 113v204q0 72 47 120t119 48h145v-114h-129q-55 0 -55 -62v-43q16 4 35 4q66 0 112 -41.5t46 -111.5z" />
    <glyph glyph-name="uni0326" unicode="&#x326;" horiz-adv-x="0" 
d="M-422 -262q0 72 46 116t114 44q70 0 115 -43t45 -113v-205q0 -72 -47 -120t-119 -48h-146v115h129q56 0 56 61v43q-16 -4 -35 -4q-66 0 -112 42t-46 112z" />
    <glyph glyph-name="uni0327" unicode="&#x327;" horiz-adv-x="0" 
d="M-459 66h115l-41 -191h16q33 55 109 55q71 0 114.5 -48t43.5 -120q0 -89 -57.5 -142.5t-145.5 -53.5q-122 0 -193 98l103 82q24 -63 84 -63q33 0 55.5 19t22.5 54q0 30 -17.5 49t-44.5 19q-36 0 -49 -29h-170v17z" />
    <glyph glyph-name="uni0328" unicode="&#x328;" horiz-adv-x="0" 
d="M-344 61h151l-45 -192q-2 -6 -2 -16q0 -46 47 -46h91v-147h-131q-66 0 -114 40.5t-48 111.5q0 19 6 49z" />
    <glyph glyph-name="uni0335" unicode="&#x335;" horiz-adv-x="0" 
d="M-741 1294h639v-151h-639v151z" />
    <glyph glyph-name="uni0336" unicode="&#x336;" horiz-adv-x="0" 
d="M-102 1204v-172h-1270v172h1270z" />
    <glyph glyph-name="uni0337" unicode="&#x337;" horiz-adv-x="0" 
d="M-264 1157l162 -59l-480 -1264l-163 60z" />
    <glyph glyph-name="uni0338" unicode="&#x338;" horiz-adv-x="0" 
d="M-272 1589l170 -53l-566 -1716l-172 53z" />
    <glyph glyph-name="pi" unicode="&#x3c0;" 
d="M479 0h-192v836h-152v180h1004v-180h-152v-594q0 -62 55 -62h97v-180h-174q-74 0 -122 48.5t-48 123.5v664h-316v-836z" />
    <glyph glyph-name="Wgrave" unicode="&#x1e80;" horiz-adv-x="1671" 
d="M854 1802l113 -235h-189l-164 235h240zM57 1434h209l164 -1250h25l215 1250h331l216 -1250h24l164 1250h209l-199 -1434h-352l-215 1249h-25l-215 -1249h-352z" />
    <glyph glyph-name="wgrave" unicode="&#x1e81;" horiz-adv-x="1544" 
d="M778 1434l125 -267h-176l-172 267h223zM61 1004h201l158 -803h29l182 803h282l183 -803h28l158 803h201l-223 -1004h-291l-183 803h-28l-187 -803h-286z" />
    <glyph glyph-name="Wacute" unicode="&#x1e82;" horiz-adv-x="1671" 
d="M817 1802h240l-164 -235h-188zM57 1434h209l164 -1250h25l215 1250h331l216 -1250h24l164 1250h209l-199 -1434h-352l-215 1249h-25l-215 -1249h-352z" />
    <glyph glyph-name="wacute" unicode="&#x1e83;" horiz-adv-x="1544" 
d="M766 1434h223l-172 -267h-176zM61 1004h201l158 -803h29l182 803h282l183 -803h28l158 803h201l-223 -1004h-291l-183 803h-28l-187 -803h-286z" />
    <glyph glyph-name="Wdieresis" unicode="&#x1e84;" horiz-adv-x="1671" 
d="M475 1677q0 64 45.5 108t110.5 44t110 -44t45 -108t-45 -107.5t-110 -43.5t-110.5 43.5t-45.5 107.5zM885 1677q0 64 45 108t110 44t110.5 -44t45.5 -108t-45.5 -107.5t-110.5 -43.5t-110 43.5t-45 107.5zM57 1434h209l164 -1250h25l215 1250h331l216 -1250h24l164 1250
h209l-199 -1434h-352l-215 1249h-25l-215 -1249h-352z" />
    <glyph glyph-name="wdieresis" unicode="&#x1e85;" horiz-adv-x="1544" 
d="M422 1311q0 64 45.5 107.5t110.5 43.5t110 -43.5t45 -107.5t-45 -108t-110 -44t-110.5 44t-45.5 108zM811 1311q0 64 45.5 107.5t110.5 43.5t110 -43.5t45 -107.5t-45 -108t-110 -44t-110.5 44t-45.5 108zM61 1004h201l158 -803h29l182 803h282l183 -803h28l158 803h201
l-223 -1004h-291l-183 803h-28l-187 -803h-286z" />
    <glyph glyph-name="uni1E9E" unicode="&#x1e9e;" horiz-adv-x="1300" 
d="M143 0v893q0 266 142 403.5t383 137.5h524v-177l-322 -428q-30 -43 -30 -73q0 -25 15.5 -41.5t49.5 -30.5l56 -25q57 -25 102 -53t88.5 -68.5t67.5 -97t24 -123.5q0 -151 -101 -248.5t-278 -97.5q-180 0 -287.5 103t-107.5 270h209q0 -80 50.5 -130t135.5 -50
q83 0 128.5 43.5t45.5 109.5q0 31 -12 56.5t-37 45t-46.5 31.5t-55.5 27l-84 37q-168 73 -168 225q0 31 7 60.5t15 49.5t28 50.5t31 45t40 50.5l196 250h-284q-66 0 -122 -19.5t-101.5 -59t-71 -107.5t-25.5 -158v-901h-205z" />
    <glyph glyph-name="Ygrave" unicode="&#x1ef2;" horiz-adv-x="1245" 
d="M641 1802l113 -235h-189l-164 235h240zM16 1434h234l360 -666h25l360 666h234l-504 -904v-530h-205v530z" />
    <glyph glyph-name="ygrave" unicode="&#x1ef3;" horiz-adv-x="1142" 
d="M709 1167h-177l-172 267h224zM893 1004h209l-594 -1414h-209l170 392l-428 1022h209l309 -762h25z" />
    <glyph glyph-name="endash" unicode="&#x2013;" horiz-adv-x="1253" 
d="M168 428v176h917v-176h-917z" />
    <glyph glyph-name="emdash" unicode="&#x2014;" horiz-adv-x="1875" 
d="M168 428v176h1540v-176h-1540z" />
    <glyph glyph-name="quoteleft" unicode="&#x2018;" horiz-adv-x="524" 
d="M422 1077q0 -72 -46 -115.5t-114 -43.5q-70 0 -115 42.5t-45 112.5v225q0 72 47 120t119 48h146v-114h-129q-56 0 -56 -62v-63q16 4 35 4q66 0 112 -42t46 -112z" />
    <glyph glyph-name="quoteright" unicode="&#x2019;" horiz-adv-x="524" 
d="M102 1307q0 72 46 115.5t114 43.5q70 0 115 -42.5t45 -112.5v-226q0 -72 -47 -119.5t-119 -47.5h-145v114h129q55 0 55 62v63q-16 -4 -35 -4q-66 0 -112 42t-46 112z" />
    <glyph glyph-name="quotesinglbase" unicode="&#x201a;" horiz-adv-x="524" 
d="M102 131q0 72 46 116t114 44q70 0 115 -43t45 -113v-225q0 -72 -47 -120t-119 -48h-145v115h129q55 0 55 61v64q-20 -5 -35 -5q-66 0 -112 42t-46 112z" />
    <glyph glyph-name="quotedblleft" unicode="&#x201c;" horiz-adv-x="892" 
d="M422 1077q0 -72 -46 -115.5t-114 -43.5q-70 0 -115 42.5t-45 112.5v225q0 72 47 120t119 48h146v-114h-129q-56 0 -56 -62v-63q16 4 35 4q66 0 112 -42t46 -112zM791 1077q0 -72 -46 -115.5t-114 -43.5q-70 0 -115 42.5t-45 112.5v225q0 72 47 120t119 48h145v-114h-129
q-55 0 -55 -62v-63q16 4 35 4q66 0 112 -42t46 -112z" />
    <glyph glyph-name="quotedblright" unicode="&#x201d;" horiz-adv-x="892" 
d="M102 1307q0 72 46 115.5t114 43.5q70 0 115 -42.5t45 -112.5v-226q0 -72 -47 -119.5t-119 -47.5h-145v114h129q55 0 55 62v63q-16 -4 -35 -4q-66 0 -112 42t-46 112zM471 1307q0 72 46 115.5t114 43.5q70 0 115 -42.5t45 -112.5v-226q0 -72 -47 -119.5t-119 -47.5h-146
v114h129q56 0 56 62v63q-16 -4 -35 -4q-66 0 -112 42t-46 112z" />
    <glyph glyph-name="quotedblbase" unicode="&#x201e;" horiz-adv-x="892" 
d="M102 131q0 72 46 116t114 44q70 0 115 -43t45 -113v-225q0 -72 -47 -120t-119 -48h-145v115h129q55 0 55 61v64q-20 -5 -35 -5q-66 0 -112 42t-46 112zM471 131q0 72 46 116t114 44q70 0 115 -43t45 -113v-225q0 -72 -47 -120t-119 -48h-146v115h129q56 0 56 61v64
q-20 -5 -35 -5q-66 0 -112 42t-46 112z" />
    <glyph glyph-name="dagger" unicode="&#x2020;" 
d="M180 868v189h352v377h205v-377h353v-189h-353v-868h-205v868h-352z" />
    <glyph glyph-name="daggerdbl" unicode="&#x2021;" 
d="M180 377v188h352v303h-352v189h352v377h205v-377h353v-189h-353v-303h353v-188h-353v-377h-205v377h-352z" />
    <glyph glyph-name="bullet" unicode="&#x2022;" horiz-adv-x="634" 
d="M57 717q0 106 77 183t183 77t183.5 -77t77.5 -183t-78 -183t-183 -77t-182.5 77.5t-77.5 182.5z" />
    <glyph glyph-name="ellipsis" unicode="&#x2026;" horiz-adv-x="1261" 
d="M102 131q0 67 47 113.5t113 46.5t113 -46.5t47 -113.5t-47 -113.5t-113 -46.5t-113 46.5t-47 113.5zM471 131q0 67 47 113.5t113 46.5t113 -46.5t47 -113.5t-47 -113.5t-113 -46.5t-113 46.5t-47 113.5zM840 131q0 67 46.5 113.5t112.5 46.5t113 -46.5t47 -113.5
t-47 -113.5t-113 -46.5t-112.5 46.5t-46.5 113.5z" />
    <glyph glyph-name="perthousand" unicode="&#x2030;" horiz-adv-x="2056" 
d="M426 1462q151 0 239.5 -87.5t88.5 -239.5v-39q0 -153 -86.5 -239.5t-241.5 -86.5t-241.5 86.5t-86.5 239.5v39q0 153 86.5 240t241.5 87zM1376 1339l-397 -475l-111 82l353 508zM590 1087v58q0 81 -42 127.5t-122 46.5t-122 -46.5t-42 -127.5v-58q0 -81 42 -127.5
t122 -46.5t122 46.5t42 127.5zM1640 664q144 0 231 -88.5t87 -239.5v-39q0 -152 -85 -239t-233 -87q-171 0 -256 115q-85 -115 -256 -115q-148 0 -232.5 87t-84.5 239v39q0 152 84.5 240t232.5 88q169 0 256 -117q84 117 256 117zM188 94l398 475l110 -82l-352 -507z
M1303 289v57q0 81 -42 127.5t-122 46.5t-122 -46.5t-42 -127.5v-57q0 -81 42 -127.5t122 -46.5t122 46.5t42 127.5zM1794 289v57q0 81 -42 127.5t-122 46.5t-122 -46.5t-42 -127.5v-57q0 -81 42 -127.5t122 -46.5t122 46.5t42 127.5z" />
    <glyph glyph-name="prime" unicode="&#x2032;" horiz-adv-x="634" 
d="M221 1434h223l-104 -533h-143z" />
    <glyph glyph-name="primedbl" unicode="&#x2033;" horiz-adv-x="901" 
d="M205 1434h221l-104 -533h-142zM506 1434h221l-104 -533h-142z" />
    <glyph glyph-name="guilsinglleft" unicode="&#x2039;" horiz-adv-x="983" 
d="M133 621l696 360h13v-213l-523 -246v-28l523 -246v-213h-13l-696 360v226z" />
    <glyph glyph-name="guilsinglright" unicode="&#x203a;" horiz-adv-x="983" 
d="M850 621v-226l-696 -360h-13v213l523 246v28l-523 246v213h13z" />
    <glyph glyph-name="fraction" unicode="&#x2044;" 
d="M721 946l352 508l156 -115l-398 -475zM549 487l-352 -507l-156 114l397 475z" />
    <glyph glyph-name="Euro" unicode="&#x20ac;" horiz-adv-x="1368" 
d="M1282 909h-205v29q0 156 -79.5 246t-239.5 90q-152 0 -238 -84.5t-100 -243.5h338v-172h-340v-115h340v-172h-338q14 -159 100 -243t238 -84q160 0 239.5 89.5t79.5 246.5v28h205v-28q0 -242 -137.5 -383.5t-386.5 -141.5q-242 0 -383 134.5t-160 381.5h-149v172h147v115
h-147v172h149q19 247 160 381.5t383 134.5q248 0 386 -140.5t138 -375.5v-37z" />
    <glyph glyph-name="trademark" unicode="&#x2122;" horiz-adv-x="1175" 
d="M86 1434h389v-74h-153v-381h-82v381h-154v74zM537 1434h145l111 -381h8l110 381h146v-455h-82v381h-8l-111 -381h-119l-110 381h-9v-381h-81v455z" />
    <glyph glyph-name="oneeighth" unicode="&#x215b;" horiz-adv-x="1478" 
d="M745 946l353 508l155 -115l-397 -475zM215 1434h227v-717h-163v536h-21l-84 -139h-158v21zM795 549q0 88 87.5 142t227.5 54t227.5 -54t87.5 -142v-6q0 -68 -39.5 -108.5t-89.5 -53.5v-21q55 -13 98.5 -55.5t43.5 -116.5v-4q0 -92 -89 -152.5t-239 -60.5t-239 60.5
t-89 152.5v4q0 74 44 116.5t100 55.5v21q-51 13 -91 53.5t-40 108.5v6zM958 524q0 -39 41 -62.5t111 -23.5t111 23.5t41 62.5q0 38 -40.5 60t-111.5 22t-111.5 -22t-40.5 -60zM573 487l-352 -507l-155 114l397 475zM946 205q0 -45 43.5 -69.5t120.5 -24.5t120.5 24.5
t43.5 69.5t-43.5 69.5t-120.5 24.5t-120.5 -24.5t-43.5 -69.5z" />
    <glyph glyph-name="threeeighths" unicode="&#x215c;" horiz-adv-x="1605" 
d="M872 946l353 508l155 -115l-397 -475zM45 1434h619v-111l-222 -149v-21q106 -6 164 -58t58 -151q0 -112 -91 -184t-223 -72q-144 0 -232.5 76t-88.5 205h164q0 -67 42 -102.5t113 -35.5q68 0 110 32.5t42 84.5q0 105 -152 105h-127v106l193 135h-369v140zM922 549
q0 88 87.5 142t227.5 54t227.5 -54t87.5 -142v-6q0 -68 -39.5 -108.5t-89.5 -53.5v-21q55 -13 98.5 -55.5t43.5 -116.5v-4q0 -92 -89 -152.5t-239 -60.5t-239 60.5t-89 152.5v4q0 74 44 116.5t100 55.5v21q-51 13 -91 53.5t-40 108.5v6zM1085 524q0 -39 41 -62.5t111 -23.5
t111 23.5t41 62.5q0 38 -40.5 60t-111.5 22t-111.5 -22t-40.5 -60zM700 487l-352 -507l-155 114l397 475zM1073 205q0 -45 43.5 -69.5t120.5 -24.5t120.5 24.5t43.5 69.5t-43.5 69.5t-120.5 24.5t-120.5 -24.5t-43.5 -69.5z" />
    <glyph glyph-name="fiveeighths" unicode="&#x215d;" horiz-adv-x="1626" 
d="M893 946l352 508l156 -115l-397 -475zM70 1434h594v-140h-435v-149h21q2 1 11 8t13 9t13.5 8t16 9t17.5 8t21.5 7t23.5 5t28 4t32 1q110 0 184 -65t74 -174v-15q0 -112 -86.5 -187t-228.5 -75q-137 0 -225 75.5t-99 197.5h168q0 -55 44.5 -92.5t111.5 -37.5t109 34.5
t42 90.5q0 55 -37 86t-92 31q-63 0 -127 -39h-194v400zM942 549q0 88 87.5 142t227.5 54t228 -54.5t88 -141.5v-6q0 -68 -39.5 -108.5t-89.5 -53.5v-21q55 -13 98 -55.5t43 -116.5v-4q0 -92 -89 -152.5t-239 -60.5t-238.5 60.5t-88.5 152.5v4q0 74 43.5 116.5t99.5 55.5v21
q-51 13 -91 53.5t-40 108.5v6zM1106 524q0 -39 40.5 -62.5t110.5 -23.5t111 23.5t41 62.5q0 38 -40.5 60t-111.5 22q-70 0 -110.5 -22t-40.5 -60zM721 487l-352 -507l-156 114l397 475zM1094 205q0 -45 43 -69.5t120 -24.5t120.5 24.5t43.5 69.5t-43.5 69.5t-120.5 24.5
t-120 -24.5t-43 -69.5z" />
    <glyph glyph-name="seveneighths" unicode="&#x215e;" horiz-adv-x="1474" 
d="M741 946l353 508l155 -115l-397 -475zM12 1434h611v-131l-293 -586h-172l286 577h-432v140zM791 549q0 88 87.5 142t227.5 54t227.5 -54t87.5 -142v-6q0 -68 -39.5 -108.5t-89.5 -53.5v-21q55 -13 98.5 -55.5t43.5 -116.5v-4q0 -92 -89 -152.5t-239 -60.5t-239 60.5
t-89 152.5v4q0 74 44 116.5t100 55.5v21q-51 13 -91 53.5t-40 108.5v6zM954 524q0 -39 41 -62.5t111 -23.5t110.5 23.5t40.5 62.5q0 38 -40.5 60t-110.5 22q-71 0 -111.5 -22t-40.5 -60zM569 487l-352 -507l-156 114l398 475zM942 205q0 -45 43.5 -69.5t120.5 -24.5
t120.5 24.5t43.5 69.5t-43.5 69.5t-120.5 24.5t-120.5 -24.5t-43.5 -69.5z" />
    <glyph glyph-name="arrowleft" unicode="&#x2190;" horiz-adv-x="1638" 
d="M573 1057l123 -123l-272 -272l-59 -44l6 -18l73 6h1092v-180h-1092l-73 6l-6 -18l59 -43l272 -273l-123 -123l-471 471v140z" />
    <glyph glyph-name="arrowup" unicode="&#x2191;" 
d="M82 963l483 483h140l483 -483l-127 -127l-277 276l-43 59l-18 -6l6 -73v-1092h-188v1092l6 73l-19 6l-43 -59l-276 -276z" />
    <glyph glyph-name="arrowright" unicode="&#x2192;" horiz-adv-x="1638" 
d="M1065 1057l471 -471v-140l-471 -471l-123 123l272 273l60 43l-6 18l-74 -6h-1092v180h1092l74 -6l6 18l-60 44l-272 272z" />
    <glyph glyph-name="arrowdown" unicode="&#x2193;" 
d="M86 467l123 123l276 -277l43 -59l19 6l-6 74v1100h188v-1100l-6 -74l18 -6l43 59l277 277l123 -123l-479 -479h-140z" />
    <glyph glyph-name="arrowboth" unicode="&#x2194;" horiz-adv-x="1638" 
d="M1065 1055l471 -471v-140l-471 -471l-123 123l272 273l60 43l-6 18l-74 -6h-750l-73 6l-6 -18l59 -43l272 -273l-123 -123l-471 471v140l471 471l123 -123l-272 -273l-59 -43l6 -18l73 6h750l74 -6l6 18l-60 43l-272 273z" />
    <glyph glyph-name="arrowupdn" unicode="&#x2195;" 
d="M784 334l277 276l127 -127l-483 -483h-140l-483 483l127 127l276 -276l43 -60l19 7l-6 73v725l6 74l-19 6l-43 -59l-276 -277l-127 127l483 484h140l483 -484l-127 -127l-277 277l-43 59l-18 -6l6 -74v-725l-6 -73l18 -7z" />
    <glyph glyph-name="uni2196" unicode="&#x2196;" 
d="M895 1016v-168h-397l-72 10l-10 -16l57 -49l694 -695l-129 -129l-692 697l-49 57l-16 -10l10 -72v-397h-168v671l100 101h672z" />
    <glyph glyph-name="uni2197" unicode="&#x2197;" 
d="M375 1016h672l100 -101v-671h-168v397l10 72l-16 10l-49 -57l-693 -697l-129 129l695 695l57 49l-10 16l-72 -10h-397v168z" />
    <glyph glyph-name="uni2198" unicode="&#x2198;" 
d="M375 0v168h397l72 -10l10 16l-57 49l-695 695l129 129l693 -697l49 -57l16 10l-10 72v397h168v-672l-100 -100h-672z" />
    <glyph glyph-name="uni2199" unicode="&#x2199;" 
d="M895 0h-672l-100 100v672h168v-397l-10 -72l16 -10l49 57l692 697l129 -129l-694 -695l-57 -49l10 -16l72 10h397v-168z" />
    <glyph glyph-name="partialdiff" unicode="&#x2202;" 
d="M119 520q0 225 134 374.5t339 149.5q193 0 278 -126h29q-49 160 -203.5 254.5t-367.5 119.5l37 181q383 -47 584.5 -279.5t201.5 -620.5q0 -274 -137.5 -438t-382.5 -164q-225 0 -368.5 148.5t-143.5 376.5v24zM633 154q146 0 232.5 99.5t86.5 266.5q0 151 -90.5 246.5
t-228.5 95.5q-139 0 -229.5 -97.5t-90.5 -246.5v-20q0 -154 89 -249t231 -95z" />
    <glyph glyph-name="emptyset" unicode="&#x2205;" horiz-adv-x="1310" 
d="M956 958q111 -69 175.5 -183.5t64.5 -256.5v-20q0 -150 -72.5 -271.5t-196.5 -188.5t-272 -67q-57 0 -120 13l-84 -193l-181 74l84 192q-111 69 -175 184t-64 257v20q0 150 72.5 271.5t196 188t271.5 66.5q63 0 121 -12l84 193l180 -74zM307 494q0 -174 119 -269l276 637
q-14 2 -47 2q-153 0 -250.5 -93.5t-97.5 -248.5v-28zM1004 494v28q0 174 -119 269l-277 -637q14 -2 47 -2q153 0 251 93.5t98 248.5z" />
    <glyph glyph-name="product" unicode="&#x220f;" 
d="M150 0v1434h970v-1434h-205v1241h-561v-1241h-204z" />
    <glyph glyph-name="summation" unicode="&#x2211;" 
d="M147 1253v181h975v-189h-684v-28l381 -426v-148l-381 -426v-29h684v-188h-975v180l459 522v29z" />
    <glyph glyph-name="minus" unicode="&#x2212;" 
d="M207 805h856v-176h-856v176z" />
    <glyph glyph-name="radical" unicode="&#x221a;" 
d="M84 633v176h362l158 -649h29l368 1593h197l-410 -1753h-344l-153 633h-207z" />
    <glyph glyph-name="infinity" unicode="&#x221e;" 
d="M102 717q0 126 89 217.5t212 91.5q70 0 125 -28t88 -78h37q33 50 88 78t125 28q124 0 212.5 -90.5t88.5 -218.5q0 -129 -90.5 -219t-210.5 -90q-70 0 -125 28t-88 78h-37q-33 -50 -88 -78t-125 -28q-123 0 -212 92t-89 217zM549 717q0 57 -40 97t-97 40t-97.5 -40
t-40.5 -97t40.5 -97t97.5 -40t97 40t40 97zM721 717q0 -57 40 -97t97 -40t97 40t40 97t-40 97t-97 40t-97 -40t-40 -97z" />
    <glyph glyph-name="integral" unicode="&#x222b;" 
d="M731 1192v-1425q0 -75 -49.5 -126t-124.5 -51h-260v181h186q56 0 56 61v1425q0 75 49.5 126t124.5 51h260v-181h-187q-55 0 -55 -61z" />
    <glyph glyph-name="approxequal" unicode="&#x2248;" 
d="M702 987q11 -26 17.5 -37t19 -20.5t31.5 -9.5q24 0 59 28l179 142l102 -129l-211 -164q-81 -62 -156 -62q-67 0 -106 32.5t-68 96.5q-10 22 -13.5 29t-11.5 19t-18 16t-24 4q-24 0 -60 -29l-178 -141l-102 129l211 164q79 61 155 61q67 0 106 -32.5t68 -96.5zM702 598
q9 -20 13 -28.5t12.5 -20t18.5 -15.5t24 -4q23 0 59 29l179 141l102 -129l-211 -163q-81 -62 -156 -62q-67 0 -106 32.5t-68 96.5q-10 22 -13.5 29t-11.5 19t-18 16t-24 4q-24 0 -60 -29l-178 -141l-102 129l211 164q79 61 155 61q67 0 106 -32.5t68 -96.5z" />
    <glyph glyph-name="notequal" unicode="&#x2260;" 
d="M207 786v177h411l74 223l174 -56l-55 -167h252v-177h-309l-45 -139h354v-176h-414l-71 -221l-175 53l56 168h-252v176h309l45 139h-354z" />
    <glyph glyph-name="lessequal" unicode="&#x2264;" 
d="M205 596v242l860 329v-196l-668 -240v-29l668 -239v-197zM205 0v172h860v-172h-860z" />
    <glyph glyph-name="greaterequal" unicode="&#x2265;" 
d="M1065 596l-860 -330v197l667 239v29l-667 240v196l860 -329v-242zM1065 0h-860v172h860v-172z" />
    <glyph glyph-name="lozenge" unicode="&#x25ca;" 
d="M109 717l372 717h307l373 -717l-373 -717h-307zM328 717l293 -567h28l293 567l-293 567h-28z" />
    <glyph glyph-name="uniE132" unicode="&#xe132;" horiz-adv-x="958" 
d="M233 1434h224l-172 -267h-176zM713 1434h223l-172 -267h-176zM336 1004v-1004h-193v1004h193zM815 1004v-1242q0 -76 -47 -124t-121 -48h-258v168h176q58 0 58 62v1184h192z" />
    <glyph glyph-name="uniE133" unicode="&#xe133;" horiz-adv-x="1179" 
d="M221 1802h240l-164 -235h-188zM918 1802h239l-164 -235h-188zM137 1434h205v-707h-205v707zM834 1434h204v-1004q0 -222 -113.5 -340.5t-324.5 -118.5q-216 0 -339.5 120t-123.5 339v119h205v-119q0 -126 65.5 -198t190.5 -72q236 0 236 270v1004z" />
    <glyph glyph-name="A.ss03" horiz-adv-x="1294" 
d="M449 1434h397l407 -1434h-217l-94 344h-590l-94 -344h-217zM406 532h483l-230 830h-24z" />
    <glyph glyph-name="Aacute.ss03" horiz-adv-x="1294" 
d="M629 1802h239l-163 -235h-189zM449 1434h397l407 -1434h-217l-94 344h-590l-94 -344h-217zM406 532h483l-230 830h-24z" />
    <glyph glyph-name="Abreve.ss03" horiz-adv-x="1294" 
d="M729 1802h156v-16q0 -105 -65 -168.5t-173 -63.5t-172.5 63.5t-64.5 168.5v16h155v-14q0 -35 22 -58.5t60 -23.5t60 23.5t22 58.5v14zM449 1434h397l407 -1434h-217l-94 344h-590l-94 -344h-217zM406 532h483l-230 830h-24z" />
    <glyph glyph-name="Acircumflex.ss03" horiz-adv-x="1294" 
d="M756 1567l-97 114h-24l-96 -114h-222l209 235h242l209 -235h-221zM449 1434h397l407 -1434h-217l-94 344h-590l-94 -344h-217zM406 532h483l-230 830h-24z" />
    <glyph glyph-name="Adieresis.ss03" horiz-adv-x="1294" 
d="M287 1677q0 64 45 108t110 44t110.5 -44t45.5 -108t-45.5 -107.5t-110.5 -43.5t-110 43.5t-45 107.5zM696 1677q0 64 45.5 108t110.5 44t110.5 -44t45.5 -108t-45.5 -107.5t-110.5 -43.5t-110.5 43.5t-45.5 107.5zM449 1434h397l407 -1434h-217l-94 344h-590l-94 -344
h-217zM406 532h483l-230 830h-24z" />
    <glyph glyph-name="Agrave.ss03" horiz-adv-x="1294" 
d="M666 1802l112 -235h-188l-164 235h240zM449 1434h397l407 -1434h-217l-94 344h-590l-94 -344h-217zM406 532h483l-230 830h-24z" />
    <glyph glyph-name="Amacron.ss03" horiz-adv-x="1294" 
d="M940 1726v-159h-586v159h586zM449 1434h397l407 -1434h-217l-94 344h-590l-94 -344h-217zM406 532h483l-230 830h-24z" />
    <glyph glyph-name="Aogonek.ss03" horiz-adv-x="1294" 
d="M1221 -193h90v-147h-131q-66 0 -114 40.5t-48 111.5q0 19 6 49l31 139h-19l-94 344h-590l-94 -344h-217l408 1434h397l407 -1434h-47l-30 -131q-2 -6 -2 -16q0 -46 47 -46zM406 532h483l-230 830h-24z" />
    <glyph glyph-name="Aring.ss03" horiz-adv-x="1294" 
d="M432 1722q0 91 61.5 149t153.5 58t153.5 -58t61.5 -149t-61.5 -148.5t-153.5 -57.5t-153.5 57.5t-61.5 148.5zM571 1722q0 -32 21.5 -53.5t54.5 -21.5t54.5 21.5t21.5 53.5q0 33 -21.5 54.5t-54.5 21.5t-54.5 -21.5t-21.5 -54.5zM449 1434h397l407 -1434h-217l-94 344
h-590l-94 -344h-217zM406 532h483l-230 830h-24z" />
    <glyph glyph-name="Aringacute.ss03" horiz-adv-x="1294" 
d="M647 1516q-92 0 -153.5 57.5t-61.5 148.5t61.5 149t153.5 58h4l58 119h239l-133 -193q47 -57 47 -133q0 -91 -61.5 -148.5t-153.5 -57.5zM647 1798q-33 0 -54.5 -21.5t-21.5 -54.5q0 -32 21.5 -53.5t54.5 -21.5t54.5 21.5t21.5 53.5q0 33 -21.5 54.5t-54.5 21.5z
M846 1434l407 -1434h-217l-94 344h-590l-94 -344h-217l408 1434h397zM406 532h483l-230 830h-24z" />
    <glyph glyph-name="Atilde.ss03" horiz-adv-x="1294" 
d="M281 1636l96 117q38 47 72 70.5t83 23.5q56 0 94.5 -27.5t78.5 -86.5q15 -23 26.5 -32t30.5 -9q30 0 57 34l78 97l117 -92l-96 -117q-38 -47 -72.5 -70.5t-83.5 -23.5q-56 0 -94 27.5t-78 86.5q-15 22 -27 31.5t-31 9.5q-29 0 -57 -35l-78 -96zM449 1434h397l407 -1434
h-217l-94 344h-590l-94 -344h-217zM406 532h483l-230 830h-24z" />
    <glyph glyph-name="AE.ss03" horiz-adv-x="1175" 
d="M799 188h295v-188h-500v344h-260l-80 -344h-217l348 1434h696v-189h-282v-432h233v-188h-233v-437zM594 532v830h-25l-192 -830h217z" />
    <glyph glyph-name="AEacute.ss03" horiz-adv-x="1175" 
d="M918 1802l-164 -235h-189l113 235h240zM799 188h295v-188h-500v344h-260l-80 -344h-217l348 1434h696v-189h-282v-432h233v-188h-233v-437zM594 532v830h-25l-192 -830h217z" />
    <glyph glyph-name="M.ss03" horiz-adv-x="1785" 
d="M147 1434h414l320 -1362h24l320 1362h413v-1434h-204v1362h-25l-317 -1362h-398l-317 1362h-25v-1362h-205v1434z" />
    <glyph glyph-name="N.ss03" horiz-adv-x="1347" 
d="M147 1434h418l406 -1362h24v1362h205v-1434h-422l-401 1362h-25v-1362h-205v1434z" />
    <glyph glyph-name="Nacute.ss03" horiz-adv-x="1347" 
d="M649 1802h240l-164 -235h-188zM147 1434h418l406 -1362h24v1362h205v-1434h-422l-401 1362h-25v-1362h-205v1434z" />
    <glyph glyph-name="Ncaron.ss03" horiz-adv-x="1347" 
d="M776 1802h221l-209 -235h-241l-209 235h221l96 -114h25zM147 1434h418l406 -1362h24v1362h205v-1434h-422l-401 1362h-25v-1362h-205v1434z" />
    <glyph glyph-name="uni0145.ss03" horiz-adv-x="1347" 
d="M147 1434h418l406 -1362h24v1362h205v-1434h-422l-401 1362h-25v-1362h-205v1434zM508 -262q0 72 46 116t114 44q70 0 114.5 -43t44.5 -113v-205q0 -72 -46.5 -120t-118.5 -48h-146v115h129q55 0 55 61v43q-16 -4 -34 -4q-66 0 -112 42t-46 112z" />
    <glyph glyph-name="Eng.ss03" horiz-adv-x="1347" 
d="M995 1434h205v-1667q0 -81 -48.5 -129t-125.5 -48h-391v172h303q57 0 57 64v174h-209l-409 1331h-25v-1331h-205v1434h410l414 -1334h24v1334z" />
    <glyph glyph-name="Ntilde.ss03" horiz-adv-x="1347" 
d="M301 1636l96 117q38 47 72.5 70.5t83.5 23.5q56 0 94 -27.5t78 -86.5q15 -23 26.5 -32t30.5 -9q31 0 58 34l78 97l116 -92l-96 -117q-38 -47 -72.5 -70.5t-83.5 -23.5q-56 0 -94 27.5t-78 86.5q-15 23 -26.5 32t-30.5 9q-29 0 -57 -35l-78 -96zM147 1434h418l406 -1362
h24v1362h205v-1434h-422l-401 1362h-25v-1362h-205v1434z" />
    <glyph glyph-name="V.ss03" horiz-adv-x="1261" 
d="M33 1434h221l364 -1362h25l365 1362h221l-400 -1434h-397z" />
    <glyph glyph-name="W.ss03" horiz-adv-x="1671" 
d="M66 1434h208l152 -1362h25l184 1362h401l185 -1362h24l152 1362h209l-168 -1434h-406l-184 1362h-25l-184 -1362h-406z" />
    <glyph glyph-name="Wacute.ss03" horiz-adv-x="1671" 
d="M817 1802h240l-164 -235h-188zM66 1434h208l152 -1362h25l184 1362h401l185 -1362h24l152 1362h209l-168 -1434h-406l-184 1362h-25l-184 -1362h-406z" />
    <glyph glyph-name="Wcircumflex.ss03" horiz-adv-x="1671" 
d="M944 1567l-96 114h-25l-96 -114h-221l209 235h241l209 -235h-221zM66 1434h208l152 -1362h25l184 1362h401l185 -1362h24l152 1362h209l-168 -1434h-406l-184 1362h-25l-184 -1362h-406z" />
    <glyph glyph-name="Wdieresis.ss03" horiz-adv-x="1671" 
d="M475 1677q0 64 45.5 108t110.5 44t110 -44t45 -108t-45 -107.5t-110 -43.5t-110.5 43.5t-45.5 107.5zM885 1677q0 64 45 108t110 44t110.5 -44t45.5 -108t-45.5 -107.5t-110.5 -43.5t-110 43.5t-45 107.5zM66 1434h208l152 -1362h25l184 1362h401l185 -1362h24l152 1362
h209l-168 -1434h-406l-184 1362h-25l-184 -1362h-406z" />
    <glyph glyph-name="Wgrave.ss03" horiz-adv-x="1671" 
d="M854 1802l113 -235h-189l-164 235h240zM66 1434h208l152 -1362h25l184 1362h401l185 -1362h24l152 1362h209l-168 -1434h-406l-184 1362h-25l-184 -1362h-406z" />
    <glyph glyph-name="I.ss04" horiz-adv-x="802" 
d="M82 1434h639v-181h-217v-1073h217v-180h-639v180h217v1073h-217v181z" />
    <glyph glyph-name="IJ.ss04" horiz-adv-x="1376" 
d="M82 1434h516v-181h-156v-565h-204v565h-156v181zM770 1434h565v-181h-155v-823q0 -223 -117 -341t-342 -118q-230 0 -356.5 119.5t-126.5 339.5v78h204v-78q0 -127 69 -198.5t208 -71.5q256 0 256 270v823h-205v181z" />
    <glyph glyph-name="Iacute.ss04" horiz-adv-x="802" 
d="M383 1802h240l-164 -235h-189zM82 1434h639v-181h-217v-1073h217v-180h-639v180h217v1073h-217v181z" />
    <glyph glyph-name="Icircumflex.ss04" horiz-adv-x="802" 
d="M510 1567l-96 114h-25l-96 -114h-221l209 235h241l209 -235h-221zM82 1434h639v-181h-217v-1073h217v-180h-639v180h217v1073h-217v181z" />
    <glyph glyph-name="Idieresis.ss04" horiz-adv-x="802" 
d="M41 1677q0 64 45.5 108t110.5 44t110 -44t45 -108t-45 -107.5t-110 -43.5t-110.5 43.5t-45.5 107.5zM451 1677q0 64 45 108t110 44t110.5 -44t45.5 -108t-45.5 -107.5t-110.5 -43.5t-110 43.5t-45 107.5zM82 1434h639v-181h-217v-1073h217v-180h-639v180h217v1073h-217
v181z" />
    <glyph glyph-name="Idotaccent.ss04" horiz-adv-x="802" 
d="M246 1677q0 64 45 108t110 44t110.5 -44t45.5 -108t-45.5 -107.5t-110.5 -43.5t-110 43.5t-45 107.5zM82 1434h639v-181h-217v-1073h217v-180h-639v180h217v1073h-217v181z" />
    <glyph glyph-name="Igrave.ss04" horiz-adv-x="802" 
d="M420 1802l112 -235h-188l-164 235h240zM82 1434h639v-181h-217v-1073h217v-180h-639v180h217v1073h-217v181z" />
    <glyph glyph-name="Imacron.ss04" horiz-adv-x="802" 
d="M694 1726v-159h-585v159h585zM82 1434h639v-181h-217v-1073h217v-180h-639v180h217v1073h-217v181z" />
    <glyph glyph-name="Iogonek.ss04" horiz-adv-x="802" 
d="M721 1253h-217v-1073h217v-180h-244l-31 -131q-2 -6 -2 -16q0 -46 48 -46h90v-147h-131q-66 0 -114 40.5t-48 111.5q0 19 6 49l31 139h-244v180h217v1073h-217v181h639v-181z" />
    <glyph glyph-name="J.ss04" horiz-adv-x="1179" 
d="M573 1434h566v-181h-156v-823q0 -223 -117 -341t-342 -118q-230 0 -356.5 119.5t-126.5 339.5v119h205v-119q0 -127 69 -198.5t207 -71.5q256 0 256 270v823h-205v181z" />
    <glyph glyph-name="R.ss05" horiz-adv-x="1273" 
d="M147 1434h603q198 0 316 -113t118 -291q0 -234 -209 -332v-24q71 -6 117.5 -55.5t46.5 -120.5v-498h-205v463q0 55 -26 82.5t-85 27.5h-471v-573h-205v1434zM352 1245v-483h369q126 0 192 66.5t66 175.5t-66 175t-192 66h-369z" />
    <glyph glyph-name="Racute.ss05" horiz-adv-x="1273" 
d="M602 1802h240l-164 -235h-189zM147 1434h603q198 0 316 -113t118 -291q0 -234 -209 -332v-24q71 -6 117.5 -55.5t46.5 -120.5v-498h-205v463q0 55 -26 82.5t-85 27.5h-471v-573h-205v1434zM352 1245v-483h369q126 0 192 66.5t66 175.5t-66 175t-192 66h-369z" />
    <glyph glyph-name="Rcaron.ss05" horiz-adv-x="1273" 
d="M729 1802h221l-209 -235h-241l-209 235h221l96 -114h25zM147 1434h603q198 0 316 -113t118 -291q0 -234 -209 -332v-24q71 -6 117.5 -55.5t46.5 -120.5v-498h-205v463q0 55 -26 82.5t-85 27.5h-471v-573h-205v1434zM352 1245v-483h369q126 0 192 66.5t66 175.5t-66 175
t-192 66h-369z" />
    <glyph glyph-name="uni0156.ss05" horiz-adv-x="1273" 
d="M147 1434h603q198 0 316 -113t118 -291q0 -234 -209 -332v-24q71 -6 117.5 -55.5t46.5 -120.5v-498h-205v463q0 55 -26 82.5t-85 27.5h-471v-573h-205v1434zM352 1245v-483h369q126 0 192 66.5t66 175.5t-66 175t-192 66h-369zM477 -262q0 72 46 116t114 44q70 0 115 -43
t45 -113v-205q0 -72 -47 -120t-119 -48h-146v115h129q56 0 56 61v43q-16 -4 -35 -4q-66 0 -112 42t-46 112z" />
    <glyph glyph-name="i.loclTRK" horiz-adv-x="479" 
d="M84 1311q0 64 45.5 107.5t110.5 43.5t110 -43.5t45 -107.5t-45 -108t-110 -44t-110.5 44t-45.5 108zM336 1004v-1004h-193v1004h193z" />
    <glyph glyph-name="uni006A0301" horiz-adv-x="479" 
d="M233 1434h224l-172 -267h-176zM336 1004v-1242q0 -76 -47 -124t-121 -48h-258v168h176q57 0 57 62v1184h193z" />
    <glyph glyph-name="a.ss01" horiz-adv-x="1253" 
d="M1110 0h-188v158h-29q-23 -39 -50 -69t-67.5 -58.5t-98 -44t-128.5 -15.5q-200 0 -335.5 150t-135.5 381t135.5 382.5t335.5 151.5q71 0 128.5 -16t98 -45t67.5 -59.5t50 -69.5h29v158h188v-1004zM598 143q148 0 234 96.5t86 262.5t-86.5 264t-233.5 98t-237.5 -96.5
t-90.5 -265.5t90 -264t238 -95z" />
    <glyph glyph-name="aacute.ss01" horiz-adv-x="1253" 
d="M621 1434h223l-172 -267h-176zM1110 0h-188v158h-29q-23 -39 -50 -69t-67.5 -58.5t-98 -44t-128.5 -15.5q-200 0 -335.5 150t-135.5 381t135.5 382.5t335.5 151.5q71 0 128.5 -16t98 -45t67.5 -59.5t50 -69.5h29v158h188v-1004zM598 143q148 0 234 96.5t86 262.5
t-86.5 264t-233.5 98t-237.5 -96.5t-90.5 -265.5t90 -264t238 -95z" />
    <glyph glyph-name="abreve.ss01" horiz-adv-x="1253" 
d="M709 1434h155v-48q0 -105 -64.5 -168t-172.5 -63t-173 63t-65 168v48h156v-45q0 -35 22 -58.5t60 -23.5t60 23.5t22 58.5v45zM1110 0h-188v158h-29q-23 -39 -50 -69t-67.5 -58.5t-98 -44t-128.5 -15.5q-200 0 -335.5 150t-135.5 381t135.5 382.5t335.5 151.5
q71 0 128.5 -16t98 -45t67.5 -59.5t50 -69.5h29v158h188v-1004zM598 143q148 0 234 96.5t86 262.5t-86.5 264t-233.5 98t-237.5 -96.5t-90.5 -265.5t90 -264t238 -95z" />
    <glyph glyph-name="acircumflex.ss01" horiz-adv-x="1253" 
d="M739 1167l-100 146h-25l-100 -146h-205l193 267h250l192 -267h-205zM1110 0h-188v158h-29q-23 -39 -50 -69t-67.5 -58.5t-98 -44t-128.5 -15.5q-200 0 -335.5 150t-135.5 381t135.5 382.5t335.5 151.5q71 0 128.5 -16t98 -45t67.5 -59.5t50 -69.5h29v158h188v-1004z
M598 143q148 0 234 96.5t86 262.5t-86.5 264t-233.5 98t-237.5 -96.5t-90.5 -265.5t90 -264t238 -95z" />
    <glyph glyph-name="adieresis.ss01" horiz-adv-x="1253" 
d="M276 1311q0 64 45.5 107.5t110.5 43.5t110.5 -43.5t45.5 -107.5t-45.5 -108t-110.5 -44t-110.5 44t-45.5 108zM666 1311q0 64 45 107.5t110 43.5t110.5 -43.5t45.5 -107.5t-45.5 -108t-110.5 -44t-110 44t-45 108zM1110 0h-188v158h-29q-23 -39 -50 -69t-67.5 -58.5
t-98 -44t-128.5 -15.5q-200 0 -335.5 150t-135.5 381t135.5 382.5t335.5 151.5q71 0 128.5 -16t98 -45t67.5 -59.5t50 -69.5h29v158h188v-1004zM598 143q148 0 234 96.5t86 262.5t-86.5 264t-233.5 98t-237.5 -96.5t-90.5 -265.5t90 -264t238 -95z" />
    <glyph glyph-name="agrave.ss01" horiz-adv-x="1253" 
d="M633 1434l125 -267h-176l-172 267h223zM1110 0h-188v158h-29q-23 -39 -50 -69t-67.5 -58.5t-98 -44t-128.5 -15.5q-200 0 -335.5 150t-135.5 381t135.5 382.5t335.5 151.5q71 0 128.5 -16t98 -45t67.5 -59.5t50 -69.5h29v158h188v-1004zM598 143q148 0 234 96.5t86 262.5
t-86.5 264t-233.5 98t-237.5 -96.5t-90.5 -265.5t90 -264t238 -95z" />
    <glyph glyph-name="amacron.ss01" horiz-adv-x="1253" 
d="M920 1327v-160h-586v160h586zM1110 0h-188v158h-29q-23 -39 -50 -69t-67.5 -58.5t-98 -44t-128.5 -15.5q-200 0 -335.5 150t-135.5 381t135.5 382.5t335.5 151.5q71 0 128.5 -16t98 -45t67.5 -59.5t50 -69.5h29v158h188v-1004zM598 143q148 0 234 96.5t86 262.5
t-86.5 264t-233.5 98t-237.5 -96.5t-90.5 -265.5t90 -264t238 -95z" />
    <glyph glyph-name="aogonek.ss01" horiz-adv-x="1253" 
d="M1108 -193h90v-147h-131q-66 0 -114 40.5t-48 111.5q0 19 6 49l31 139h-20v158h-29q-23 -39 -50 -69t-67.5 -58.5t-98 -44t-128.5 -15.5q-200 0 -335.5 150t-135.5 381t135.5 382.5t335.5 151.5q71 0 128.5 -16t98 -45t67.5 -59.5t50 -69.5h29v158h188v-1004h-16
l-31 -131q-2 -6 -2 -16q0 -46 47 -46zM598 143q148 0 234 96.5t86 262.5t-86.5 264t-233.5 98t-237.5 -96.5t-90.5 -265.5t90 -264t238 -95z" />
    <glyph glyph-name="aring.ss01" horiz-adv-x="1253" 
d="M412 1309q0 91 61.5 149t153.5 58t153.5 -58t61.5 -149t-61.5 -149t-153.5 -58t-153.5 58t-61.5 149zM551 1309q0 -33 21.5 -54.5t54.5 -21.5t54 21.5t21 54.5t-21 54t-54 21t-54.5 -21t-21.5 -54zM1110 0h-188v158h-29q-23 -39 -50 -69t-67.5 -58.5t-98 -44
t-128.5 -15.5q-200 0 -335.5 150t-135.5 381t135.5 382.5t335.5 151.5q71 0 128.5 -16t98 -45t67.5 -59.5t50 -69.5h29v158h188v-1004zM598 143q148 0 234 96.5t86 262.5t-86.5 264t-233.5 98t-237.5 -96.5t-90.5 -265.5t90 -264t238 -95z" />
    <glyph glyph-name="aringacute.ss01" horiz-adv-x="1253" 
d="M627 1102q-92 0 -153.5 58t-61.5 149t61.5 149t153.5 58h6l86 184h223l-158 -246q58 -58 58 -145q0 -91 -61.5 -149t-153.5 -58zM627 1384q-33 0 -54.5 -21t-21.5 -54t21.5 -54.5t54.5 -21.5t54 21.5t21 54.5t-21 54t-54 21zM922 1004h188v-1004h-188v158h-29
q-23 -39 -50 -69t-67.5 -58.5t-98 -44t-128.5 -15.5q-200 0 -335.5 150t-135.5 381t135.5 382.5t335.5 151.5q71 0 128.5 -16t98 -45t67.5 -59.5t50 -69.5h29v158zM598 143q148 0 234 96.5t86 262.5t-86.5 264t-233.5 98t-237.5 -96.5t-90.5 -265.5t90 -264t238 -95z" />
    <glyph glyph-name="atilde.ss01" horiz-adv-x="1253" 
d="M260 1253l96 117q38 47 72.5 70.5t83.5 23.5q56 0 94 -27.5t78 -86.5q15 -23 26.5 -32t30.5 -9q31 0 58 34l78 97l116 -92l-96 -117q-38 -47 -72.5 -70.5t-83.5 -23.5q-56 0 -94 27.5t-78 86.5q-15 23 -26.5 32t-30.5 9q-29 0 -57 -35l-78 -96zM1110 0h-188v158h-29
q-23 -39 -50 -69t-67.5 -58.5t-98 -44t-128.5 -15.5q-200 0 -335.5 150t-135.5 381t135.5 382.5t335.5 151.5q71 0 128.5 -16t98 -45t67.5 -59.5t50 -69.5h29v158h188v-1004zM598 143q148 0 234 96.5t86 262.5t-86.5 264t-233.5 98t-237.5 -96.5t-90.5 -265.5t90 -264
t238 -95z" />
    <glyph glyph-name="g.ss02" horiz-adv-x="1253" 
d="M922 1004h188v-1242q0 -76 -47 -124t-121 -48h-778v168h696q58 0 58 62v362h-25q-111 -186 -344 -186q-200 0 -335.5 146t-135.5 372t135.5 372t335.5 146q233 0 344 -186h29v158zM598 168q148 0 234 92.5t86 253.5t-86 253.5t-234 92.5t-238 -91t-90 -255t90 -255
t238 -91z" />
    <glyph glyph-name="gbreve.ss02" horiz-adv-x="1253" 
d="M625 1155q-108 0 -173 63t-65 168v48h156v-45q0 -35 22 -58.5t60 -23.5t60 23.5t22 58.5v45h155v-48q0 -105 -64.5 -168t-172.5 -63zM922 1004h188v-1242q0 -76 -47 -124t-121 -48h-778v168h696q58 0 58 62v362h-25q-111 -186 -344 -186q-200 0 -335.5 146t-135.5 372
t135.5 372t335.5 146q233 0 344 -186h29v158zM598 168q148 0 234 92.5t86 253.5t-86 253.5t-234 92.5t-238 -91t-90 -255t90 -255t238 -91z" />
    <glyph glyph-name="uni0123.ss02" horiz-adv-x="1253" 
d="M625 1151q-70 0 -115 43t-45 113v204q0 72 47 120t119 48h145v-114h-129q-55 0 -55 -62v-43q16 4 35 4q66 0 111.5 -41.5t45.5 -111.5q0 -72 -45.5 -116t-113.5 -44zM922 1004h188v-1242q0 -76 -47 -124t-121 -48h-778v168h696q58 0 58 62v362h-25q-111 -186 -344 -186
q-200 0 -335.5 146t-135.5 372t135.5 372t335.5 146q233 0 344 -186h29v158zM598 168q148 0 234 92.5t86 253.5t-86 253.5t-234 92.5t-238 -91t-90 -255t90 -255t238 -91z" />
    <glyph glyph-name="gdotaccent.ss02" horiz-adv-x="1253" 
d="M625 1159q-65 0 -110.5 44t-45.5 108t45.5 107.5t110.5 43.5t110 -43.5t45 -107.5t-45 -108t-110 -44zM922 1004h188v-1242q0 -76 -47 -124t-121 -48h-778v168h696q58 0 58 62v362h-25q-111 -186 -344 -186q-200 0 -335.5 146t-135.5 372t135.5 372t335.5 146
q233 0 344 -186h29v158zM598 168q148 0 234 92.5t86 253.5t-86 253.5t-234 92.5t-238 -91t-90 -255t90 -255t238 -91z" />
    <glyph glyph-name="v.ss03" horiz-adv-x="1105" 
d="M45 1004h209l287 -932h24l287 932h209l-326 -1004h-364z" />
    <glyph glyph-name="w.ss03" horiz-adv-x="1544" 
d="M66 1004h200l137 -932h29l156 932h368l156 -932h29l137 932h201l-160 -1004h-377l-156 932h-28l-160 -932h-373z" />
    <glyph glyph-name="wacute.ss03" horiz-adv-x="1544" 
d="M766 1434h223l-172 -267h-176zM66 1004h200l137 -932h29l156 932h368l156 -932h29l137 932h201l-160 -1004h-377l-156 932h-28l-160 -932h-373z" />
    <glyph glyph-name="wcircumflex.ss03" horiz-adv-x="1544" 
d="M885 1167l-101 146h-24l-101 -146h-204l192 267h250l193 -267h-205zM66 1004h200l137 -932h29l156 932h368l156 -932h29l137 932h201l-160 -1004h-377l-156 932h-28l-160 -932h-373z" />
    <glyph glyph-name="wdieresis.ss03" horiz-adv-x="1544" 
d="M422 1311q0 64 45.5 107.5t110.5 43.5t110 -43.5t45 -107.5t-45 -108t-110 -44t-110.5 44t-45.5 108zM811 1311q0 64 45.5 107.5t110.5 43.5t110 -43.5t45 -107.5t-45 -108t-110 -44t-110.5 44t-45.5 108zM66 1004h200l137 -932h29l156 932h368l156 -932h29l137 932h201
l-160 -1004h-377l-156 932h-28l-160 -932h-373z" />
    <glyph glyph-name="wgrave.ss03" horiz-adv-x="1544" 
d="M778 1434l125 -267h-176l-172 267h223zM66 1004h200l137 -932h29l156 932h368l156 -932h29l137 932h201l-160 -1004h-377l-156 932h-28l-160 -932h-373z" />
    <glyph glyph-name="y.ss03" horiz-adv-x="1142" 
d="M889 1004h209l-480 -1414h-208l143 410h-168l-340 1004h209l305 -932h25z" />
    <glyph glyph-name="yacute.ss03" horiz-adv-x="1142" 
d="M795 1434l-172 -267h-177l125 267h224zM889 1004h209l-480 -1414h-208l143 410h-168l-340 1004h209l305 -932h25z" />
    <glyph glyph-name="ycircumflex.ss03" horiz-adv-x="1142" 
d="M565 1313l-100 -146h-205l193 267h249l193 -267h-205l-100 146h-25zM889 1004h209l-480 -1414h-208l143 410h-168l-340 1004h209l305 -932h25z" />
    <glyph glyph-name="ydieresis.ss03" horiz-adv-x="1142" 
d="M383 1159q-65 0 -110.5 44t-45.5 108t45.5 107.5t110.5 43.5t110.5 -43.5t45.5 -107.5t-45.5 -108t-110.5 -44zM772 1159q-65 0 -110.5 44t-45.5 108t45.5 107.5t110.5 43.5t110.5 -43.5t45.5 -107.5t-45.5 -108t-110.5 -44zM889 1004h209l-480 -1414h-208l143 410h-168
l-340 1004h209l305 -932h25z" />
    <glyph glyph-name="ygrave.ss03" horiz-adv-x="1142" 
d="M709 1167h-177l-172 267h224zM889 1004h209l-480 -1414h-208l143 410h-168l-340 1004h209l305 -932h25z" />
    <glyph glyph-name="zero.lf" 
d="M98 877q0 275 143.5 430t393.5 155q246 0 391 -155.5t145 -429.5v-320q0 -276 -143 -431t-393 -155t-393.5 155t-143.5 431v320zM303 881v-328q0 -192 83.5 -292.5t248.5 -100.5t248.5 100.5t83.5 292.5v328q0 192 -83.5 292.5t-248.5 100.5t-248.5 -100.5t-83.5 -292.5z
" />
    <glyph glyph-name="one.lf" horiz-adv-x="876" 
d="M410 1434h319v-1434h-205v1243h-24l-267 -436h-225z" />
    <glyph glyph-name="two.lf" horiz-adv-x="1191" 
d="M94 975q0 221 145.5 354t381.5 133q214 0 351.5 -128t137.5 -335q0 -90 -27 -163.5t-69.5 -123.5t-112 -94t-135.5 -72t-160 -59q-69 -23 -109.5 -39.5t-82.5 -40t-63 -49.5t-34.5 -63t-13.5 -86v-21h787v-188h-996v184q0 98 29 173t88 129.5t132 92t177 72.5
q79 26 132.5 48t105 52.5t81.5 65.5t48 83t18 108q0 124 -80 195t-204 71q-154 0 -238 -80.5t-84 -230.5v-45h-205v57z" />
    <glyph glyph-name="three.lf" horiz-adv-x="1200" 
d="M121 1434h969v-183l-422 -368v-25h53q167 0 280 -116t113 -302q0 -136 -69 -244t-185.5 -166.5t-257.5 -58.5q-234 0 -385 134.5t-151 345.5v96h204v-84q0 -138 88.5 -220.5t239.5 -82.5q141 0 226 79t85 205q0 118 -79 188t-197 70h-223v189l397 354h-686v189z" />
    <glyph glyph-name="four.lf" horiz-adv-x="1228" 
d="M618 1434h349v-967h241v-188h-241v-279h-205v279h-713v180zM737 1272l-461 -805h486v805h-25z" />
    <glyph glyph-name="five.lf" horiz-adv-x="1216" 
d="M143 1434h955v-189h-752v-454h25q50 83 128.5 129.5t209.5 46.5q187 0 310.5 -132t123.5 -343q0 -226 -145.5 -373.5t-376.5 -147.5q-239 0 -387 139t-148 373v25h205v-21q0 -150 86.5 -238.5t243.5 -88.5q149 0 233 90t84 242q0 136 -73.5 213t-194.5 77
q-150 0 -215 -118h-312v770z" />
    <glyph glyph-name="six.lf" horiz-adv-x="1191" 
d="M1122 467q0 -145 -67 -258.5t-184.5 -175.5t-264.5 -62q-219 0 -363.5 137.5t-144.5 356.5v502q0 219 145.5 357t370.5 138q221 0 354.5 -120t133.5 -326h-205q0 121 -70.5 189.5t-212.5 68.5q-144 0 -227.5 -84t-83.5 -221v-193h25q111 176 344 176q90 0 171.5 -35
t143.5 -96.5t98.5 -153.5t36.5 -200zM606 772q-134 0 -218.5 -84.5t-84.5 -220.5t84.5 -221.5t218.5 -85.5q139 0 225.5 85t86.5 222q0 136 -86 220.5t-226 84.5z" />
    <glyph glyph-name="seven.lf" horiz-adv-x="1101" 
d="M41 1434h1016v-181l-559 -1253h-222l555 1245h-790v189z" />
    <glyph glyph-name="eight.lf" horiz-adv-x="1220" 
d="M111 1077q0 173 136.5 279t362.5 106t363 -106t137 -279q0 -71 -23 -128.5t-62 -94t-76.5 -58.5t-80.5 -36v-25q44 -12 87 -37.5t85.5 -66.5t68.5 -104.5t26 -139.5q0 -184 -147 -300t-378 -116t-377.5 116t-146.5 300q0 76 26 139.5t68 104.5t85 66.5t87 37.5v25
q-43 14 -80 36t-76 58.5t-62 94t-23 128.5zM315 1057q0 -99 79.5 -158t215.5 -59t215.5 59t79.5 158t-79.5 158t-215.5 59t-215.5 -59t-79.5 -158zM291 406q0 -114 86 -180t233 -66t233.5 66t86.5 180t-86.5 179.5t-233.5 65.5t-233 -65.5t-86 -179.5z" />
    <glyph glyph-name="nine.lf" horiz-adv-x="1191" 
d="M70 967q0 219 145.5 357t370.5 138q219 0 363.5 -137t144.5 -356v-502q0 -219 -145.5 -357.5t-370.5 -138.5q-221 0 -354.5 120.5t-133.5 326.5h205q0 -121 70.5 -189.5t212.5 -68.5q144 0 227.5 84t83.5 221v192h-25q-111 -176 -344 -176q-90 0 -171.5 35t-143.5 97
t-98.5 154t-36.5 200zM586 662q134 0 218.5 84.5t84.5 220.5t-84.5 221.5t-218.5 85.5q-139 0 -225.5 -85t-86.5 -222q0 -136 86 -220.5t226 -84.5z" />
    <glyph glyph-name="one.lf.ss03" horiz-adv-x="876" 
d="M340 1434h389v-1434h-205v1341h-24l-267 -534h-225z" />
    <glyph glyph-name="zero.lf.zero" 
d="M635 1462q246 0 391 -155.5t145 -429.5v-320q0 -276 -143 -431t-393 -155t-393.5 155t-143.5 431v320q0 275 143.5 430t393.5 155zM635 1274q-165 0 -248.5 -100.5t-83.5 -292.5v-287l641 461q-63 219 -309 219zM635 160q165 0 248.5 100.5t83.5 292.5v287l-641 -461
q63 -219 309 -219z" />
    <glyph glyph-name="zero.osf" horiz-adv-x="1204" 
d="M78 508q0 229 151 382.5t373 153.5t373 -153.5t151 -382.5t-151 -383t-373 -154t-373 154t-151 383zM283 508q0 -154 88.5 -251t230.5 -97q146 0 233 96.5t87 251.5q0 154 -89 251t-231 97t-230.5 -97t-88.5 -251z" />
    <glyph glyph-name="one.osf" horiz-adv-x="806" 
d="M305 1004h359v-1004h-205v858h-25l-196 -301h-213v16z" />
    <glyph glyph-name="two.osf" horiz-adv-x="1126" 
d="M57 725q118 156 256.5 231.5t319.5 75.5q193 0 310.5 -89t117.5 -241q0 -161 -123 -238t-377 -108q-154 -20 -216 -57.5t-71 -110.5h775v-188h-983v78q0 108 27 185t88.5 130.5t149.5 87.5t220 58q171 32 238 65t67 103q0 68 -63.5 104.5t-167.5 36.5
q-116 0 -211.5 -50.5t-186.5 -162.5z" />
    <glyph glyph-name="three.osf" horiz-adv-x="1142" 
d="M233 53q6 -147 93 -229t235 -82q141 0 226 79.5t85 205.5q0 118 -79 188t-197 70h-223v180l397 350h-686v189h969v-183l-414 -356v-25h45q167 0 280 -114.5t113 -302.5q0 -138 -69 -246t-185.5 -165.5t-257.5 -57.5q-230 0 -373 123.5t-163 342.5z" />
    <glyph glyph-name="four.osf" horiz-adv-x="1257" 
d="M608 1004h359v-816h282v-188h-282v-410h-205v410h-725v180zM737 854l-469 -666h494v666h-25z" />
    <glyph glyph-name="five.osf" horiz-adv-x="1175" 
d="M266 49q9 -138 95 -218.5t235 -80.5t233 90t84 242q0 136 -73.5 213.5t-194.5 77.5q-149 0 -215 -119h-311v750h954v-189h-751v-434h24q50 83 128.5 129.5t209.5 46.5q187 0 310.5 -132t123.5 -343q0 -226 -145.5 -373t-376.5 -147q-227 0 -373.5 127t-159.5 342z" />
    <glyph glyph-name="six.osf" horiz-adv-x="1187" 
d="M891 1063l201 31q-25 172 -156 270t-330 98q-226 0 -373 -138.5t-147 -356.5v-502q0 -219 144.5 -356.5t363.5 -137.5q147 0 264.5 62t184.5 175.5t67 258.5q0 108 -36.5 200t-98.5 153.5t-144 96.5t-172 35q-233 0 -344 -176h-24v193q0 137 85 221t230 84
q127 0 199 -55.5t86 -155.5zM594 772q139 0 225 -84t86 -221t-86 -222t-225 -85q-134 0 -218.5 85.5t-84.5 221.5t84.5 220.5t218.5 84.5z" />
    <glyph glyph-name="seven.osf" horiz-adv-x="1105" 
d="M45 1004h1016v-181l-559 -1233h-221l555 1225h-791v189z" />
    <glyph glyph-name="eight.osf" horiz-adv-x="1220" 
d="M111 1077q0 173 136.5 279t362.5 106t363 -106t137 -279q0 -71 -23 -128.5t-62 -94t-76.5 -58.5t-80.5 -36v-25q44 -12 87 -37.5t85.5 -66.5t68.5 -104.5t26 -139.5q0 -184 -147 -300t-378 -116t-377.5 116t-146.5 300q0 76 26 139.5t68 104.5t85 66.5t87 37.5v25
q-43 14 -80 36t-76 58.5t-62 94t-23 128.5zM315 1057q0 -99 79.5 -158t215.5 -59t215.5 59t79.5 158t-79.5 158t-215.5 59t-215.5 -59t-79.5 -158zM291 406q0 -114 86 -180t233 -66t233.5 66t86.5 180t-86.5 179.5t-233.5 65.5t-233 -65.5t-86 -179.5z" />
    <glyph glyph-name="nine.osf" horiz-adv-x="1204" 
d="M309 -33q11 -103 81.5 -160t199.5 -57q144 0 227.5 84t83.5 221v172h-24q-111 -176 -345 -176q-90 0 -171.5 35t-143.5 97t-98.5 154t-36.5 200q0 219 145.5 357t370.5 138q219 0 363.5 -137t144.5 -356v-482q0 -219 -145.5 -357t-370.5 -138q-203 0 -332.5 102
t-151.5 281zM598 231q134 0 218.5 85t84.5 221t-84.5 221.5t-218.5 85.5q-139 0 -225 -85t-86 -222t86 -221.5t225 -84.5z" />
    <glyph glyph-name="one.osf.ss03" horiz-adv-x="806" 
d="M276 1004h388v-1004h-205v911h-25l-196 -354h-213z" />
    <glyph glyph-name="zero.osf.zero" horiz-adv-x="1204" 
d="M602 1032q146 0 266 -68.5t189 -190t69 -271.5q0 -112 -40.5 -211t-110.5 -169t-167 -110.5t-206 -40.5t-206 40.5t-167 110.5t-110.5 169t-40.5 211q0 150 69 271.5t189 190t266 68.5zM602 844q-142 0 -230.5 -95t-88.5 -247q0 -54 12 -103l520 367q-84 78 -213 78z
M602 160q146 0 233 94t87 248q0 48 -13 102l-520 -366q84 -78 213 -78z" />
    <glyph glyph-name="one.ss03" horiz-adv-x="876" 
d="M340 1434h389v-1434h-205v1341h-24l-267 -534h-225z" />
    <glyph glyph-name="zero.tf" 
d="M115 877q0 276 138 430.5t382 154.5q239 0 379.5 -155.5t140.5 -429.5v-320q0 -276 -138 -431t-382 -155t-382 155t-138 431v320zM319 881v-328q0 -193 79 -293t237 -100q315 0 315 393v328q0 393 -315 393q-158 0 -237 -100t-79 -293z" />
    <glyph glyph-name="one.tf" 
d="M801 188h348v-188h-1008v188h455v1055h-25l-184 -436h-221l291 627h344v-1246z" />
    <glyph glyph-name="two.tf" 
d="M135 975q0 221 145.5 354t381.5 133q214 0 351.5 -128t137.5 -335q0 -90 -27 -163.5t-69.5 -123.5t-112 -94t-135.5 -72t-160 -59q-69 -23 -109.5 -39.5t-82.5 -40t-63 -49.5t-34.5 -63t-13.5 -86v-21h786v-188h-995v184q0 98 29 173t88 129.5t132 92t177 72.5
q79 26 132.5 48t105 52.5t81.5 65.5t48 83t18 108q0 124 -80 195t-204 71q-154 0 -238 -80.5t-84 -230.5v-45h-205v57z" />
    <glyph glyph-name="three.tf" 
d="M154 1434h968v-183l-422 -368v-25h54q167 0 280 -116t113 -302q0 -136 -69 -244t-185.5 -166.5t-257.5 -58.5q-234 0 -385.5 134.5t-151.5 345.5v96h205v-84q0 -138 88.5 -220.5t239.5 -82.5q141 0 226 79t85 205q0 118 -79 188t-197 70h-224v189l398 354h-686v189z" />
    <glyph glyph-name="four.tf" 
d="M655 1434h349v-967h241v-188h-241v-279h-205v279h-680v180zM774 1272l-432 -805h457v805h-25z" />
    <glyph glyph-name="five.tf" 
d="M164 1434h954v-189h-751v-454h24q50 83 128.5 129.5t209.5 46.5q187 0 310.5 -132t123.5 -343q0 -226 -145.5 -373.5t-376.5 -147.5q-239 0 -387 139t-148 373v25h205v-21q0 -150 86.5 -238.5t243.5 -88.5q149 0 233 90t84 242q0 136 -73.5 213t-194.5 77
q-150 0 -215 -118h-311v770z" />
    <glyph glyph-name="six.tf" 
d="M1159 467q0 -145 -67 -258.5t-184.5 -175.5t-264.5 -62q-219 0 -363.5 137.5t-144.5 356.5v502q0 219 145.5 357t370.5 138q221 0 354.5 -120t133.5 -326h-205q0 121 -70.5 189.5t-212.5 68.5q-144 0 -227.5 -84t-83.5 -221v-193h25q111 176 344 176q90 0 171.5 -35
t143.5 -96.5t98.5 -153.5t36.5 -200zM643 772q-134 0 -218.5 -84.5t-84.5 -220.5t84.5 -221.5t218.5 -85.5q139 0 225 85t86 222t-86 221t-225 84z" />
    <glyph glyph-name="seven.tf" 
d="M86 1434h1090v-181l-596 -1253h-226l592 1245h-860v189z" />
    <glyph glyph-name="eight.tf" 
d="M135 1077q0 173 137 279t363 106t363 -106t137 -279q0 -71 -23 -128.5t-62 -94t-76.5 -58.5t-80.5 -36v-25q44 -12 87 -37.5t85 -66.5t68 -104.5t26 -139.5q0 -184 -146.5 -300t-377.5 -116t-377.5 116t-146.5 300q0 76 26 139.5t68 104.5t85 66.5t87 37.5v25
q-43 14 -80.5 36t-76.5 58.5t-62 94t-23 128.5zM340 1057q0 -99 79.5 -158t215.5 -59t215.5 59t79.5 158t-79.5 158t-215.5 59t-215.5 -59t-79.5 -158zM315 406q0 -114 86.5 -180t233.5 -66t233 66t86 180t-86 179.5t-233 65.5t-233.5 -65.5t-86.5 -179.5z" />
    <glyph glyph-name="nine.tf" 
d="M111 967q0 219 145.5 357t370.5 138q219 0 363.5 -137t144.5 -356v-502q0 -219 -146 -357.5t-371 -138.5q-221 0 -354 120.5t-133 326.5h205q0 -121 70 -189.5t212 -68.5q144 0 228 84t84 221v192h-25q-111 -176 -344 -176q-90 0 -171.5 35t-143.5 97t-98.5 154
t-36.5 200zM627 662q134 0 218.5 84.5t84.5 220.5t-84.5 221.5t-218.5 85.5q-139 0 -225.5 -85t-86.5 -222q0 -136 86 -220.5t226 -84.5z" />
    <glyph glyph-name="one.tf.ss03" 
d="M801 188h348v-188h-1008v188h455v1153h-25l-184 -534h-221l246 627h389v-1246z" />
    <glyph glyph-name="zero.tf.zero" 
d="M635 1462q239 0 379.5 -155.5t140.5 -429.5v-320q0 -276 -138 -431t-382 -155t-382 155t-138 431v320q0 276 138 430.5t382 154.5zM635 1274q-158 0 -237 -100t-79 -293v-275l613 438q-57 230 -297 230zM635 160q315 0 315 393v274l-612 -438q56 -229 297 -229z" />
    <glyph glyph-name="zero.tosf" 
d="M111 518q0 228 150.5 377t373.5 149t373.5 -149t150.5 -377v-20q0 -228 -150.5 -377.5t-373.5 -149.5t-373.5 149.5t-150.5 377.5v20zM315 522v-28q0 -153 88 -243.5t232 -90.5q148 0 233.5 90t85.5 244v28q0 153 -87.5 243.5t-231.5 90.5t-232 -90.5t-88 -243.5z" />
    <glyph glyph-name="one.tosf" 
d="M489 1004h334v-816h369v-188h-1057v188h483v637h-28l-156 -268h-205v16z" />
    <glyph glyph-name="two.tosf" 
d="M123 725q118 156 256 231.5t319 75.5q193 0 310.5 -89t117.5 -241q0 -84 -32.5 -144t-100 -99.5t-154.5 -63.5t-212 -39q-154 -20 -216 -57.5t-71 -110.5h774v-188h-983v78q0 108 27 185t88.5 130.5t149.5 87.5t220 58q171 32 238.5 65.5t67.5 102.5q0 68 -64 104.5
t-168 36.5q-116 0 -211 -50t-186 -163z" />
    <glyph glyph-name="three.tosf" 
d="M291 53q6 -147 92.5 -229t234.5 -82q141 0 226.5 79.5t85.5 205.5q0 118 -79.5 188t-197.5 70h-223v180l397 350h-686v189h969v-183l-414 -356v-25h45q167 0 280.5 -115t113.5 -302q0 -138 -69 -246t-185.5 -165.5t-257.5 -57.5q-230 0 -373.5 123.5t-163.5 342.5z" />
    <glyph glyph-name="four.tosf" 
d="M645 1004h359v-816h241v-188h-241v-410h-205v410h-746v180zM774 854l-489 -666h514v666h-25z" />
    <glyph glyph-name="five.tosf" 
d="M319 49q9 -138 95 -218.5t235 -80.5t233.5 90t84.5 242q0 136 -74 213.5t-195 77.5q-149 0 -215 -119h-311v750h954v-189h-751v-434h24q50 83 128.5 129.5t209.5 46.5q187 0 310.5 -132t123.5 -343q0 -226 -145.5 -373t-376.5 -147q-227 0 -373 127t-159 342z" />
    <glyph glyph-name="six.tosf" 
d="M936 1063l201 31q-25 172 -156 270t-330 98q-226 0 -373 -138.5t-147 -356.5v-502q0 -219 144.5 -356.5t363.5 -137.5q147 0 264.5 62t184.5 175.5t67 258.5q0 108 -36.5 200t-98.5 153.5t-143.5 96.5t-171.5 35q-234 0 -345 -176h-24v193q0 137 85 221t230 84
q127 0 199 -55.5t86 -155.5zM639 772q139 0 225 -84t86 -221t-86 -222t-225 -85q-134 0 -218.5 85.5t-84.5 221.5t84.5 220.5t218.5 84.5z" />
    <glyph glyph-name="seven.tosf" 
d="M74 1004h1089v-181l-596 -1233h-225l592 1225h-860v189z" />
    <glyph glyph-name="eight.tosf" 
d="M135 1077q0 173 137 279t363 106t363 -106t137 -279q0 -71 -23 -128.5t-62 -94t-76.5 -58.5t-80.5 -36v-25q44 -12 87 -37.5t85 -66.5t68 -104.5t26 -139.5q0 -184 -146.5 -300t-377.5 -116t-377.5 116t-146.5 300q0 76 26 139.5t68 104.5t85 66.5t87 37.5v25
q-43 14 -80.5 36t-76.5 58.5t-62 94t-23 128.5zM340 1057q0 -99 79.5 -158t215.5 -59t215.5 59t79.5 158t-79.5 158t-215.5 59t-215.5 -59t-79.5 -158zM315 406q0 -114 86.5 -180t233.5 -66t233 66t86 180t-86 179.5t-233 65.5t-233.5 -65.5t-86.5 -179.5z" />
    <glyph glyph-name="nine.tosf" 
d="M342 -33q11 -103 81.5 -160t199.5 -57q144 0 227.5 84t83.5 221v185h-25q-111 -177 -344 -177q-90 0 -171.5 35t-143.5 97t-98.5 154t-36.5 200q0 219 145.5 357t370.5 138q219 0 363.5 -137t144.5 -356v-494q0 -219 -145.5 -357t-370.5 -138q-203 0 -332.5 102
t-151.5 281zM631 244q134 0 218.5 84.5t84.5 220.5t-84.5 221.5t-218.5 85.5q-139 0 -225.5 -85t-86.5 -222q0 -136 86 -220.5t226 -84.5z" />
    <glyph glyph-name="one.tosf.ss03" 
d="M440 1004h383v-816h369v-188h-1057v188h483v723h-24l-160 -354h-205z" />
    <glyph glyph-name="zero.tosf.zero" 
d="M635 1032q146 0 266 -68.5t189 -190t69 -271.5q0 -112 -40.5 -211t-110.5 -169t-167 -110.5t-206 -40.5t-206 40.5t-167 110.5t-110.5 169t-40.5 211q0 150 69 271.5t189 190t266 68.5zM635 844q-142 0 -231 -95t-89 -247q0 -49 13 -103l520 367q-84 78 -213 78zM635 160
q146 0 232.5 94t86.5 248q0 52 -12 102l-520 -366q84 -78 213 -78z" />
    <glyph glyph-name="zero.zero" 
d="M635 1462q246 0 391 -155.5t145 -429.5v-320q0 -276 -143 -431t-393 -155t-393.5 155t-143.5 431v320q0 275 143.5 430t393.5 155zM635 1274q-165 0 -248.5 -100.5t-83.5 -292.5v-287l641 461q-63 219 -309 219zM635 160q165 0 248.5 100.5t83.5 292.5v287l-641 -461
q63 -219 309 -219z" />
    <glyph glyph-name="zero.subs" horiz-adv-x="753" 
d="M49 8q0 153 86.5 240.5t241.5 87.5q151 0 239.5 -88t88.5 -240v-121q0 -153 -86.5 -239t-241.5 -86t-241.5 86t-86.5 239v121zM213 18v-139q0 -81 42 -127.5t122 -46.5t122 46.5t42 127.5v139q0 81 -42 128t-122 47t-122 -47t-42 -128z" />
    <glyph glyph-name="one.subs" horiz-adv-x="536" 
d="M215 307h227v-717h-163v537h-21l-84 -139h-158v20z" />
    <glyph glyph-name="two.subs" horiz-adv-x="720" 
d="M371 336q139 0 224 -66t85 -182q0 -111 -70 -168.5t-209 -87.5q-94 -20 -131.5 -42.5t-40.5 -59.5h447v-140h-631v91q0 119 67 181t205 91q105 22 152 53.5t47 83.5q0 48 -40 75.5t-105 27.5q-75 0 -118 -38t-44 -108h-164q3 132 94 210.5t232 78.5z" />
    <glyph glyph-name="three.subs" horiz-adv-x="704" 
d="M45 307h619v-110l-222 -150v-20q106 -6 164 -58t58 -151q0 -112 -91 -184t-223 -72q-144 0 -232.5 75.5t-88.5 204.5h164q0 -67 42 -102t113 -35q68 0 110 32.5t42 84.5q0 104 -152 104h-127v107l193 135h-369v139z" />
    <glyph glyph-name="four.subs" horiz-adv-x="755" 
d="M334 307h272v-424h133v-139h-133v-154h-164v154h-409v127zM424 184l-209 -301h227v301h-18z" />
    <glyph glyph-name="five.subs" horiz-adv-x="724" 
d="M70 307h594v-139h-435v-150h21q2 1 12.5 9t14.5 10.5t16 9.5t19.5 10t21.5 8t26.5 7t29.5 4t36 2q109 0 183.5 -65.5t74.5 -174.5v-14q0 -112 -86.5 -187t-228.5 -75q-137 0 -225 75t-99 197h168q0 -54 44.5 -91.5t111.5 -37.5t109 34.5t42 90.5q0 55 -37 86t-92 31
q-63 0 -127 -39h-194v399z" />
    <glyph glyph-name="six.subs" horiz-adv-x="724" 
d="M49 61q0 121 91.5 198t230.5 77q135 0 222 -64.5t87 -169.5h-164q0 41 -39 68t-106 27q-73 0 -115.5 -37.5t-42.5 -98.5v-67h20q1 1 7 6.5t8.5 7.5l10 8t13 9.5t15.5 9t18.5 8.5t21 7t25 6t28 3.5t32.5 1.5q112 0 192 -65.5t80 -173.5q0 -117 -88.5 -188.5t-228.5 -71.5
q-139 0 -228.5 71t-89.5 185v243zM213 -180q0 -52 41.5 -85.5t112.5 -33.5t112 33.5t41 85.5t-41 83t-112 31t-112.5 -31t-41.5 -83z" />
    <glyph glyph-name="seven.subs" horiz-adv-x="634" 
d="M12 307h611v-131l-293 -586h-172l286 578h-432v139z" />
    <glyph glyph-name="eight.subs" horiz-adv-x="737" 
d="M53 139q0 88 88 142.5t228 54.5t227.5 -54.5t87.5 -142.5v-6q0 -68 -39.5 -108.5t-89.5 -53.5v-20q55 -13 98 -55.5t43 -116.5v-4q0 -92 -88.5 -152.5t-238.5 -60.5t-239 60.5t-89 152.5v4q0 74 43.5 116.5t99.5 55.5v20q-51 13 -91 53.5t-40 108.5v6zM217 115
q0 -39 41 -62.5t111 -23.5t110.5 23.5t40.5 62.5q0 38 -40.5 60t-110.5 22q-71 0 -111.5 -22t-40.5 -60zM205 -205q0 -45 43.5 -69.5t120.5 -24.5t120 24.5t43 69.5t-43 69.5t-120 24.5t-120.5 -24.5t-43.5 -69.5z" />
    <glyph glyph-name="nine.subs" horiz-adv-x="724" 
d="M676 -164q0 -121 -89 -197.5t-225 -76.5q-129 0 -214.5 59t-102.5 164h170q26 -84 143 -84q71 0 112.5 37t41.5 98v68h-20l-7 -6q-7 -7 -10.5 -10t-12 -9.5t-15.5 -10.5t-18.5 -9.5t-23 -9t-25.5 -7t-31 -5t-36 -1.5q-112 0 -192 66t-80 174q0 117 88.5 188.5t228.5 71.5
q139 0 228.5 -71t89.5 -185v-244zM512 78q0 52 -41.5 85.5t-112.5 33.5q-70 0 -111.5 -33.5t-41.5 -85.5t41 -83.5t112 -31.5t112.5 31.5t41.5 83.5z" />
    <glyph glyph-name="zero.dnom" horiz-adv-x="753" 
d="M49 418q0 153 86.5 240t241.5 87q151 0 239.5 -87.5t88.5 -239.5v-121q0 -153 -86.5 -239.5t-241.5 -86.5t-241.5 86.5t-86.5 239.5v121zM213 428v-139q0 -81 42 -127.5t122 -46.5t122 46.5t42 127.5v139q0 81 -42 127.5t-122 46.5t-122 -46.5t-42 -127.5z" />
    <glyph glyph-name="one.dnom" horiz-adv-x="536" 
d="M215 717h227v-717h-163v537h-21l-84 -140h-158v21z" />
    <glyph glyph-name="two.dnom" horiz-adv-x="720" 
d="M371 745q139 0 224 -65.5t85 -181.5q0 -111 -70 -168.5t-209 -87.5q-94 -20 -131.5 -43t-40.5 -60h447v-139h-631v90q0 119 67 181t205 91q104 22 151.5 53.5t47.5 84.5q0 48 -40 75t-105 27q-76 0 -118.5 -37.5t-43.5 -107.5h-164q3 132 93.5 210t232.5 78z" />
    <glyph glyph-name="three.dnom" horiz-adv-x="704" 
d="M45 717h619v-111l-222 -149v-21q106 -6 164 -58t58 -151q0 -112 -91 -184t-223 -72q-144 0 -232.5 76t-88.5 205h164q0 -67 42 -102t113 -35q68 0 110 32.5t42 83.5q0 105 -152 105h-127v106l193 136h-369v139z" />
    <glyph glyph-name="four.dnom" horiz-adv-x="755" 
d="M334 717h272v-424h133v-139h-133v-154h-164v154h-409v127zM424 594l-209 -301h227v301h-18z" />
    <glyph glyph-name="five.dnom" horiz-adv-x="724" 
d="M70 717h594v-139h-435v-150h21q2 1 11 8t13 9t13.5 8t16 9t17.5 8t21.5 7t23.5 5t28 4t32 1q110 0 184 -65t74 -174v-15q0 -112 -86.5 -187t-228.5 -75q-137 0 -225 75.5t-99 197.5h168q0 -54 44.5 -91.5t111.5 -37.5t109 34.5t42 90.5q0 55 -37 85.5t-92 30.5
q-63 0 -127 -39h-194v400z" />
    <glyph glyph-name="six.dnom" horiz-adv-x="724" 
d="M49 471q0 121 91.5 197.5t230.5 76.5q135 0 222 -64t87 -169h-164q0 41 -39 67.5t-106 26.5q-73 0 -115.5 -37t-42.5 -98v-68h20l7 7l10.5 9t12 9.5t15.5 10.5t18.5 9.5t23 9t25.5 7t31 5t36 1.5q112 0 192 -66t80 -174q0 -117 -88.5 -188.5t-228.5 -71.5
q-139 0 -228.5 71t-89.5 185v244zM213 229q0 -52 41.5 -85t112.5 -33t112 33t41 85t-41 83.5t-112 31.5t-112.5 -31.5t-41.5 -83.5z" />
    <glyph glyph-name="seven.dnom" horiz-adv-x="634" 
d="M12 717h611v-131l-293 -586h-172l286 578h-432v139z" />
    <glyph glyph-name="eight.dnom" horiz-adv-x="737" 
d="M53 549q0 87 88 141.5t228 54.5t227.5 -54t87.5 -142v-6q0 -68 -39.5 -108.5t-89.5 -53.5v-21q55 -13 98 -55.5t43 -116.5v-4q0 -92 -88.5 -152.5t-238.5 -60.5t-239 60.5t-89 152.5v4q0 74 43.5 116.5t99.5 55.5v21q-51 13 -91 53.5t-40 108.5v6zM217 524
q0 -39 41 -62.5t111 -23.5t110.5 23.5t40.5 62.5q0 38 -40.5 60t-110.5 22q-71 0 -111.5 -22t-40.5 -60zM205 205q0 -45 43.5 -69.5t120.5 -24.5t120 24.5t43 69.5t-43 69.5t-120 24.5t-120.5 -24.5t-43.5 -69.5z" />
    <glyph glyph-name="nine.dnom" horiz-adv-x="724" 
d="M676 246q0 -121 -89 -198t-225 -77q-129 0 -214.5 59.5t-102.5 164.5h170q26 -84 143 -84q71 0 112.5 37t41.5 98v67h-20q-1 -1 -7 -6.5t-8.5 -7.5l-10 -8t-13 -9.5t-15.5 -9t-18.5 -8.5t-21 -7t-25 -6t-28 -3.5t-32.5 -1.5q-112 0 -192 65.5t-80 173.5q0 117 88.5 188.5
t228.5 71.5q139 0 228.5 -71t89.5 -185v-243zM512 487q0 52 -41.5 85.5t-112.5 33.5q-70 0 -111.5 -33.5t-41.5 -85.5t41 -83t112 -31t112.5 31t41.5 83z" />
    <glyph glyph-name="zero.numr" horiz-adv-x="753" 
d="M49 1135q0 153 86.5 240t241.5 87q151 0 239.5 -87.5t88.5 -239.5v-121q0 -153 -86.5 -239.5t-241.5 -86.5t-241.5 86.5t-86.5 239.5v121zM213 1145v-139q0 -81 42 -128t122 -47t122 47t42 128v139q0 81 -42 127.5t-122 46.5t-122 -46.5t-42 -127.5z" />
    <glyph glyph-name="one.numr" horiz-adv-x="536" 
d="M215 1434h227v-717h-163v536h-21l-84 -139h-158v21z" />
    <glyph glyph-name="two.numr" horiz-adv-x="720" 
d="M371 1434q139 0 224 -66t85 -182q0 -111 -70 -168.5t-209 -87.5q-94 -20 -131.5 -43t-40.5 -60h447v-139h-631v90q0 119 67 181.5t205 91.5q105 22 152 53.5t47 83.5q0 48 -40 75t-105 27q-76 0 -118.5 -37.5t-43.5 -107.5h-164q3 132 94 210.5t232 78.5z" />
    <glyph glyph-name="three.numr" horiz-adv-x="704" 
d="M45 1434h619v-111l-222 -149v-21q106 -6 164 -58t58 -151q0 -112 -91 -184t-223 -72q-144 0 -232.5 76t-88.5 205h164q0 -67 42 -102.5t113 -35.5q68 0 110 32.5t42 84.5q0 105 -152 105h-127v106l193 135h-369v140z" />
    <glyph glyph-name="four.numr" horiz-adv-x="755" 
d="M334 1434h272v-424h133v-140h-133v-153h-164v153h-409v127zM424 1311l-209 -301h227v301h-18z" />
    <glyph glyph-name="five.numr" horiz-adv-x="724" 
d="M70 1434h594v-140h-435v-149h21q2 1 11 8t13 9t13.5 8t16 9t17.5 8t21.5 7t23.5 5t28 4t32 1q110 0 184 -65t74 -174v-15q0 -112 -86.5 -187t-228.5 -75q-137 0 -225 75.5t-99 197.5h168q0 -55 44.5 -92.5t111.5 -37.5t109 34.5t42 90.5q0 55 -37 86t-92 31
q-63 0 -127 -39h-194v400z" />
    <glyph glyph-name="six.numr" horiz-adv-x="724" 
d="M49 1188q0 121 91.5 197.5t230.5 76.5q135 0 222 -64t87 -169h-164q0 41 -39 67.5t-106 26.5q-73 0 -115.5 -37t-42.5 -98v-68h20l7 6q7 7 10.5 10t12 9.5t15.5 10.5t18.5 9.5t23 9t25.5 7t31 5t36 1.5q112 0 192 -66t80 -174q0 -117 -88.5 -188.5t-228.5 -71.5
q-139 0 -228.5 71t-89.5 185v244zM213 946q0 -52 41.5 -85.5t112.5 -33.5t112 33.5t41 85.5t-41 83.5t-112 31.5t-112.5 -31.5t-41.5 -83.5z" />
    <glyph glyph-name="seven.numr" horiz-adv-x="634" 
d="M12 1434h611v-131l-293 -586h-172l286 577h-432v140z" />
    <glyph glyph-name="eight.numr" horiz-adv-x="737" 
d="M53 1266q0 87 88 141.5t228 54.5t227.5 -54t87.5 -142v-6q0 -68 -39.5 -108.5t-89.5 -53.5v-21q55 -13 98 -55.5t43 -116.5v-4q0 -92 -88.5 -152.5t-238.5 -60.5t-239 60.5t-89 152.5v4q0 74 43.5 116.5t99.5 55.5v21q-51 13 -91 53.5t-40 108.5v6zM217 1241
q0 -39 41 -62.5t111 -23.5t110.5 23.5t40.5 62.5q0 38 -40.5 60t-110.5 22q-71 0 -111.5 -22t-40.5 -60zM205 922q0 -45 43.5 -70t120.5 -25t120 25t43 70t-43 69.5t-120 24.5t-120.5 -24.5t-43.5 -69.5z" />
    <glyph glyph-name="nine.numr" horiz-adv-x="778" 
d="M680 963q0 -121 -88.5 -198t-224.5 -77q-129 0 -215 59t-103 164h170q26 -84 143 -84q71 0 112.5 37.5t41.5 98.5v67h-20q-1 -1 -7 -6.5t-8.5 -7.5l-10 -8t-13 -9.5t-15.5 -9t-18.5 -8.5t-21 -7t-25 -6t-28 -3.5t-32.5 -1.5q-112 0 -192 65.5t-80 173.5q0 117 88.5 188.5
t228.5 71.5q139 0 228.5 -71t89.5 -185v-243zM516 1204q0 52 -41.5 85.5t-112.5 33.5q-70 0 -111.5 -33.5t-41.5 -85.5t41 -83t112 -31t112.5 31t41.5 83z" />
    <glyph glyph-name="zero.sups" horiz-adv-x="753" 
d="M49 1135q0 153 86.5 240t241.5 87q151 0 239.5 -87.5t88.5 -239.5v-121q0 -153 -86.5 -239.5t-241.5 -86.5t-241.5 86.5t-86.5 239.5v121zM213 1145v-139q0 -81 42 -128t122 -47t122 47t42 128v139q0 81 -42 127.5t-122 46.5t-122 -46.5t-42 -127.5z" />
    <glyph glyph-name="one.sups" horiz-adv-x="536" 
d="M215 1434h227v-717h-163v536h-21l-84 -139h-158v21z" />
    <glyph glyph-name="two.sups" horiz-adv-x="720" 
d="M371 1434q139 0 224 -66t85 -182q0 -111 -70 -168.5t-209 -87.5q-94 -20 -131.5 -43t-40.5 -60h447v-139h-631v90q0 119 67 181.5t205 91.5q105 22 152 53.5t47 83.5q0 48 -40 75t-105 27q-76 0 -118.5 -37.5t-43.5 -107.5h-164q3 132 94 210.5t232 78.5z" />
    <glyph glyph-name="three.sups" horiz-adv-x="704" 
d="M45 1434h619v-111l-222 -149v-21q106 -6 164 -58t58 -151q0 -112 -91 -184t-223 -72q-144 0 -232.5 76t-88.5 205h164q0 -67 42 -102.5t113 -35.5q68 0 110 32.5t42 84.5q0 105 -152 105h-127v106l193 135h-369v140z" />
    <glyph glyph-name="four.sups" horiz-adv-x="755" 
d="M334 1434h272v-424h133v-140h-133v-153h-164v153h-409v127zM424 1311l-209 -301h227v301h-18z" />
    <glyph glyph-name="five.sups" horiz-adv-x="724" 
d="M70 1434h594v-140h-435v-149h21q2 1 11 8t13 9t13.5 8t16 9t17.5 8t21.5 7t23.5 5t28 4t32 1q110 0 184 -65t74 -174v-15q0 -112 -86.5 -187t-228.5 -75q-137 0 -225 75.5t-99 197.5h168q0 -55 44.5 -92.5t111.5 -37.5t109 34.5t42 90.5q0 55 -37 86t-92 31
q-63 0 -127 -39h-194v400z" />
    <glyph glyph-name="six.sups" horiz-adv-x="724" 
d="M49 1188q0 121 91.5 197.5t230.5 76.5q135 0 222 -64t87 -169h-164q0 41 -39 67.5t-106 26.5q-73 0 -115.5 -37t-42.5 -98v-68h20l7 6q7 7 10.5 10t12 9.5t15.5 10.5t18.5 9.5t23 9t25.5 7t31 5t36 1.5q112 0 192 -66t80 -174q0 -117 -88.5 -188.5t-228.5 -71.5
q-139 0 -228.5 71t-89.5 185v244zM213 946q0 -52 41.5 -85.5t112.5 -33.5t112 33.5t41 85.5t-41 83.5t-112 31.5t-112.5 -31.5t-41.5 -83.5z" />
    <glyph glyph-name="seven.sups" horiz-adv-x="634" 
d="M12 1434h611v-131l-293 -586h-172l286 577h-432v140z" />
    <glyph glyph-name="eight.sups" horiz-adv-x="737" 
d="M53 1266q0 87 88 141.5t228 54.5t227.5 -54t87.5 -142v-6q0 -68 -39.5 -108.5t-89.5 -53.5v-21q55 -13 98 -55.5t43 -116.5v-4q0 -92 -88.5 -152.5t-238.5 -60.5t-239 60.5t-89 152.5v4q0 74 43.5 116.5t99.5 55.5v21q-51 13 -91 53.5t-40 108.5v6zM217 1241
q0 -39 41 -62.5t111 -23.5t110.5 23.5t40.5 62.5q0 38 -40.5 60t-110.5 22q-71 0 -111.5 -22t-40.5 -60zM205 922q0 -45 43.5 -70t120.5 -25t120 25t43 70t-43 69.5t-120 24.5t-120.5 -24.5t-43.5 -69.5z" />
    <glyph glyph-name="nine.sups" horiz-adv-x="778" 
d="M680 963q0 -121 -88.5 -198t-224.5 -77q-129 0 -215 59t-103 164h170q26 -84 143 -84q71 0 112.5 37.5t41.5 98.5v67h-20q-1 -1 -7 -6.5t-8.5 -7.5l-10 -8t-13 -9.5t-15.5 -9t-18.5 -8.5t-21 -7t-25 -6t-28 -3.5t-32.5 -1.5q-112 0 -192 65.5t-80 173.5q0 117 88.5 188.5
t228.5 71.5q139 0 228.5 -71t89.5 -185v-243zM516 1204q0 52 -41.5 85.5t-112.5 33.5q-70 0 -111.5 -33.5t-41.5 -85.5t41 -83t112 -31t112.5 31t41.5 83z" />
    <glyph glyph-name="zero.subs.zero" horiz-adv-x="753" 
d="M377 336q151 0 239.5 -88t88.5 -240v-121q0 -153 -86.5 -239t-241.5 -86t-241.5 86t-86.5 239v121q0 153 86.5 240.5t241.5 87.5zM377 193q-80 0 -122 -47t-42 -128v-104l309 199q-39 80 -145 80zM377 -295q80 0 122 46.5t42 127.5v113l-312 -201q37 -86 148 -86z" />
    <glyph glyph-name="zero.dnom.zero" horiz-adv-x="753" 
d="M377 745q151 0 239.5 -87.5t88.5 -239.5v-121q0 -153 -86.5 -239.5t-241.5 -86.5t-241.5 86.5t-86.5 239.5v121q0 153 86.5 240t241.5 87zM377 602q-80 0 -122 -46.5t-42 -127.5v-104l309 198q-39 80 -145 80zM377 115q80 0 122 46.5t42 127.5v112l-312 -200
q37 -86 148 -86z" />
    <glyph glyph-name="zero.numr.zero" horiz-adv-x="753" 
d="M377 1462q151 0 239.5 -87.5t88.5 -239.5v-121q0 -153 -86.5 -239.5t-241.5 -86.5t-241.5 86.5t-86.5 239.5v121q0 153 86.5 240t241.5 87zM377 1319q-80 0 -122 -46.5t-42 -127.5v-105l309 199q-39 80 -145 80zM377 831q80 0 122 47t42 128v112l-312 -200
q38 -87 148 -87z" />
    <glyph glyph-name="zero.sups.zero" horiz-adv-x="753" 
d="M377 1462q151 0 239.5 -87.5t88.5 -239.5v-121q0 -153 -86.5 -239.5t-241.5 -86.5t-241.5 86.5t-86.5 239.5v121q0 153 86.5 240t241.5 87zM377 1319q-80 0 -122 -46.5t-42 -127.5v-105l309 199q-39 80 -145 80zM377 831q80 0 122 47t42 128v112l-312 -200
q38 -87 148 -87z" />
    <glyph glyph-name="exclamdown.case" horiz-adv-x="524" 
d="M102 1274q0 67 47 113.5t113 46.5t113 -46.5t47 -113.5t-47 -113.5t-113 -46.5t-113 46.5t-47 113.5zM162 -29v1035h200v-1035h-200z" />
    <glyph glyph-name="questiondown.case" horiz-adv-x="1138" 
d="M748 1303q0 -67 -47 -113.5t-113 -46.5t-113 46.5t-47 113.5t47 113t113 46t113 -46t47 -113zM1061 408q0 -199 -139 -318t-363 -119q-214 0 -349.5 114t-135.5 282v16q0 148 73 239t228 162l45 21q37 17 51 40t14 68v107h205v-115q0 -105 -34.5 -163.5t-118.5 -96.5
l-45 -20q-123 -56 -168 -108.5t-45 -141.5q0 -93 77.5 -154t202.5 -61q133 0 215 68.5t82 191.5v67h205v-79z" />
    <glyph glyph-name="slash.case" horiz-adv-x="933" 
d="M631 1509h205l-533 -1593h-205z" />
    <glyph glyph-name="backslash.case" horiz-adv-x="933" 
d="M303 1509l533 -1593h-205l-533 1593h205z" />
    <glyph glyph-name="parenleft.case" horiz-adv-x="843" 
d="M266 242v942q0 122 28.5 218.5t77.5 160t118.5 105t146.5 59.5t166 18v-184q-173 -3 -254.5 -98.5t-81.5 -291.5v-917q0 -196 81.5 -291t254.5 -98v-184q-89 0 -166 18t-146.5 59.5t-118.5 105t-77.5 160t-28.5 218.5z" />
    <glyph glyph-name="parenright.case" horiz-adv-x="843" 
d="M578 242q0 -122 -28.5 -218.5t-77.5 -160t-118.5 -105t-146.5 -59.5t-166 -18v184q173 3 254.5 98t81.5 291v917q0 196 -81.5 291.5t-254.5 98.5v184q89 0 166 -18t146.5 -59.5t118.5 -105t77.5 -160t28.5 -218.5v-942z" />
    <glyph glyph-name="braceleft.case" horiz-adv-x="823" 
d="M164 811h133q55 0 55 59v695q0 77 49 126.5t125 49.5h236v-185h-154q-55 0 -55 -61v-612q0 -77 -43.5 -119.5t-116.5 -42.5h-20v-25h20q73 0 116.5 -42t43.5 -119v-613q0 -61 55 -61h154v-185h-236q-76 0 -125 50t-49 127v694q0 59 -55 59h-133v205z" />
    <glyph glyph-name="braceright.case" horiz-adv-x="823" 
d="M659 811v-205h-133q-55 0 -55 -59v-694q0 -77 -49 -127t-125 -50h-236v185h154q55 0 55 61v613q0 77 43.5 119t116.5 42h21v25h-21q-73 0 -116.5 42.5t-43.5 119.5v612q0 61 -55 61h-154v185h236q76 0 125 -49.5t49 -126.5v-695q0 -59 55 -59h133z" />
    <glyph glyph-name="bracketleft.case" horiz-adv-x="737" 
d="M266 1565q0 77 50 126.5t126 49.5h234v-185h-154q-55 0 -55 -61v-1565q0 -61 55 -61h154v-184h-234q-76 0 -126 49.5t-50 126.5v1704z" />
    <glyph glyph-name="bracketright.case" horiz-adv-x="737" 
d="M471 1565v-1704q0 -77 -49.5 -126.5t-126.5 -49.5h-234v184h154q55 0 55 61v1565q0 61 -55 61h-154v185h234q77 0 126.5 -49.5t49.5 -126.5z" />
    <glyph glyph-name="hyphen.case" horiz-adv-x="942" 
d="M168 633v176h606v-176h-606z" />
    <glyph glyph-name="endash.case" horiz-adv-x="1253" 
d="M168 633v176h917v-176h-917z" />
    <glyph glyph-name="emdash.case" horiz-adv-x="1875" 
d="M168 633v176h1540v-176h-1540z" />
    <glyph glyph-name="guillemotleft.case" horiz-adv-x="1597" 
d="M133 797l643 368h12v-213l-462 -245v-29l462 -246v-213h-12l-643 369v209zM801 797l643 368h12v-213l-461 -245v-29l461 -246v-213h-12l-643 369v209z" />
    <glyph glyph-name="guillemotright.case" horiz-adv-x="1597" 
d="M788 797v-209l-643 -369h-12v213l461 246v29l-461 245v213h12zM1456 797v-209l-643 -369h-12v213l463 246v29l-463 245v213h12z" />
    <glyph glyph-name="guilsinglleft.case" horiz-adv-x="983" 
d="M133 805l696 360h13v-213l-523 -245v-29l523 -246v-213h-13l-696 361v225z" />
    <glyph glyph-name="guilsinglright.case" horiz-adv-x="983" 
d="M850 805v-225l-696 -361h-13v213l523 246v29l-523 245v213h13z" />
    <glyph glyph-name="uni2197.case" 
d="M375 1434h672l100 -101v-671h-168v397l10 71l-16 11l-49 -58l-693 -696l-129 129l695 694l57 50l-10 16l-72 -10h-397v168z" />
    <glyph glyph-name="arrowright.case" horiz-adv-x="1638" 
d="M1065 1262l471 -471v-140l-471 -471l-123 123l272 272l60 43l-6 19l-74 -6h-1092v180h1092l74 -6l6 18l-60 43l-272 273z" />
    <glyph glyph-name="arrowleft.case" horiz-adv-x="1638" 
d="M573 1262l123 -123l-272 -273l-59 -43l6 -18l73 6h1092v-180h-1092l-73 6l-6 -19l59 -43l272 -272l-123 -123l-471 471v140z" />
    <glyph glyph-name="uni2196.case" 
d="M895 1434v-168h-397l-72 10l-10 -16l57 -50l694 -694l-129 -129l-692 696l-49 58l-16 -11l10 -71v-397h-168v671l100 101h672z" />
    <glyph glyph-name="arrowboth.case" horiz-adv-x="1638" 
d="M1065 1262l471 -471v-140l-471 -471l-123 123l272 272l60 43l-6 19l-74 -6h-750l-73 6l-6 -19l59 -43l272 -272l-123 -123l-471 471v140l471 471l123 -123l-272 -273l-59 -43l6 -18l73 6h750l74 -6l6 18l-60 43l-272 273z" />
    <glyph glyph-name="at.case" horiz-adv-x="2056" 
d="M172 250v934q0 194 100 293.5t293 99.5h926q193 0 293 -99.5t100 -293.5v-725q0 -101 -60 -161t-161 -60h-229q-69 0 -110.5 41.5t-41.5 109.5v12h-29q-17 -79 -88.5 -135.5t-193.5 -56.5q-176 0 -297 137t-121 356v29q0 219 121 356.5t297 137.5q64 0 116.5 -19t84 -49
t50 -60t23.5 -57h29v156h188v-717q0 -73 68 -73h84q47 0 64.5 17t17.5 64v693q0 117 -54.5 171t-171.5 54h-884q-117 0 -171.5 -54t-54.5 -171v-926q0 -117 54.5 -171t171.5 -54h1265v-172h-1286q-193 0 -293 99.5t-100 293.5zM1006 1049q-115 0 -188 -88t-73 -234v-20
q0 -146 73 -234t188 -88q116 0 190 87t74 235v20q0 148 -74 235t-190 87z" />
    <glyph glyph-name="bar.case" horiz-adv-x="487" 
d="M340 1753v-2072h-193v2072h193z" />
    <glyph glyph-name="brokenbar.case" horiz-adv-x="487" 
d="M340 893h-193v860h193v-860zM147 541h193v-860h-193v860z" />
    <glyph glyph-name="uni0308.case" horiz-adv-x="0" 
d="M-823 1677q0 64 45 108t110 44t110.5 -44t45.5 -108t-45.5 -107.5t-110.5 -43.5t-110 43.5t-45 107.5zM-414 1677q0 64 45.5 108t110.5 44t110.5 -44t45.5 -108t-45.5 -107.5t-110.5 -43.5t-110.5 43.5t-45.5 107.5z" />
    <glyph glyph-name="uni0307.case" horiz-adv-x="0" 
d="M-414 1677q0 64 45.5 108t110.5 44t110.5 -44t45.5 -108t-45.5 -107.5t-110.5 -43.5t-110.5 43.5t-45.5 107.5z" />
    <glyph glyph-name="gravecomb.case" horiz-adv-x="0" 
d="M-215 1802l113 -235h-189l-164 235h240z" />
    <glyph glyph-name="acutecomb.case" horiz-adv-x="0" 
d="M-342 1802h240l-164 -235h-189z" />
    <glyph glyph-name="uni030B.case" horiz-adv-x="0" 
d="M-657 1802h239l-164 -235h-188zM-342 1802h240l-164 -235h-189z" />
    <glyph glyph-name="uni0302.case" horiz-adv-x="0" 
d="M-324 1567l-96 114h-24l-97 -114h-221l209 235h242l209 -235h-222z" />
    <glyph glyph-name="uni030C.case" horiz-adv-x="0" 
d="M-324 1802h222l-209 -235h-242l-209 235h221l97 -114h24z" />
    <glyph glyph-name="uni0306.case" horiz-adv-x="0" 
d="M-258 1802h156v-16q0 -105 -65 -168.5t-173 -63.5t-173 63.5t-65 168.5v16h156v-14q0 -35 22 -58.5t60 -23.5t60 23.5t22 58.5v14z" />
    <glyph glyph-name="uni030A.case" horiz-adv-x="0" 
d="M-532 1722q0 91 61.5 149t153.5 58t153.5 -58t61.5 -149t-61.5 -148.5t-153.5 -57.5t-153.5 57.5t-61.5 148.5zM-393 1722q0 -32 21.5 -53.5t54.5 -21.5t54 21t21 54t-21 54.5t-54 21.5t-54.5 -21.5t-21.5 -54.5z" />
    <glyph glyph-name="tildecomb.case" horiz-adv-x="0" 
d="M-836 1636l97 117q38 47 72 70.5t83 23.5q56 0 94 -27.5t78 -86.5q15 -22 27 -31.5t31 -9.5q30 0 57 34l78 97l117 -92l-97 -117q-38 -47 -72 -70.5t-83 -23.5q-56 0 -94 27.5t-78 86.5q-15 22 -27 31.5t-31 9.5q-29 0 -57 -35l-78 -96z" />
    <glyph glyph-name="uni0304.case" horiz-adv-x="0" 
d="M-102 1726v-159h-586v159h586z" />
    <glyph glyph-name="ringacutecomb" horiz-adv-x="634" 
d="M475 1454q57 -57 57 -145q0 -91 -61.5 -149t-153.5 -58t-153.5 58t-61.5 149t61.5 149t153.5 58h7l86 184h223zM317 1233q33 0 54.5 21.5t21.5 54.5t-21.5 54t-54.5 21t-54 -21t-21 -54t21 -54.5t54 -21.5z" />
    <glyph glyph-name="Omega" 
d="M123 889q0 260 136.5 416.5t375.5 156.5q240 0 376 -156.5t136 -416.5v-279q0 -152 -48 -248.5t-132 -140.5v-28h204v-193h-454v209q68 22 112.5 58.5t69 91.5t34 118.5t9.5 153.5v241q0 187 -79 292.5t-228 105.5q-150 0 -228.5 -107t-78.5 -291v-241q0 -183 47 -281.5
t178 -140.5v-209h-455v193h205v28q-180 91 -180 389v279z" />
    <glyph glyph-name="Delta" 
d="M37 0l420 1434h356l420 -1434h-1196zM307 193h656l-314 1091h-28z" />
    </font>
</defs>
</svg>
