<svg xmlns="http://www.w3.org/2000/svg" width="32" height="32" viewBox="0 0 32 32">
    <defs>
        <filter id="r0ywwvad7a" color-interpolation-filters="auto">
            <feColorMatrix in="SourceGraphic" values="0 0 0 0 1.000000 0 0 0 0 1.000000 0 0 0 0 1.000000 0 0 0 1.000000 0"/>
        </filter>
    </defs>
    <g fill="none" fill-rule="evenodd">
        <g>
            <g>
                <g filter="url(#r0ywwvad7a)" transform="translate(-1826 -62) translate(0 48) translate(1812)">
                    <g fill="#000">
                        <g fill-rule="nonzero">
                            <path d="M1.476 12.533l.99-3.187h5.106l.99 3.187h1.476L6.096 0H3.942L0 12.533h1.476zM7.19 8.04H2.848l2.084-6.696h.174L7.19 8.039zM21.21 12.533L21.21 11.226 14.264 11.226 21.071 1.218 21.071 0 12.683 0 12.683 1.289 19.317 1.289 12.492 11.298 12.492 12.533z" transform="translate(14 14) translate(5.333 9.333)"/>
                        </g>
                        <path d="M16.166.25l2.293 3.44c.062.091.037.215-.055.276-.033.022-.072.034-.111.034h-4.586c-.11 0-.2-.09-.2-.2 0-.04.012-.078.034-.11L15.834.25c.06-.092.185-.117.277-.056.022.015.04.034.055.056z" transform="translate(14 14)"/>
                        <path d="M16.166 28.25l2.293 3.44c.062.091.037.215-.055.276-.033.022-.072.034-.111.034h-4.586c-.11 0-.2-.09-.2-.2 0-.04.012-.078.034-.11l2.293-3.44c.06-.092.185-.117.277-.056.022.015.04.034.055.056z" transform="translate(14 14) matrix(1 0 0 -1 0 60)"/>
                    </g>
                </g>
            </g>
        </g>
    </g>
</svg>
