<svg xmlns="http://www.w3.org/2000/svg" width="340" height="60" viewBox="0 0 340 60">
    <g fill="none" fill-rule="evenodd">
        <g fill="#FFF">
            <g>
                <g>
                    <g>
                        <path d="M293.637 11.064c1.116 0 2.126.189 3.028.567.903.378 1.674.906 2.313 1.583.64.677 1.131 1.468 1.476 2.374.345.906.518 1.877.518 2.912 0 1.055-.173 2.036-.518 2.942-.345.906-.837 1.692-1.476 2.36-.639.666-1.41 1.189-2.313 1.567-.902.378-1.912.567-3.028.567-1.034 0-2.008-.214-2.921-.642-.913-.428-1.613-1.01-2.1-1.747h-.061V34h-2.739V11.422h2.739v2.03h.06l.165-.221c.51-.65 1.181-1.164 2.012-1.54.923-.418 1.871-.627 2.845-.627zM56.23 0c8.356 0 15.154 6.729 15.154 15.003C71.384 23.27 64.586 30 56.23 30c-8.355 0-15.154-6.729-15.154-14.997C41.076 6.729 47.875 0 56.23 0zm55.32 0c2.154 0 4.238.42 6.2 1.256 1.274.545 1.855 1.989 1.295 3.227-.559 1.238-2.044 1.803-3.32 1.257-1.318-.56-2.722-.845-4.175-.845-5.735 0-10.4 4.534-10.4 10.102 0 4.978 3.778 9.169 8.693 9.967l.275.041L127.422 1.29c.636-.87 1.777-1.242 2.821-.916.988.305 1.677 1.161 1.75 2.154l.007.177V27.33c0 1.353-1.129 2.447-2.521 2.447-1.336 0-2.43-1.009-2.514-2.286l-.006-.161v-16.67l-.167-.041c-.012.019-.046.066-.062.088l-.009.012-13.315 18.25c-.484.66-1.258 1.032-2.057 1.032-.047 0-.095 0-.142-.004-8.337-.178-15.098-6.885-15.098-14.999 0-8.27 6.926-14.997 15.44-14.997zM92.52 7.692c1.481 0 2.695 1.084 2.786 2.452l.005.165v17.07c0 1.445-1.25 2.621-2.791 2.621-1.484 0-2.699-1.09-2.787-2.461l-.005-.16V10.31c0-1.444 1.25-2.617 2.792-2.617zM92.676 0c1.455 0 2.635 1.151 2.635 2.572 0 1.367-1.091 2.488-2.468 2.572l-.167.005H88.32c-.26.01-.472.199-.514.445l-.008.095v21.027c-.02 1.389-1.18 2.515-2.61 2.515-1.372 0-2.496-1.038-2.6-2.35l-.008-.165h-.002V5.689c.002-.259-.18-.475-.428-.528l-.096-.012H79.42c-.276 0-.504.193-.547.45l-.007.088v21.029c-.02 1.389-1.18 2.515-2.61 2.515-1.372 0-2.496-1.038-2.6-2.35l-.008-.165h-.002V5.687c0-.27-.2-.49-.464-.53l-.09-.008H70.43c-1.456 0-2.634-1.155-2.634-2.577 0-1.366 1.09-2.483 2.468-2.567L70.429 0h22.247zM2.521 0C3.86 0 4.954 1.015 5.04 2.295l.006.161v21.322c0 .297.222.545.514.592l.1.007H16.25c1.377 0 2.493 1.087 2.493 2.425 0 1.289-1.028 2.341-2.329 2.424l-.164.005H2.521c-1.336 0-2.43-1.013-2.516-2.293L0 26.776V2.456C0 1.101 1.13 0 2.521 0zm40.005.524c1.023.8 1.238 2.245.522 3.302l-.103.142-8.139 10.362c-.082.1-.131.226-.131.365 0 .104.029.2.077.283l.054.08 7.983 10.205c.838 1.068.651 2.61-.416 3.446-.45.352-.986.522-1.516.522-.668 0-1.33-.27-1.81-.792l-.126-.148-7.067-9.04c-.104-.136-.27-.224-.457-.224-.147 0-.283.056-.386.149l-.07.076-7.066 9.039c-.484.617-1.206.94-1.936.94-.53 0-1.065-.17-1.515-.522-1.021-.801-1.236-2.247-.52-3.304l.103-.142 7.983-10.205c.08-.1.132-.225.132-.363 0-.104-.03-.201-.078-.285l-.054-.08-3.515-4.475-.059-.078-.022-.026-.151.062v3.43c0 4.698-3.828 8.52-8.532 8.52-4.62 0-8.393-3.684-8.529-8.264l-.004-.255V2.454C7.178 1.1 8.278 0 9.637 0c1.302 0 2.368 1.013 2.451 2.293l.006.162V13.4c0 1.99 1.623 3.612 3.617 3.612 1.93 0 3.511-1.518 3.611-3.42l.005-.192V2.455c0-1.048.665-1.979 1.656-2.32.933-.321 1.96-.054 2.618.665l.119.14 7.22 9.194c.106.137.27.225.457.225.156.001.296-.06.4-.16l.057-.063L39.077.94c.837-1.066 2.382-1.254 3.45-.416zm205.63 3.372c1.42 0 2.815.269 4.184.806 1.37.538 2.49 1.364 3.363 2.48l-2.435 1.82-.208-.251c-.574-.655-1.275-1.168-2.104-1.54-.934-.418-1.897-.627-2.892-.627-1.217 0-2.318.224-3.301.672-.984.448-1.826 1.06-2.526 1.836-.7.777-1.243 1.688-1.629 2.733-.385 1.045-.578 2.165-.578 3.36 0 1.115.183 2.17.548 3.166.365.995.893 1.871 1.583 2.628.69.756 1.531 1.354 2.525 1.792.995.438 2.12.657 3.378.657 1.238 0 2.323-.25 3.257-.747.933-.498 1.724-1.194 2.373-2.09l2.466 1.821-.067.087c-.169.212-.43.497-.786.854-.405.408-.943.816-1.613 1.225-.669.408-1.476.766-2.419 1.075-.943.308-2.034.463-3.271.463-1.705 0-3.241-.319-4.611-.956-1.37-.637-2.536-1.473-3.5-2.509-.963-1.035-1.699-2.205-2.206-3.509-.507-1.304-.76-2.623-.76-3.957 0-1.633.273-3.14.82-4.525.549-1.383 1.314-2.578 2.298-3.583.984-1.006 2.166-1.787 3.546-2.345 1.38-.557 2.901-.836 4.565-.836zm76.827 3.554v3.972h3.926v2.33h-3.926v6.42l.003.397c.005.263.014.524.027.783.02.388.097.737.229 1.045.131.309.334.558.608.747.274.19.675.284 1.202.284.325 0 .66-.03 1.005-.09.344-.06.659-.17.943-.328v2.449l-.17.085c-.298.134-.662.23-1.093.288-.517.07-.918.104-1.202.104-1.055 0-1.872-.144-2.45-.433-.578-.288-1.004-.662-1.278-1.12-.274-.458-.436-.97-.487-1.538-.05-.567-.076-1.14-.076-1.717v-7.377h-3.165v-2.329h3.165V7.45h2.739zm-14.045 3.614c1.278 0 2.359.219 3.241.657.883.438 1.608 1.01 2.176 1.717.568.707.98 1.503 1.233 2.39.253.885.38 1.786.38 2.702v.956h-11.564l.008.26c.034.516.168.992.403 1.427.274.508.634.94 1.08 1.3.446.357.964.636 1.552.835.588.2 1.197.299 1.826.299.852 0 1.593-.194 2.222-.582.629-.389 1.207-.901 1.734-1.538l2.07 1.552-.186.228c-1.507 1.78-3.576 2.67-6.205 2.67-1.136 0-2.166-.19-3.09-.568-.922-.378-1.703-.901-2.342-1.568-.64-.667-1.131-1.453-1.476-2.36-.345-.905-.518-1.886-.518-2.941s.188-2.036.563-2.942c.376-.906.893-1.692 1.552-2.36.66-.666 1.446-1.189 2.359-1.567.913-.378 1.907-.567 2.982-.567zm-46.242 0c1.055 0 1.963.129 2.724.388.76.259 1.384.607 1.871 1.045.487.438.847.94 1.08 1.508.234.568.35 1.16.35 1.777v7.228l.002.365c.004.359.014.695.029 1.008.02.419.05.817.091 1.195h-2.434l-.051-.717c-.027-.478-.04-.955-.04-1.433h-.062l-.168.243c-.572.788-1.236 1.354-1.992 1.698-.832.378-1.796.567-2.891.567-.67 0-1.309-.09-1.918-.268-.608-.18-1.14-.448-1.597-.807-.457-.358-.817-.801-1.08-1.329-.264-.527-.396-1.14-.396-1.836 0-.916.208-1.683.624-2.3.416-.617.984-1.12 1.704-1.508.72-.388 1.562-.667 2.526-.836.963-.17 1.993-.254 3.089-.254h2.008V16.2l-.008-.215c-.023-.286-.091-.573-.205-.86-.142-.358-.355-.682-.639-.97-.284-.29-.639-.518-1.065-.687-.426-.17-.933-.254-1.522-.254-.527 0-.989.05-1.384.15-.396.099-.756.223-1.08.373-.325.149-.62.323-.883.522-.264.2-.518.388-.761.568l-1.643-1.673.261-.226c.71-.585 1.515-1.032 2.417-1.342 1.014-.348 2.028-.522 3.043-.522zM225.118 3v22.578h-2.739v-2.03h-.06l-.165.221c-.51.65-1.18 1.164-2.011 1.54-.924.418-1.872.627-2.846.627-1.116 0-2.125-.189-3.028-.567-.903-.378-1.674-.906-2.313-1.583-.639-.677-1.13-1.463-1.476-2.36-.345-.895-.517-1.87-.517-2.926 0-1.055.172-2.036.517-2.942.345-.906.837-1.692 1.476-2.36.64-.666 1.41-1.189 2.313-1.567.903-.378 1.912-.567 3.028-.567 1.035 0 2.009.214 2.922.642.913.428 1.613 1.01 2.1 1.747h.06V3h2.74zm-24.696 8.064c1.278 0 2.359.219 3.241.657.883.438 1.608 1.01 2.176 1.717.568.707.98 1.503 1.233 2.39.253.885.38 1.786.38 2.702v.956h-11.564l.008.26c.034.516.168.992.403 1.427.273.508.634.94 1.08 1.3.446.357.964.636 1.552.835.588.2 1.197.299 1.826.299.852 0 1.593-.194 2.222-.582.628-.389 1.207-.901 1.734-1.538l2.07 1.552-.186.228c-1.507 1.78-3.576 2.67-6.205 2.67-1.136 0-2.166-.19-3.09-.568-.922-.378-1.703-.901-2.342-1.568-.64-.667-1.132-1.453-1.476-2.36-.345-.905-.518-1.886-.518-2.941s.188-2.036.563-2.942c.376-.906.893-1.692 1.552-2.36.66-.666 1.446-1.189 2.359-1.567.913-.378 1.907-.567 2.982-.567zm81.331 0c.447 0 .852.06 1.218.179l-.122 2.897-.335-.082-.335-.068c-.223-.04-.446-.06-.67-.06-1.338 0-2.363.369-3.073 1.106-.71.736-1.065 1.881-1.065 3.434v7.108h-2.739V11.422h2.74v2.18h.06l.117-.223c.165-.291.37-.56.613-.807.305-.309.644-.573 1.02-.792.375-.219.786-.393 1.232-.522.447-.13.893-.194 1.34-.194zm-98.175-6.63l.37.004c1.214.03 2.227.213 3.038.548.893.368 1.598.836 2.115 1.404.518.567.878 1.204 1.08 1.911.203.707.305 1.389.305 2.046 0 .677-.122 1.329-.365 1.956-.244.627-.594 1.195-1.05 1.702-.457.508-1.015.936-1.674 1.284-.66.349-1.395.563-2.206.643l6.117 9.646h-3.652l-5.478-9.318h-3.256v9.318H176V4.434h7.578zM56.23 4.897c-5.627 0-10.208 4.534-10.208 10.106 0 5.568 4.58 10.102 10.208 10.102 5.629 0 10.207-4.534 10.207-10.102 0-5.572-4.578-10.106-10.207-10.106zm211.935 13.872h-1.46l-.49.006c-.493.013-.994.046-1.504.098-.68.07-1.298.204-1.856.403-.558.2-1.015.478-1.37.837-.355.358-.532.816-.532 1.374 0 .816.279 1.403.837 1.762.557.358 1.313.537 2.267.537.75 0 1.39-.124 1.917-.373.528-.25.954-.573 1.278-.97.325-.399.558-.842.7-1.33.142-.488.213-.97.213-1.448v-.896zm-50.533-5.197c-.73 0-1.39.125-1.978.374-.589.248-1.086.587-1.491 1.015-.406.428-.72.946-.944 1.553-.223.607-.335 1.27-.335 1.986 0 .717.112 1.379.335 1.986.223.607.538 1.125.944 1.553.405.428.902.767 1.49 1.015.59.25 1.248.374 1.979.374.73 0 1.39-.125 1.978-.374.588-.248 1.085-.587 1.491-1.015.406-.428.72-.946.944-1.553.223-.607.334-1.27.334-1.986 0-.717-.111-1.379-.334-1.986-.224-.607-.538-1.125-.944-1.553-.406-.428-.903-.767-1.491-1.015-.588-.25-1.248-.374-1.978-.374zm75.67 0c-.73 0-1.39.125-1.978.374-.588.248-1.085.587-1.49 1.015-.407.428-.721.946-.944 1.553-.223.607-.335 1.27-.335 1.986 0 .717.112 1.379.335 1.986.223.607.537 1.125.943 1.553.406.428.903.767 1.491 1.015.589.25 1.248.374 1.979.374.73 0 1.39-.125 1.978-.374.588-.248 1.085-.587 1.49-1.015.407-.428.721-.946.944-1.553.223-.607.335-1.27.335-1.986 0-.717-.112-1.379-.335-1.986-.223-.607-.537-1.125-.943-1.553-.406-.428-.903-.767-1.491-1.015-.589-.25-1.248-.374-1.978-.374zm-92.94-.358c-.67 0-1.284.124-1.842.373-.558.25-1.03.573-1.415.97-.385.399-.685.842-.898 1.33-.213.488-.32.97-.32 1.448h8.644c-.02-.597-.117-1.145-.29-1.642-.172-.498-.43-.931-.776-1.3-.344-.368-.776-.656-1.293-.866-.517-.209-1.12-.313-1.81-.313zm110.515 0c-.67 0-1.283.124-1.84.373-.559.25-1.03.573-1.416.97-.385.399-.685.842-.898 1.33-.213.488-.32.97-.32 1.448h8.644c-.02-.597-.117-1.145-.29-1.642-.172-.498-.43-.931-.775-1.3-.345-.368-.777-.656-1.294-.866-.517-.209-1.12-.313-1.81-.313zM182.756 6.942h-3.834v6.81h3.834c.568 0 1.131-.045 1.69-.135.557-.09 1.054-.254 1.49-.493.436-.239.786-.582 1.05-1.03.264-.448.396-1.03.396-1.747 0-.717-.132-1.3-.396-1.747-.264-.448-.614-.792-1.05-1.03-.436-.24-.933-.404-1.49-.493-.559-.09-1.122-.135-1.69-.135zM122.229 0c.992 0 1.795.778 1.795 1.733 0 .956-.803 1.729-1.795 1.729-.99 0-1.794-.773-1.794-1.729 0-.955.803-1.733 1.794-1.733zm.015.263c-.842 0-1.523.658-1.523 1.47 0 .81.681 1.468 1.523 1.468.84 0 1.522-.657 1.522-1.468 0-.812-.682-1.47-1.522-1.47zm.128.567c.144 0 .26.02.354.06.177.077.265.217.265.427 0 .106-.025.196-.07.266-.046.069-.11.122-.195.165.072.03.128.065.165.114.027.034.045.085.055.153l.008.074.008.243c.002.068.009.117.017.153.01.037.026.065.047.086l.036.025v.04h-.31c-.01-.014-.016-.035-.021-.063-.005-.014-.008-.04-.01-.077l-.004-.063-.015-.3c-.005-.12-.049-.2-.137-.24-.031-.014-.076-.023-.133-.028l-.095-.003h-.577v.775h-.253V.83h.865zm.007.21h-.619v.617h.585c.12 0 .213-.022.283-.069.07-.046.103-.127.105-.248 0-.13-.05-.215-.146-.264-.05-.024-.12-.036-.208-.036z" transform="translate(-790 -48) translate(0 48) translate(790) translate(6 13)"/>
                        <path fill-rule="nonzero" d="M154.906 3.296L154.906 31.805 153.586 31.805 153.586 3.296z" opacity=".428" transform="translate(-790 -48) translate(0 48) translate(790) translate(6 13)"/>
                    </g>
                </g>
            </g>
        </g>
    </g>
</svg>
