<svg xmlns="http://www.w3.org/2000/svg" width="24" height="24" viewBox="0 0 24 24">
    <defs>
        <filter id="pb96yn75xa" color-interpolation-filters="auto">
            <feColorMatrix in="SourceGraphic" values="0 0 0 0 1.000000 0 0 0 0 1.000000 0 0 0 0 1.000000 0 0 0 1.000000 0"/>
        </filter>
    </defs>
    <g fill="none" fill-rule="evenodd">
        <g>
            <g filter="url(#pb96yn75xa)" transform="translate(-1394 -919) translate(1274 750)">
                <g>
                    <g fill="#000" fill-rule="nonzero">
                        <g>
                            <path d="M8.55 12.35c.72 0 .95.23.95.95 0 1.975-.162 3.385-.482 4.192-.222.558-.394.558-.468.558-.134 0-.3 0-.507-.545-.294-.775-.443-2.19-.443-4.205 0-.72.23-.95.95-.95m0-.95c-1.05 0-1.9.475-1.9 1.9 0 4.512.712 5.7 1.9 5.7 1.069 0 1.9-1.188 1.9-5.7 0-1.425-.85-1.9-1.9-1.9z" transform="translate(120 169) translate(3 3)"/>
                            <path d="M8.55 3.325c-2.886 0-5.225 2.34-5.225 5.225 0 1.841.953 3.459 2.393 4.39.033-.366.119-.697.25-.99-1.026-.782-1.693-2.013-1.693-3.4 0-2.357 1.918-4.275 4.275-4.275s4.275 1.918 4.275 4.275c0 1.387-.667 2.618-1.693 3.4.131.293.217.624.25.99 1.44-.931 2.393-2.549 2.393-4.39 0-2.886-2.34-5.225-5.225-5.225z" transform="translate(120 169) translate(3 3)"/>
                            <path d="M8.55 0C3.828 0 0 3.828 0 8.55c0 3.797 2.475 7.013 5.9 8.13-.049-.322-.089-.672-.12-1.055C2.957 14.515.95 11.764.95 8.55c0-4.19 3.41-7.6 7.6-7.6 4.19 0 7.6 3.41 7.6 7.6 0 3.217-2.01 5.971-4.84 7.079-.032.362-.075.717-.133 1.058 3.436-1.109 5.923-4.332 5.923-8.137C17.1 3.828 13.272 0 8.55 0z" transform="translate(120 169) translate(3 3)"/>
                            <path d="M8.55 7.6c.524 0 .95.426.95.95s-.426.95-.95.95-.95-.426-.95-.95.426-.95.95-.95m0-.95c-1.05 0-1.9.85-1.9 1.9 0 1.05.85 1.9 1.9 1.9 1.05 0 1.9-.85 1.9-1.9 0-1.05-.85-1.9-1.9-1.9z" transform="translate(120 169) translate(3 3)"/>
                        </g>
                    </g>
                </g>
            </g>
        </g>
    </g>
</svg>
