<svg xmlns="http://www.w3.org/2000/svg" width="30" height="30" viewBox="0 0 30 30">
    <defs>
        <filter id="kfg7epny0a" color-interpolation-filters="auto">
            <feColorMatrix in="SourceGraphic" values="0 0 0 0 1.000000 0 0 0 0 1.000000 0 0 0 0 1.000000 0 0 0 1.000000 0"/>
        </filter>
    </defs>
    <g fill="none" fill-rule="evenodd">
        <g>
            <g>
                <g filter="url(#kfg7epny0a)" transform="translate(-1737 -63) translate(0 48) translate(1722)">
                    <g fill="#000" fill-rule="nonzero">
                        <path d="M5.4 10.8H4.2c-.331 0-.6.269-.6.6 0 .331.269.6.6.6h1.2c.331 0 .6-.269.6-.6 0-.331-.269-.6-.6-.6zM10.2 10.8H9c-.331 0-.6.269-.6.6 0 .331.269.6.6.6h1.2c.331 0 .6-.269.6-.6 0-.331-.269-.6-.6-.6zM15 10.8h-1.2c-.331 0-.6.269-.6.6 0 .331.269.6.6.6H15c.331 0 .6-.269.6-.6 0-.331-.269-.6-.6-.6zM19.8 10.8h-1.2c-.331 0-.6.269-.6.6 0 .331.269.6.6.6h1.2c.331 0 .6-.269.6-.6 0-.331-.269-.6-.6-.6zM5.4 14.4H4.2c-.331 0-.6.269-.6.6 0 .331.269.6.6.6h1.2c.331 0 .6-.269.6-.6 0-.331-.269-.6-.6-.6zM10.2 14.4H9c-.331 0-.6.269-.6.6 0 .331.269.6.6.6h1.2c.331 0 .6-.269.6-.6 0-.331-.269-.6-.6-.6zM15 14.4h-1.2c-.331 0-.6.269-.6.6 0 .331.269.6.6.6H15c.331 0 .6-.269.6-.6 0-.331-.269-.6-.6-.6zM19.8 14.4h-1.2c-.331 0-.6.269-.6.6 0 .331.269.6.6.6h1.2c.331 0 .6-.269.6-.6 0-.331-.269-.6-.6-.6zM5.4 18H4.2c-.331 0-.6.269-.6.6 0 .331.269.6.6.6h1.2c.331 0 .6-.269.6-.6 0-.331-.269-.6-.6-.6zM10.2 18H9c-.331 0-.6.269-.6.6 0 .331.269.6.6.6h1.2c.331 0 .6-.269.6-.6 0-.331-.269-.6-.6-.6zM15 18h-1.2c-.331 0-.6.269-.6.6 0 .331.269.6.6.6H15c.331 0 .6-.269.6-.6 0-.331-.269-.6-.6-.6zM19.8 18h-1.2c-.331 0-.6.269-.6.6 0 .331.269.6.6.6h1.2c.331 0 .6-.269.6-.6 0-.331-.269-.6-.6-.6z" transform="translate(18 18)"/>
                        <path d="M21 2.4h-1.8V.6c0-.331-.269-.6-.6-.6-.331 0-.6.269-.6.6v1.8H6V.6c0-.331-.269-.6-.6-.6-.331 0-.6.269-.6.6v1.8H3c-1.654 0-3 1.345-3 3V21c0 1.655 1.346 3 3 3h18c1.654 0 3-1.345 3-3V5.4c0-1.655-1.346-3-3-3zM3 3.6h1.8v1.8c0 .331.269.6.6.6.331 0 .6-.269.6-.6V3.6h12v1.8c0 .331.269.6.6.6.331 0 .6-.269.6-.6V3.6H21c.992 0 1.8.808 1.8 1.8v1.8H1.2V5.4c0-.992.808-1.8 1.8-1.8zm18 19.2H3c-.992 0-1.8-.808-1.8-1.8V8.4h21.6V21c0 .992-.808 1.8-1.8 1.8z" transform="translate(18 18)"/>
                    </g>
                </g>
            </g>
        </g>
    </g>
</svg>
