<svg xmlns="http://www.w3.org/2000/svg" width="551" height="23" viewBox="0 0 551 23">
    <defs>
        <filter id="xl4xp9w5pa" color-interpolation-filters="auto">
            <feColorMatrix in="SourceGraphic" values="0 0 0 0 1.000000 0 0 0 0 1.000000 0 0 0 0 1.000000 0 0 0 1.000000 0"/>
        </filter>
        <filter id="ja4zdrlf9b" color-interpolation-filters="auto">
            <feColorMatrix in="SourceGraphic" values="0 0 0 0 1.000000 0 0 0 0 1.000000 0 0 0 0 1.000000 0 0 0 1.000000 0"/>
        </filter>
    </defs>
    <g fill="none" fill-rule="evenodd">
        <g>
            <g>
                <g fill="#FFF" font-family="SpaceGrotesk-Regular, Space Grotesk" font-size="22" letter-spacing=".275">
                    <text transform="translate(-95 -704) translate(95 704)">
                        <tspan x="0" y="21">INITIATIVE</tspan>
                    </text>
                </g>
                <g>
                    <g filter="url(#xl4xp9w5pa)" transform="translate(-95 -704) translate(95 704) translate(491.966 .966)">
                        <g>
                            <path fill="#000" d="M15.339 5.507L9.606 11.802 9.325 11.802 3.592 5.507 1.549 5.507 1.549 5.649 8.409 13.493 10.523 13.493 17.382 5.648 17.382 5.507z" transform="matrix(0 -1 -1 0 19 19)"/>
                        </g>
                    </g>
                    <g filter="url(#ja4zdrlf9b)" transform="translate(-95 -704) translate(95 704) translate(491.966 .966)">
                        <g>
                            <path fill="#000" d="M15.442 5.542L9.709 11.836 9.428 11.836 3.695 5.542 1.652 5.542 1.652 5.683 8.512 13.527 10.626 13.527 17.485 5.683 17.485 5.542z" transform="rotate(-90 29.569 -10.466)"/>
                        </g>
                    </g>
                </g>
            </g>
        </g>
    </g>
</svg>
