<?xml version="1.0" encoding="utf-8"?>
<!-- Generator: Adobe Illustrator 21.1.0, SVG Export Plug-In . SVG Version: 6.00 Build 0)  -->
<svg version="1.1" id="Livello_1" xmlns="http://www.w3.org/2000/svg" xmlns:xlink="http://www.w3.org/1999/xlink" x="0px" y="0px"
	 viewBox="0 0 2500 1258.7" style="enable-background:new 0 0 2500 1258.7;" xml:space="preserve">
<g>
	<path fill="#ffffff" d="M2398.8,282.8c-25.7,0-46.5,20.8-46.5,46.5s20.8,46.5,46.5,46.5s46.5-20.8,46.4-46.5c0-0.1,0-0.1,0-0.2
		C2445.2,303.6,2424.5,282.8,2398.8,282.8z M2398.8,370.3c-22.6,0-40.9-18.3-40.9-40.9c0-0.1,0-0.1,0-0.2
		c0-22.6,18.3-40.8,40.9-40.8c0,0,0,0,0.1,0c22.5,0,40.8,18.3,40.8,40.8c0.1,22.6-18.1,40.9-40.6,41.1
		C2398.9,370.3,2398.9,370.3,2398.8,370.3z"/>
	<path fill="#ffffff" d="M2422.7,317c0-4.4-1.9-9-5.8-11.2c-3.9-2.3-8.3-2.6-12.7-2.6h-22.6v52h6.3v-24h11.7l14.9,24h7.6l-15.7-24
		C2415.5,331,2422.7,327.3,2422.7,317L2422.7,317z M2397.6,326.3h-9.8v-18.4h14.9c6.5,0,13.5,1,13.5,9
		C2416.3,327.5,2404.9,326.3,2397.6,326.3z M840.5,1096.9L537.2,948.8c-6.7-3.4-10.1-12.3-10-18L528,849c0.1-5.8,1.3-11.7,8.8-17.1
		c32.4-20.7,132.8-76.2,236.6-227.6c138.2-201.6,0-371.1-215.9-324.9c-191.8,41-387,144.8-471.7,201.3
		c-75.5,50.3-65,111.1-67.1,165.6c4.2,23,12.6,21,31.5-2.1c140.4-130,354.3-228.5,394.1-245.3s134.2-73.4,245.3-48.2
		c106.7,24.2,80.8,169.3,48.2,230.6C702.2,648.4,600.5,745.9,554.4,770c-17.5,9.2-24.1,0-24.1-14.7l7.3-315.5
		c0-21-9.4-30.4-30.4-23.1l-33.5,16.8c-23.1,13.6-22,18.9-24.1,35.6l-5.1,363.7c-0.2,7.8-3.8,14.2-8.1,16L327,910.3
		c-25.1,12.6-18.9,31.5,0,37.7l88.1,41.9c21,8.4,27.3,14.7,27.3,35.6l-3.2,176.1c78.6-15.7,83.8-53.5,86-78.6v-53.5
		c2.1-12.6,9.4-16.8,19.9-14.7l255.8,123.7c23.1,10.5,35.6,6.3,52.4-23C869.9,1126.2,872,1111.5,840.5,1096.9L840.5,1096.9z
		 M1287.5,652.6c-35.5,20.5-52,58.9-38,83.2c14,24.3,56.3,28.3,91.8,7.8c35.6-20.5,50.9-57.9,36.9-82.1
		C1364.3,637.1,1323,632,1287.5,652.6z"/>
	<path fill="#ffffff" d="M1156.3,678.7c-9.7,11.8-28.3,47.7-38.8,69.7s-32.5,71.8-54.5,71.8c-23.3,0-26.2-57.6-26.2-78.6s-12.6-24.1-18.9-23.1
		c-6.3,1.1-24.1,7.3-29.4,29.4c-5.2,22-33.5,117.4-65,117.4c-19.9,0-34.6-57.7-35.6-75.5c-1.1-17.8-9.4-32.5-27.3-32.5
		c-12.6,0-28.3,6.3-34.6,13.6s-7.3,18.9-40.9,11.5c-30.4-1.1-59.8,14.7-95.4,74.4c-21.5,36-38.9,103-6.3,130
		c30.4,25.1,83.8-19.9,99.6-38.8c15.7-18.9,29.4-32.5,35.6-43c6.3-10.5,12.6-9.4,15.7,1c3.1,10.5,21,51.4,44,50.3
		c23.1-1.1,52.4-18.9,87-79.7c6.3-12.6,15.7-11.5,17.8-1.1c2.1,10.5,15.7,45.1,38.8,45.1c22,0,46.5-35,58.7-55.5
		c8.4-14.2,21-7.3,21,6.3s-6.3,335.4-6.3,335.4c0,14.7,5.8,18.9,16.2,18.9h45.6c8.4,0,15.7-7.3,15.7-18.9l9.4-521.5
		C1182.6,672.9,1168.4,664,1156.3,678.7L1156.3,678.7z M800,884.1c-9.4,15.7-34.6,57.7-56.6,50.3c-11.5-6.3,3.8-48.2,11.5-62.9
		c11.5-22,45.3-57.1,60.8-48.2C830.4,831.7,809.4,868.4,800,884.1L800,884.1z M2397.1,562.6c-4.2,3.7-11,10-26.2,3.1
		c-26.2-10.5-28.3-59.7-41.9-104.8c-12.3-40.5-41.7-37.9-52.4-19.4l-32,51.4c-5.8,10.5-18.3,34.6-30.9,34.6c-14.7,0-8.1-21-7.3-41.9
		c0.5-14.2-8.4-32-23.1-32c-16.8,0-34.6,25.7-48.2,55c-9.5,20.5-34.1,99.1-65,99.1c-19.9,0-22-57.7-23-75.5
		c-1-17.8-7.3-39.8-25.1-39.8c-12.1,0-19.9,6.3-26.2,13.6c-6.3,7.3-7.3,13.6-29.3,10.5c-30.4-1.1-80.7,27.3-116.4,87
		c-21.5,36-47.3,111.4-14.7,138.4c30.4,25.1,84.9-33.6,100.6-52.4c15.7-18.9,29.3-32.5,35.6-43c6.3-10.5,12.6-9.4,15.7,1.1
		s21,51.4,44,50.3c23.1-1.1,41.9-6.3,76.5-67.1c6.3-12.6,17.8-14.1,19.9-3.7c2.1,10.5,4.2,38.3,26.2,38.3
		c37.7,0,80.5-91.8,91.2-113.2c9.4-18.9,24.6-13.6,29.9,0.5c7.5,20.3,14.1,85.4,55,85.4s68.6-43.5,77-57.1
		C2416.5,567.3,2411.5,549.9,2397.1,562.6L2397.1,562.6z M1952.6,625.5c-9.4,15.7-30.4,50.3-52.4,43c-11.5-6.3,2.8-36.7,10.5-51.4
		c11.5-22,45.3-57.6,60.8-48.7C1986.2,576.8,1962.1,609.8,1952.6,625.5L1952.6,625.5z M1750.1,570.6c0,0-89.1-65-114.3-94.3
		c-16.9-19.7-5.2-34.6,5.2-43c62.9-41.9,161.4-106.9,200.2-207.5c37.4-97-21-181.3-62.9-195c-57.5-18.7-179.2,18.9-240,132.1
		c-39.4,73.3-57.6,97.5-62.9,296.6c-1,37.7-2.1,80.7-2.1,127.9c0,47.2-5.2,175-10.5,199.1c-19.9,56.6,39.8,23.1,67.1,1.1
		c27.3-22,25.1-55,25.1-69.2c0-17.8,1.1-332.3,10.5-402.5c5.9-43.7,12.6-124.7,58.7-195c46.1-70.2,93.3-41.9,105.9-30.4
		s30.4,40.9,20.9,100.6c-14.6,92.7-121.6,193.9-148.9,225.3c-27.2,31.4-20.9,58.7-5.2,80.7c11.2,15.7,38.8,46.1,67.1,74.4
		c28.3,28.3,25.1,53.5,21,72.3c-14.7,56.6-167.7,209.6-167.7,209.6c-32.5,34.6,1,91.2,12.6,110c11.6,18.9,26.2,12.6,35.6-3.1
		c37.7-70.2,200.2-240,200.2-240C1813,660.7,1793.1,603,1750.1,570.6L1750.1,570.6z"/>
</g>
</svg>
